<svg width="31" height="31" fill="none" xmlns="http://www.w3.org/2000/svg"><circle cx="15.5" cy="15.5" r="15.5" fill="#007AFF"/><path fill-rule="evenodd" clip-rule="evenodd" d="M17 21a1 1 0 110 2h-4a1 1 0 110-2h4zM15 7c3.515 0 6 2.147 6 5.556 0 1.479-.574 2.679-1.651 4.015l-.892 1.068-.12.152-.1.14-.098.154a1 1 0 01-.996.915h-4.286a1 1 0 01-.996-.915l-.098-.153-.1-.141-.12-.152-.892-1.068C9.574 15.235 9 14.034 9 12.556 9 9.147 11.485 7 15 7zm0 2c-2.47 0-4 1.322-4 3.556 0 .857.333 1.62 1.027 2.53l.27.337.385.459.492.593c.145.186.267.358.366.525h2.92l.107-.169c.076-.114.163-.232.26-.356l.965-1.16.18-.23c.695-.91 1.028-1.672 1.028-2.529C19 10.322 17.47 9 15 9z" fill="#fff"/></svg>