<svg width="32" height="32" viewBox="0 0 32 32" fill="none" xmlns="http://www.w3.org/2000/svg">
<path d="M32 16C32 7.16345 24.8365 -6.26249e-07 16 -1.39877e-06C7.16344 -2.17128e-06 -6.26248e-07 7.16344 -1.39876e-06 16C-2.17128e-06 24.8365 7.16344 32 16 32L32 32L32 16Z" fill="#2CAF2B"/>
<path fill-rule="evenodd" clip-rule="evenodd" d="M16 8C20.4183 8 24 11.5817 24 16C24 20.4183 20.4183 24 16 24C11.5817 24 8 20.4183 8 16C8 11.5817 11.5817 8 16 8ZM16 10C12.6863 10 10 12.6863 10 16C10 19.3137 12.6863 22 16 22C19.3137 22 22 19.3137 22 16C22 12.6863 19.3137 10 16 10ZM16 12C16.5523 12 17 12.4477 17 13V15H19C19.5523 15 20 15.4477 20 16C20 16.5523 19.5523 17 19 17H17V19C17 19.5523 16.5523 20 16 20C15.4477 20 15 19.5523 15 19V17H13C12.4477 17 12 16.5523 12 16C12 15.4477 12.4477 15 13 15H15V13C15 12.4477 15.4477 12 16 12Z" fill="white"/>
</svg>
