<svg width="32" height="32" viewBox="0 0 32 32" fill="none" xmlns="http://www.w3.org/2000/svg">
<path d="M32 16C32 7.16345 24.8365 -6.26249e-07 16 -1.39877e-06C7.16344 -2.17128e-06 -6.26248e-07 7.16344 -1.39876e-06 16C-2.17128e-06 24.8365 7.16344 32 16 32L32 32L32 16Z" fill="#007AFF"/>
<path fill-rule="evenodd" clip-rule="evenodd" d="M12 22C9.79086 22 8 20.0812 8 17.7143C8 15.7898 9.19155 14.1331 10.8636 13.6041C11.741 11.4454 13.7417 10 16 10C18.8522 10 21.2063 12.2846 21.5554 15.2389C22.9581 15.6027 24 16.9567 24 18.5714C24 20.3901 22.6749 21.8894 20.9641 21.9953L20.8 22H12ZM12 20L20.8406 19.9991C21.4685 19.9603 22 19.3602 22 18.5714C22 17.876 21.58 17.3115 21.0534 17.1749C20.2553 16.968 19.6659 16.2924 19.5692 15.4736C19.3328 13.4729 17.7844 12 16 12C14.5957 12 13.3027 12.9149 12.7164 14.3572C12.5147 14.8534 12.1236 15.2455 11.6337 15.4499L11.3206 15.5643C10.5533 15.8824 10 16.7274 10 17.7143C10 19.0063 10.9274 20 12 20Z" fill="white"/>
</svg>
