<svg width="32" height="32" viewBox="0 0 32 32" fill="none" xmlns="http://www.w3.org/2000/svg">
<path d="M32 16C32 7.16345 24.8365 -6.26249e-07 16 -1.39877e-06C7.16344 -2.17128e-06 -6.26248e-07 7.16344 -1.39876e-06 16C-2.17128e-06 24.8365 7.16344 32 16 32L32 32L32 16Z" fill="#FFD000"/>
<path d="M21.4284 11.1432C18.591 11.1432 16.7133 13.4631 15.0567 15.5103C13.6413 17.2592 12.3048 18.9106 10.6769 18.9106C8.9849 18.9106 7.94604 17.1716 7.94604 15.9249C7.94604 14.769 9.08568 13.0892 10.8718 13.0892C12.605 13.0892 13.5079 14.4764 13.5534 14.5475C13.8342 15.0019 14.4304 15.1448 14.8871 14.8663C15.346 14.5867 15.4914 13.988 15.2116 13.5291C15.1523 13.4319 13.7249 11.1433 10.8718 11.1433C8.00089 11.1433 6 13.6636 6 15.925C6 18.2577 7.92074 20.8568 10.6768 20.8568C13.2328 20.8568 14.9291 18.7612 16.5692 16.7345C18.0864 14.8602 19.5196 13.0894 21.4284 13.0894C22.564 13.0894 23.3103 13.4747 23.7091 14.2663C24.0548 14.9533 24.0545 15.7306 24.0542 16C24.0542 16.1544 23.9726 16.929 23.5948 17.6265C23.1639 18.421 22.5523 18.7909 21.6684 18.7909C19.8886 18.7909 18.9269 17.6339 18.5648 17.1982C18.4707 17.0848 18.4029 17.0031 18.3124 16.9257C17.9047 16.5764 17.2901 16.6233 16.9403 17.0315C16.6029 17.4252 16.6354 18.0104 17.0039 18.3647C17.0215 18.3847 17.0427 18.4109 17.0678 18.4414C17.5398 19.0094 18.9748 20.7367 21.668 20.7367C24.9413 20.7367 25.9999 17.545 25.9999 15.9867C26.0001 14.9941 25.8143 14.121 25.4468 13.391C24.9309 12.3659 23.8147 11.1432 21.4284 11.1432Z" fill="white"/>
</svg>
