<svg width="48" height="48" viewBox="0 0 48 48" fill="none" xmlns="http://www.w3.org/2000/svg">
<circle cx="24" cy="24" r="24" fill="#007AFF"/>
<path fill-rule="evenodd" clip-rule="evenodd" d="M15.125 16H18.5C20.2974 16 21.7666 17.405 21.8693 19.1767L21.875 19.375V22.75C21.875 23.1902 21.6189 23.5855 21.2272 23.7688L21.1058 23.8173L18.5846 24.6577L18.8537 25.0587C19.9551 26.6473 21.3527 28.0449 22.9413 29.1463L23.3423 29.4154L24.1827 26.8942C24.3219 26.4766 24.6899 26.1826 25.1195 26.1326L25.25 26.125H28.625C30.4224 26.125 31.8916 27.53 31.9943 29.3017L32 29.5V32.875C32 33.4963 31.4963 34 30.875 34C22.0384 34 14 25.9616 14 17.125C14 16.5481 14.4343 16.0726 14.9938 16.0076L15.125 16ZM28.6255 28.375H26.0613L25.3479 30.5152L25.8164 30.7181C26.9169 31.172 28.0681 31.4887 29.2447 31.6429L29.7505 31.6989V29.5C29.7505 28.8787 29.2468 28.375 28.6255 28.375ZM26.375 20.5C26.9963 20.5 27.5 21.0037 27.5 21.625C27.5 22.2463 26.9963 22.75 26.375 22.75C25.7537 22.75 25.25 22.2463 25.25 21.625C25.25 21.0037 25.7537 20.5 26.375 20.5ZM26.375 16C29.4816 16 32 18.5184 32 21.625C32 22.2463 31.4963 22.75 30.875 22.75C30.2981 22.75 29.8226 22.3157 29.7576 21.7562L29.7443 21.4267C29.6416 19.655 28.1724 18.25 26.375 18.25C25.7537 18.25 25.25 17.7463 25.25 17.125C25.25 16.5037 25.7537 16 26.375 16ZM18.5004 18.25H16.3015C16.424 19.6025 16.7635 20.9264 17.2823 22.1841L17.4851 22.6526L19.6254 21.9391V19.375C19.6254 18.7537 19.1217 18.25 18.5004 18.25Z" fill="white"/>
</svg>
