<svg width="48" height="48" viewBox="0 0 48 48" fill="none" xmlns="http://www.w3.org/2000/svg">
<circle cx="24" cy="24" r="24" fill="#007AFF"/>
<path fill-rule="evenodd" clip-rule="evenodd" d="M26.5 32.5C27.1904 32.5 27.75 33.0596 27.75 33.75C27.75 34.4404 27.1904 35 26.5 35H21.5C20.8096 35 20.25 34.4404 20.25 33.75C20.25 33.0596 20.8096 32.5 21.5 32.5H26.5ZM23.9997 15C28.3943 15 31.5 17.6842 31.5 21.9452C31.5 23.7931 30.783 25.2932 29.4358 26.964L28.3207 28.2984L28.1724 28.4883L28.0462 28.6646L27.924 28.8563C27.8688 29.5031 27.3277 30 26.6786 30H21.3214C20.6723 30 20.1312 29.5031 20.076 28.8563L19.9538 28.6646L19.8276 28.4883L19.6792 28.2983L18.5641 26.9639C17.2171 25.2932 16.5 23.7931 16.5 21.9452C16.5 17.6843 19.6056 15 23.9997 15ZM23.9997 17.5C20.9119 17.5 19 19.1525 19 21.9452C19 23.0165 19.416 23.969 20.2839 25.1064L20.6211 25.529L21.1028 26.1024L21.7169 26.8434C21.8984 27.076 22.051 27.2914 22.1749 27.5H25.8251L25.9586 27.2888C26.054 27.1459 26.1621 26.9985 26.2831 26.8434L27.4897 25.3948L27.7161 25.1065C28.5841 23.9691 29 23.0166 29 21.9452C29 19.1525 27.088 17.5 23.9997 17.5Z" fill="white"/>
</svg>
