<svg width="32" height="32" viewBox="0 0 32 32" fill="none" xmlns="http://www.w3.org/2000/svg">
<path opacity="0.1" d="M32 16C32 7.16345 24.8365 -6.26249e-07 16 -1.39877e-06C7.16344 -2.17128e-06 -6.26248e-07 7.16344 -1.39876e-06 16C-2.17128e-06 24.8365 7.16344 32 16 32C24.8366 32 32 24.8366 32 16Z" fill="#6CB3FF"/>
<path d="M21.4284 11.1431C18.591 11.1431 16.7133 13.463 15.0567 15.5102C13.6413 17.2591 12.3048 18.9105 10.6769 18.9105C8.9849 18.9105 7.94604 17.1715 7.94604 15.9248C7.94604 14.7689 9.08568 13.0892 10.8718 13.0892C12.605 13.0892 13.5079 14.4763 13.5534 14.5474C13.8342 15.0018 14.4304 15.1448 14.8871 14.8663C15.346 14.5867 15.4914 13.988 15.2116 13.529C15.1523 13.4319 13.7249 11.1433 10.8718 11.1433C8.00089 11.1433 6 13.6635 6 15.925C6 18.2576 7.92074 20.8567 10.6768 20.8567C13.2328 20.8567 14.9291 18.7611 16.5692 16.7344C18.0864 14.8601 19.5196 13.0893 21.4284 13.0893C22.564 13.0893 23.3103 13.4746 23.7091 14.2662C24.0548 14.9532 24.0545 15.7306 24.0542 15.9999C24.0542 16.1543 23.9726 16.9289 23.5948 17.6264C23.1639 18.421 22.5523 18.7908 21.6684 18.7908C19.8886 18.7908 18.9269 17.6339 18.5648 17.1981C18.4707 17.0847 18.4029 17.0031 18.3124 16.9256C17.9047 16.5764 17.2901 16.6232 16.9403 17.0314C16.6029 17.4251 16.6354 18.0104 17.0039 18.3647C17.0215 18.3846 17.0427 18.4109 17.0678 18.4413C17.5398 19.0093 18.9748 20.7366 21.668 20.7366C24.9413 20.7366 25.9999 17.5449 25.9999 15.9866C26.0001 14.9941 25.8143 14.121 25.4468 13.391C24.9309 12.3658 23.8147 11.1431 21.4284 11.1431Z" fill="#6CB2FF"/>
</svg>
