<svg width="32" height="32" viewBox="0 0 32 32" fill="none" xmlns="http://www.w3.org/2000/svg">
<path d="M32 16C32 7.16345 24.8365 -6.26249e-07 16 -1.39877e-06C7.16344 -2.17128e-06 -6.26248e-07 7.16344 -1.39876e-06 16C-2.17128e-06 24.8365 7.16344 32 16 32L32 32L32 16Z" fill="#F8B8C4"/>
<path fill-rule="evenodd" clip-rule="evenodd" d="M12 13.5C12 11.8335 13.2977 10.49 15.0065 10.1088L15.0016 10.0551L15 9C15 8.44772 15.4477 8 16 8C16.5523 8 17 8.44772 17 9V10L16.9935 10.1088C18.7023 10.49 20 11.8335 20 13.5C20 14.0523 19.5523 14.5 19 14.5C18.4872 14.5 18.0645 14.114 18.0067 13.6166L18 13.5C18 12.716 17.1408 12 16 12C14.8592 12 14 12.716 14 13.5C14 14.2448 14.7754 14.9282 15.8311 14.9947L16 15C18.1729 15 20 16.5226 20 18.5C20 20.1643 18.7058 21.5064 17.0004 21.8897L17 23C17 23.5523 16.5523 24 16 24C15.4477 24 15 23.5523 15 23L15.0006 21.8899C13.2947 21.5069 12 20.1646 12 18.5C12 17.9477 12.4477 17.5 13 17.5C13.5128 17.5 13.9355 17.886 13.9933 18.3834L14 18.5C14 19.284 14.8592 20 16 20C17.1408 20 18 19.284 18 18.5C18 17.7552 17.2246 17.0718 16.1689 17.0053L16 17C13.8271 17 12 15.4774 12 13.5Z" fill="white"/>
</svg>
