<svg width="48" height="48" viewBox="0 0 48 48" fill="none" xmlns="http://www.w3.org/2000/svg">
<circle cx="24" cy="24" r="24" fill="#007AFF"/>
<path fill-rule="evenodd" clip-rule="evenodd" d="M22.875 29.5H18.375C16.511 29.5 15 27.989 15 26.125V19.375C15 17.511 16.511 16 18.375 16H29.625C31.489 16 33 17.511 33 19.375V26.125C33 27.989 31.489 29.5 29.625 29.5H25.125V31.75H27.375C27.9963 31.75 28.5 32.2537 28.5 32.875C28.5 33.4963 27.9963 34 27.375 34H20.625C20.0037 34 19.5 33.4963 19.5 32.875C19.5 32.2537 20.0037 31.75 20.625 31.75H22.875V29.5ZM29.625 18.25H18.375C17.7537 18.25 17.25 18.7537 17.25 19.375V26.125C17.25 26.7463 17.7537 27.25 18.375 27.25H29.625C30.2463 27.25 30.75 26.7463 30.75 26.125V19.375C30.75 18.7537 30.2463 18.25 29.625 18.25Z" fill="white"/>
</svg>
