<svg width="31" height="31" viewBox="0 0 31 31" fill="none" xmlns="http://www.w3.org/2000/svg">
<path d="M15.5 31C24.0604 31 31 24.0604 31 15.5C31 6.93958 24.0604 2.21069e-06 15.5 2.58487e-06C6.93959 2.95906e-06 -2.95906e-06 6.93959 -2.58488e-06 15.5L-1.90735e-06 31L15.5 31Z" fill="#FFD000"/>
<path fill-rule="evenodd" clip-rule="evenodd" d="M7 15.25C7 19.8063 10.6937 23.5 15.25 23.5C19.8063 23.5 23.5 19.8063 23.5 15.25C23.5 10.6937 19.8063 7 15.25 7C10.6937 7 7 10.6937 7 15.25ZM22 15.25C22 18.9779 18.9779 22 15.25 22C11.522 22 8.49997 18.9779 8.49997 15.25C8.49997 11.5221 11.522 8.5 15.25 8.5C18.9779 8.5 22 11.5221 22 15.25ZM13 12.25H17.5C17.9142 12.25 18.25 12.5858 18.25 13V17.5C18.25 17.9142 17.9142 18.25 17.5 18.25H13C12.5858 18.25 12.25 17.9142 12.25 17.5V13C12.25 12.5858 12.5858 12.25 13 12.25ZM13.75 16.75V13.75H16.75V16.75H13.75Z" fill="white"/>
<path d="M13.75 13.75V13.5H13.5V13.75H13.75ZM13.75 16.75H13.5V17H13.75V16.75ZM16.75 13.75H17V13.5H16.75V13.75ZM16.75 16.75V17H17V16.75H16.75ZM15.25 23.25C10.8317 23.25 7.25 19.6683 7.25 15.25H6.75C6.75 19.9444 10.5556 23.75 15.25 23.75V23.25ZM23.25 15.25C23.25 19.6683 19.6683 23.25 15.25 23.25V23.75C19.9444 23.75 23.75 19.9444 23.75 15.25H23.25ZM15.25 7.25C19.6683 7.25 23.25 10.8317 23.25 15.25H23.75C23.75 10.5556 19.9444 6.75 15.25 6.75V7.25ZM7.25 15.25C7.25 10.8317 10.8317 7.25 15.25 7.25V6.75C10.5556 6.75 6.75 10.5556 6.75 15.25H7.25ZM15.25 22.25C19.116 22.25 22.25 19.116 22.25 15.25H21.75C21.75 18.8398 18.8398 21.75 15.25 21.75V22.25ZM8.24997 15.25C8.24997 19.116 11.384 22.25 15.25 22.25V21.75C11.6601 21.75 8.74997 18.8398 8.74997 15.25H8.24997ZM15.25 8.25C11.384 8.25 8.24997 11.384 8.24997 15.25H8.74997C8.74997 11.6601 11.6601 8.75 15.25 8.75V8.25ZM22.25 15.25C22.25 11.384 19.116 8.25 15.25 8.25V8.75C18.8398 8.75 21.75 11.6601 21.75 15.25H22.25ZM17.5 12H13V12.5H17.5V12ZM18.5 13C18.5 12.4477 18.0523 12 17.5 12V12.5C17.7762 12.5 18 12.7239 18 13H18.5ZM18.5 17.5V13H18V17.5H18.5ZM17.5 18.5C18.0523 18.5 18.5 18.0523 18.5 17.5H18C18 17.7761 17.7762 18 17.5 18V18.5ZM13 18.5H17.5V18H13V18.5ZM12 17.5C12 18.0523 12.4477 18.5 13 18.5V18C12.7239 18 12.5 17.7761 12.5 17.5H12ZM12 13V17.5H12.5V13H12ZM13 12C12.4477 12 12 12.4477 12 13H12.5C12.5 12.7239 12.7239 12.5 13 12.5V12ZM13.5 13.75V16.75H14V13.75H13.5ZM16.75 13.5H13.75V14H16.75V13.5ZM17 16.75V13.75H16.5V16.75H17ZM13.75 17H16.75V16.5H13.75V17Z" fill="white"/>
</svg>
