<svg width="31" height="31" viewBox="0 0 31 31" fill="none" xmlns="http://www.w3.org/2000/svg">
<path d="M15.5 31C24.0604 31 31 24.0604 31 15.5C31 6.93958 24.0604 2.21069e-06 15.5 2.58487e-06C6.93959 2.95906e-06 -2.95906e-06 6.93959 -2.58488e-06 15.5L-1.90735e-06 31L15.5 31Z" fill="#007AFF"/>
<path d="M12.125 15.7083L14.5 18.0833L22.4167 10.1666" stroke="white" stroke-width="2" stroke-linecap="round" stroke-linejoin="round"/>
<path d="M21.625 16.5V22.0417C21.625 22.4616 21.4582 22.8643 21.1613 23.1613C20.8643 23.4582 20.4616 23.625 20.0417 23.625H8.95833C8.53841 23.625 8.13568 23.4582 7.83875 23.1613C7.54181 22.8643 7.375 22.4616 7.375 22.0417V10.9583C7.375 10.5384 7.54181 10.1357 7.83875 9.83875C8.13568 9.54181 8.53841 9.375 8.95833 9.375H17.6667" stroke="white" stroke-width="2" stroke-linecap="round" stroke-linejoin="round"/>
</svg>
