<svg width="31" height="31" viewBox="0 0 31 31" fill="none" xmlns="http://www.w3.org/2000/svg">
<path d="M15.5 31C24.0604 31 31 24.0604 31 15.5C31 6.93958 24.0604 2.21069e-06 15.5 2.58487e-06C6.93959 2.95906e-06 -2.95906e-06 6.93959 -2.58488e-06 15.5L-1.90735e-06 31L15.5 31Z" fill="#23282F"/>
<path fill-rule="evenodd" clip-rule="evenodd" d="M16.5556 7C16.7618 7 16.9597 7.08194 17.1055 7.22781L21.7722 11.8945C21.9181 12.0403 22 12.2382 22 12.4444V21.7778C22 23.0664 20.9553 24.1111 19.6667 24.1111H10.3333C9.04467 24.1111 8 23.0664 8 21.7778V9.33333C8 8.04467 9.04467 7 10.3333 7H16.5556ZM16.233 8.55553H10.333C9.9034 8.55553 9.55518 8.90375 9.55518 9.33331V21.7778C9.55518 22.2073 9.9034 22.5555 10.333 22.5555H19.6663C20.0958 22.5555 20.4441 22.2073 20.4441 21.7778V12.7666L16.233 8.55553ZM11.8893 15.5555H18.1115C18.541 15.5555 18.8893 15.9038 18.8893 16.3333C18.8893 16.7629 18.541 17.1111 18.1115 17.1111H11.8893C11.4597 17.1111 11.1115 16.7629 11.1115 16.3333C11.1115 15.9038 11.4597 15.5555 11.8893 15.5555ZM18.1115 18.6667H11.8893C11.4597 18.6667 11.1115 19.0149 11.1115 19.4444C11.1115 19.874 11.4597 20.2222 11.8893 20.2222H18.1115C18.541 20.2222 18.8893 19.874 18.8893 19.4444C18.8893 19.0149 18.541 18.6667 18.1115 18.6667ZM11.8893 12.4445H13.4448C13.8744 12.4445 14.2226 12.7927 14.2226 13.2222C14.2226 13.6518 13.8744 14 13.4448 14H11.8893C11.4597 14 11.1115 13.6518 11.1115 13.2222C11.1115 12.7927 11.4597 12.4445 11.8893 12.4445Z" fill="white"/>
<path d="M17.1055 7.22781L17.2823 7.05103V7.05103L17.1055 7.22781ZM21.7722 11.8945L21.5954 12.0712L21.7722 11.8945ZM16.233 8.55553L16.4098 8.37876L16.3366 8.30553H16.233V8.55553ZM20.4441 12.7666H20.6941V12.663L20.6208 12.5898L20.4441 12.7666ZM17.2823 7.05103C17.0896 6.85828 16.8281 6.75 16.5556 6.75V7.25C16.6955 7.25 16.8298 7.30561 16.9288 7.40458L17.2823 7.05103ZM21.949 11.7177L17.2823 7.05103L16.9288 7.40458L21.5954 12.0712L21.949 11.7177ZM22.25 12.4444C22.25 12.1719 22.1417 11.9104 21.949 11.7177L21.5954 12.0712C21.6944 12.1702 21.75 12.3045 21.75 12.4444H22.25ZM22.25 21.7778V12.4444H21.75V21.7778H22.25ZM19.6667 24.3611C21.0934 24.3611 22.25 23.2045 22.25 21.7778H21.75C21.75 22.9284 20.8173 23.8611 19.6667 23.8611V24.3611ZM10.3333 24.3611H19.6667V23.8611H10.3333V24.3611ZM7.75 21.7778C7.75 23.2045 8.9066 24.3611 10.3333 24.3611V23.8611C9.18274 23.8611 8.25 22.9284 8.25 21.7778H7.75ZM7.75 9.33333V21.7778H8.25V9.33333H7.75ZM10.3333 6.75C8.9066 6.75 7.75 7.9066 7.75 9.33333H8.25C8.25 8.18274 9.18274 7.25 10.3333 7.25V6.75ZM16.5556 6.75H10.3333V7.25H16.5556V6.75ZM10.333 8.80553H16.233V8.30553H10.333V8.80553ZM9.80518 9.33331C9.80518 9.04183 10.0415 8.80553 10.333 8.80553V8.30553C9.76533 8.30553 9.30518 8.76568 9.30518 9.33331H9.80518ZM9.80518 21.7778V9.33331H9.30518V21.7778H9.80518ZM10.333 22.3055C10.0415 22.3055 9.80518 22.0692 9.80518 21.7778H9.30518C9.30518 22.3454 9.76533 22.8055 10.333 22.8055V22.3055ZM19.6663 22.3055H10.333V22.8055H19.6663V22.3055ZM20.1941 21.7778C20.1941 22.0692 19.9578 22.3055 19.6663 22.3055V22.8055C20.2339 22.8055 20.6941 22.3454 20.6941 21.7778H20.1941ZM20.1941 12.7666V21.7778H20.6941V12.7666H20.1941ZM16.0562 8.73231L20.2673 12.9434L20.6208 12.5898L16.4098 8.37876L16.0562 8.73231ZM18.1115 15.3055H11.8893V15.8055H18.1115V15.3055ZM19.1393 16.3333C19.1393 15.7657 18.6791 15.3055 18.1115 15.3055V15.8055C18.403 15.8055 18.6393 16.0418 18.6393 16.3333H19.1393ZM18.1115 17.3611C18.6791 17.3611 19.1393 16.9009 19.1393 16.3333H18.6393C18.6393 16.6248 18.403 16.8611 18.1115 16.8611V17.3611ZM11.8893 17.3611H18.1115V16.8611H11.8893V17.3611ZM10.8615 16.3333C10.8615 16.9009 11.3216 17.3611 11.8893 17.3611V16.8611C11.5978 16.8611 11.3615 16.6248 11.3615 16.3333H10.8615ZM11.8893 15.3055C11.3216 15.3055 10.8615 15.7657 10.8615 16.3333H11.3615C11.3615 16.0418 11.5978 15.8055 11.8893 15.8055V15.3055ZM11.8893 18.9167H18.1115V18.4167H11.8893V18.9167ZM11.3615 19.4444C11.3615 19.153 11.5978 18.9167 11.8893 18.9167V18.4167C11.3216 18.4167 10.8615 18.8768 10.8615 19.4444H11.3615ZM11.8893 19.9722C11.5978 19.9722 11.3615 19.7359 11.3615 19.4444H10.8615C10.8615 20.0121 11.3216 20.4722 11.8893 20.4722V19.9722ZM18.1115 19.9722H11.8893V20.4722H18.1115V19.9722ZM18.6393 19.4444C18.6393 19.7359 18.403 19.9722 18.1115 19.9722V20.4722C18.6791 20.4722 19.1393 20.0121 19.1393 19.4444H18.6393ZM18.1115 18.9167C18.403 18.9167 18.6393 19.153 18.6393 19.4444H19.1393C19.1393 18.8768 18.6791 18.4167 18.1115 18.4167V18.9167ZM13.4448 12.1945H11.8893V12.6945H13.4448V12.1945ZM14.4726 13.2222C14.4726 12.6546 14.0125 12.1945 13.4448 12.1945V12.6945C13.7363 12.6945 13.9726 12.9308 13.9726 13.2222H14.4726ZM13.4448 14.25C14.0125 14.25 14.4726 13.7899 14.4726 13.2222H13.9726C13.9726 13.5137 13.7363 13.75 13.4448 13.75V14.25ZM11.8893 14.25H13.4448V13.75H11.8893V14.25ZM10.8615 13.2222C10.8615 13.7899 11.3216 14.25 11.8893 14.25V13.75C11.5978 13.75 11.3615 13.5137 11.3615 13.2222H10.8615ZM11.8893 12.1945C11.3216 12.1945 10.8615 12.6546 10.8615 13.2222H11.3615C11.3615 12.9308 11.5978 12.6945 11.8893 12.6945V12.1945Z" fill="white"/>
<path fill-rule="evenodd" clip-rule="evenodd" d="M16.5 8.08325C16.5 7.66904 16.1642 7.33325 15.75 7.33325C15.3358 7.33325 15 7.66904 15 8.08325V12.5833C15 12.9975 15.3358 13.3333 15.75 13.3333H20.25C20.6642 13.3333 21 12.9975 21 12.5833C21 12.169 20.6642 11.8333 20.25 11.8333H16.5V8.08325Z" fill="white" stroke="white" stroke-width="0.5"/>
</svg>
