<svg width="31" height="31" viewBox="0 0 31 31" fill="none" xmlns="http://www.w3.org/2000/svg">
<path d="M15.5 31C24.0604 31 31 24.0604 31 15.5C31 6.93958 24.0604 2.21069e-06 15.5 2.58487e-06C6.93959 2.95906e-06 -2.95906e-06 6.93959 -2.58488e-06 15.5L-1.90735e-06 31L15.5 31Z" fill="#FB812A"/>
<path d="M21.625 19.875C21.625 20.2949 21.4582 20.6977 21.1613 20.9946C20.8643 21.2915 20.4616 21.4583 20.0417 21.4583H10.5417L7.375 24.625V11.9583C7.375 11.5384 7.54181 11.1357 7.83875 10.8387C8.13568 10.5418 8.53841 10.375 8.95833 10.375H20.0417C20.4616 10.375 20.8643 10.5418 21.1613 10.8387C21.4582 11.1357 21.625 11.5384 21.625 11.9583V19.875Z" stroke="white" stroke-width="2" stroke-linecap="round" stroke-linejoin="round"/>
</svg>
