<svg width="31" height="31" viewBox="0 0 31 31" fill="none" xmlns="http://www.w3.org/2000/svg">
<path d="M15.5 31C24.0604 31 31 24.0604 31 15.5C31 6.93958 24.0604 2.21069e-06 15.5 2.58487e-06C6.93959 2.95906e-06 -2.95906e-06 6.93959 -2.58488e-06 15.5L-1.90735e-06 31L15.5 31Z" fill="#F8B8C4"/>
<path fill-rule="evenodd" clip-rule="evenodd" d="M7 20C7.55228 20 8 20.4477 8 21C8 21.5523 7.55228 22 7 22C6.44772 22 6 21.5523 6 21C6 20.4477 6.44772 20 7 20ZM21 20C21.5523 20 22 20.4477 22 21C22 21.5523 21.5523 22 21 22H11C10.4477 22 10 21.5523 10 21C10 20.4477 10.4477 20 11 20H21ZM7 15C7.55228 15 8 15.4477 8 16C8 16.5523 7.55228 17 7 17C6.44772 17 6 16.5523 6 16C6 15.4477 6.44772 15 7 15ZM21 15C21.5523 15 22 15.4477 22 16C22 16.5523 21.5523 17 21 17H11C10.4477 17 10 16.5523 10 16C10 15.4477 10.4477 15 11 15H21ZM7 10C7.55228 10 8 10.4477 8 11C8 11.5523 7.55228 12 7 12C6.44772 12 6 11.5523 6 11C6 10.4477 6.44772 10 7 10ZM21 10C21.5523 10 22 10.4477 22 11C22 11.5523 21.5523 12 21 12H11C10.4477 12 10 11.5523 10 11C10 10.4477 10.4477 10 11 10H21Z" fill="white"/>
</svg>
