<svg width="31" height="31" viewBox="0 0 31 31" fill="none" xmlns="http://www.w3.org/2000/svg">
<path d="M15.5 31C24.0604 31 31 24.0604 31 15.5C31 6.93958 24.0604 2.21069e-06 15.5 2.58487e-06C6.93959 2.95906e-06 -2.95906e-06 6.93959 -2.58488e-06 15.5L-1.90735e-06 31L15.5 31Z" fill="#2CAF2B"/>
<path fill-rule="evenodd" clip-rule="evenodd" d="M10 10.0011C10 9.22935 10.8372 8.74848 11.5039 9.13736L21.5039 15.1374C22.1654 15.5232 22.1654 16.479 21.5039 16.8649L11.5039 22.8649C10.8372 23.2538 10 22.7729 10 22.0011V10.0011ZM12 11.7422V20.2601L19.0154 16.0011L12 11.7422Z" fill="white"/>
</svg>
