<svg width="31" height="31" viewBox="0 0 31 31" fill="none" xmlns="http://www.w3.org/2000/svg">
<path d="M15.5 31C24.0604 31 31 24.0604 31 15.5C31 6.93958 24.0604 2.21069e-06 15.5 2.58487e-06C6.93959 2.95906e-06 -2.95906e-06 6.93959 -2.58488e-06 15.5L-1.90735e-06 31L15.5 31Z" fill="#23282F"/>
<path fill-rule="evenodd" clip-rule="evenodd" d="M13.2008 17.8C13.6978 17.8 14.1008 18.203 14.1008 18.7V22.3C14.1008 22.7971 13.6978 23.2 13.2008 23.2H8.70078C8.20372 23.2 7.80078 22.7971 7.80078 22.3V18.7C7.80078 18.203 8.20372 17.8 8.70078 17.8H13.2008ZM21.3008 13.3C21.7978 13.3 22.2008 13.703 22.2008 14.2V22.3C22.2008 22.7971 21.7978 23.2 21.3008 23.2H16.8008C16.3037 23.2 15.9008 22.7971 15.9008 22.3V14.2C15.9008 13.703 16.3037 13.3 16.8008 13.3H21.3008ZM13.2008 8.80005C13.6978 8.80005 14.1008 9.20299 14.1008 9.70005V15.1C14.1008 15.5971 13.6978 16 13.2008 16H8.70078C8.20372 16 7.80078 15.5971 7.80078 15.1V9.70005C7.80078 9.20299 8.20372 8.80005 8.70078 8.80005H13.2008ZM21.3008 8.80005C21.7978 8.80005 22.2008 9.20299 22.2008 9.70005V10.6C22.2008 11.0971 21.7978 11.5 21.3008 11.5H16.8008C16.3037 11.5 15.9008 11.0971 15.9008 10.6V9.70005C15.9008 9.20299 16.3037 8.80005 16.8008 8.80005H21.3008Z" fill="white"/>
</svg>
