<svg width="161" height="36" viewBox="0 0 161 36" fill="none" xmlns="http://www.w3.org/2000/svg">
<path d="M159.561 1.42941V34.5706H108.097V1.42941H159.561ZM161 0H106.658V36H161V0Z" fill="#23282F"/>
<path d="M132.657 7.83514L133.829 7.04103L135.002 7.83514L134.522 6.51161L135.694 5.66456H134.256L133.829 4.28809L133.403 5.66456H131.965L133.137 6.51161L132.657 7.83514Z" fill="#23282F"/>
<path d="M126.744 9.42352L127.916 8.57647L129.035 9.42352L128.609 8.09999L129.781 7.25294H128.342L127.916 5.87646L127.437 7.25294H125.998L127.17 8.09999L126.744 9.42352Z" fill="#23282F"/>
<path d="M123.546 10.2178L123.12 11.5942H121.682L122.854 12.3884L122.428 13.7648L123.546 12.9178L124.718 13.7648L124.239 12.3884L125.411 11.5942H123.973L123.546 10.2178Z" fill="#23282F"/>
<path d="M121.949 18.7942L123.121 19.6413L122.641 18.3178L123.813 17.4707H122.375L121.949 16.0942L121.522 17.4707H120.084L121.256 18.3178L120.83 19.6413L121.949 18.7942Z" fill="#23282F"/>
<path d="M123.973 23.3999L123.546 22.0234L123.12 23.3999H121.682L122.854 24.194L122.428 25.5705L123.546 24.7234L124.718 25.5705L124.239 24.194L125.411 23.3999H123.973Z" fill="#23282F"/>
<path d="M128.342 27.6883L127.916 26.3647L127.437 27.6883H125.998L127.17 28.5353L126.744 29.8589L127.916 29.0647L129.035 29.8589L128.609 28.5353L129.781 27.6883H128.342Z" fill="#23282F"/>
<path d="M134.256 29.2764L133.829 27.8999L133.403 29.2764H131.965L133.137 30.1234L132.657 31.447L133.829 30.5999L135.002 31.447L134.522 30.1234L135.694 29.2764H134.256Z" fill="#23282F"/>
<path d="M140.223 27.6883L139.744 26.3647L139.317 27.6883H137.879L139.051 28.5353L138.625 29.8589L139.744 29.0647L140.916 29.8589L140.489 28.5353L141.661 27.6883H140.223Z" fill="#23282F"/>
<path d="M144.537 23.3999L144.111 22.0234L143.685 23.3999H142.246L143.418 24.194L142.939 25.5705L144.111 24.7234L145.283 25.5705L144.803 24.194L145.975 23.3999H144.537Z" fill="#23282F"/>
<path d="M147.574 17.4707H146.135L145.709 16.0942L145.229 17.4707H143.791L144.963 18.2648L144.537 19.6413L145.709 18.7942L146.828 19.6413L146.402 18.2648L147.574 17.4707Z" fill="#23282F"/>
<path d="M142.939 13.7648L144.111 12.9178L145.283 13.7648L144.803 12.3884L145.975 11.5413H144.537L144.111 10.2178L143.685 11.5942L142.246 11.5413L143.418 12.3884L142.939 13.7648Z" fill="#23282F"/>
<path d="M139.797 5.87646L139.317 7.25294H137.879L139.051 8.09999L138.625 9.42352L139.797 8.57647L140.916 9.42352L140.489 8.09999L141.661 7.25294H140.223L139.797 5.87646Z" fill="#23282F"/>
<path d="M21.3652 23.4529V17.5234H25.0413V18.2117H22.2177V19.9587H24.7216V20.647H22.2177V22.7117H25.2544V23.3999H21.3652V23.4529Z" fill="#23282F"/>
<path d="M29.6214 23.2411C29.4615 23.294 29.1951 23.347 28.8755 23.3999C28.5558 23.4528 28.2362 23.4528 27.81 23.4528C27.4903 23.4528 27.1707 23.3999 26.9576 23.294C26.7445 23.1881 26.5313 23.0293 26.3715 22.8705C26.2117 22.7117 26.1051 22.447 26.0519 22.2352C25.9986 21.9705 25.9453 21.7058 25.9453 21.3881V18.8999H26.7445V21.2293C26.7445 21.7587 26.851 22.1823 27.0108 22.394C27.1707 22.6058 27.4903 22.7646 27.8632 22.7646C27.9698 22.7646 28.0231 22.7646 28.1296 22.7646C28.2362 22.7646 28.2895 22.7646 28.396 22.7646C28.5026 22.7646 28.5558 22.7646 28.6091 22.7646C28.6624 22.7646 28.7157 22.7646 28.7689 22.7117V18.9528H29.5681V23.2411H29.6214Z" fill="#23282F"/>
<path d="M32.6061 18.8999C32.6594 18.8999 32.7659 18.8999 32.8192 18.8999C32.9257 18.8999 32.979 18.8999 33.0856 18.9528C33.1921 18.9528 33.2454 19.0058 33.2987 19.0058C33.352 19.0058 33.4052 19.0587 33.4585 19.0587L33.2987 19.747C33.2454 19.747 33.1389 19.694 32.979 19.6411C32.8725 19.5881 32.7126 19.5881 32.4995 19.5881C32.3397 19.5881 32.1799 19.5881 32.0733 19.6411C31.9135 19.694 31.807 19.694 31.807 19.694V23.4528H31.0078V19.1646C31.2209 19.1117 31.434 19.0058 31.7004 18.9528C31.9135 18.8999 32.2332 18.8999 32.6061 18.8999Z" fill="#23282F"/>
<path d="M38.1996 21.1234C38.1996 21.4939 38.1463 21.8116 38.0398 22.0763C37.9332 22.341 37.7734 22.6057 37.6135 22.8175C37.4004 23.0292 37.1873 23.1881 36.921 23.2939C36.6546 23.3998 36.3882 23.4528 36.0685 23.4528C35.7489 23.4528 35.4825 23.3998 35.2161 23.2939C34.9497 23.1881 34.7366 23.0292 34.5235 22.8175C34.3104 22.6057 34.2039 22.341 34.0973 22.0763C33.9908 21.8116 33.9375 21.4939 33.9375 21.1234C33.9375 20.7528 33.9908 20.4351 34.0973 20.1704C34.2039 19.9057 34.3637 19.641 34.5235 19.4292C34.7366 19.2175 34.9497 19.0587 35.2161 18.9528C35.4825 18.8469 35.7489 18.7939 36.0685 18.7939C36.3882 18.7939 36.6546 18.8469 36.921 18.9528C37.1873 19.0587 37.4004 19.2175 37.6135 19.4292C37.8266 19.641 37.9332 19.9057 38.0398 20.1704C38.1463 20.4351 38.1996 20.7528 38.1996 21.1234ZM37.3472 21.1234C37.3472 20.5939 37.2406 20.2234 37.0275 19.9057C36.8144 19.5881 36.4947 19.4822 36.1218 19.4822C35.7489 19.4822 35.4292 19.641 35.2161 19.9057C35.003 20.2234 34.8965 20.5939 34.8965 21.1234C34.8965 21.6528 35.003 22.0234 35.2161 22.341C35.4292 22.6587 35.7489 22.7645 36.1218 22.7645C36.4947 22.7645 36.8144 22.6057 37.0275 22.341C37.2406 22.0234 37.3472 21.5998 37.3472 21.1234Z" fill="#23282F"/>
<path d="M43.208 21.229C43.208 21.5467 43.1548 21.8643 43.0482 22.182C42.9417 22.4467 42.8351 22.7114 42.6753 22.9232C42.5155 23.1349 42.3024 23.2937 42.036 23.3996C41.7696 23.5055 41.5032 23.5584 41.1836 23.5584C40.9172 23.5584 40.7041 23.5055 40.491 23.4526C40.2779 23.3996 40.118 23.2937 40.0648 23.2408V25.0408H39.2656V19.1114C39.4787 19.0584 39.6918 19.0055 39.9582 18.9526C40.2246 18.8996 40.5975 18.8467 40.9705 18.8467C41.2901 18.8467 41.6098 18.8996 41.8761 19.0055C42.1425 19.1114 42.4089 19.2702 42.5687 19.482C42.7818 19.6937 42.9417 19.9055 43.0482 20.2232C43.1548 20.5408 43.208 20.8584 43.208 21.229ZM42.4089 21.229C42.4089 20.6996 42.3024 20.329 42.036 20.0114C41.7696 19.7467 41.4499 19.5879 41.0237 19.5879C40.7574 19.5879 40.5975 19.5879 40.4377 19.5879C40.2779 19.5879 40.1713 19.6408 40.118 19.6408V22.4467C40.2246 22.5526 40.3311 22.6055 40.5442 22.6584C40.7041 22.7114 40.9172 22.7643 41.1303 22.7643C41.3434 22.7643 41.5565 22.7114 41.7163 22.6584C41.8761 22.5526 42.036 22.4467 42.1425 22.3408C42.2491 22.182 42.3024 22.0232 42.3556 21.8114C42.3556 21.6526 42.4089 21.4408 42.4089 21.229Z" fill="#23282F"/>
<path d="M44.0605 21.1236C44.0605 20.753 44.1138 20.3824 44.2204 20.0647C44.3269 19.7471 44.4868 19.5353 44.6999 19.3236C44.913 19.1118 45.1261 19.0059 45.3392 18.9C45.6056 18.7942 45.8187 18.7412 46.085 18.7412C46.6711 18.7412 47.1506 18.953 47.4702 19.3236C47.7899 19.6942 47.9497 20.2765 47.9497 21.0177C47.9497 21.0706 47.9497 21.0706 47.9497 21.1765C47.9497 21.2824 47.9497 21.2824 47.9497 21.3353H44.8597C44.913 21.8118 45.0195 22.1294 45.2859 22.3942C45.499 22.6589 45.8719 22.7647 46.4047 22.7647C46.6711 22.7647 46.9375 22.7647 47.0973 22.7118C47.3104 22.6589 47.4169 22.6059 47.5235 22.553L47.63 23.2412C47.5235 23.2942 47.3637 23.3471 47.0973 23.4C46.8309 23.453 46.5645 23.5059 46.2449 23.5059C45.8719 23.5059 45.499 23.453 45.2326 23.3471C44.9662 23.2412 44.6999 23.0824 44.54 22.8706C44.3802 22.6589 44.2204 22.3942 44.1138 22.1294C44.1138 21.7589 44.0605 21.4412 44.0605 21.1236ZM47.1506 20.7C47.1506 20.3294 47.044 20.0647 46.8842 19.8C46.6711 19.5883 46.458 19.4294 46.1383 19.4294C45.9785 19.4294 45.7654 19.4824 45.6588 19.5353C45.499 19.5883 45.3924 19.6942 45.2859 19.8C45.1793 19.9059 45.1261 20.0647 45.0728 20.1706C45.0195 20.3294 44.9662 20.4883 44.9662 20.6471H47.1506V20.7Z" fill="#23282F"/>
<path d="M48.3746 25.0408C48.3213 25.0408 48.2147 25.0408 48.1082 25.0408C48.0016 25.0408 47.8951 24.9878 47.8418 24.9878L47.9483 24.3525C48.0016 24.3525 48.0549 24.4055 48.1615 24.4055C48.2147 24.4055 48.3213 24.4055 48.3746 24.4055C48.6409 24.4055 48.854 24.2996 48.9606 24.1408C49.0671 23.982 49.1204 23.7173 49.1204 23.3996V19.0055H49.9196V23.3996C49.9196 23.982 49.813 24.4055 49.5466 24.6702C49.227 24.882 48.854 25.0408 48.3746 25.0408ZM49.4934 18.1584C49.3335 18.1584 49.227 18.1055 49.1204 17.9996C49.0139 17.8937 48.9606 17.7878 48.9606 17.629C48.9606 17.4702 49.0139 17.3643 49.1204 17.2584C49.227 17.1526 49.3335 17.0996 49.4934 17.0996C49.6532 17.0996 49.7597 17.1526 49.8663 17.2584C49.9728 17.3643 50.0261 17.4702 50.0261 17.629C50.0261 17.7878 49.9728 17.8937 49.8663 17.9996C49.7597 18.1055 49.6532 18.1584 49.4934 18.1584Z" fill="#23282F"/>
<path d="M52.2641 22.7645C52.5837 22.7645 52.8501 22.7115 53.0099 22.6586C53.1698 22.5527 53.2231 22.4468 53.2231 22.235C53.2231 22.0233 53.1698 21.8645 53.0099 21.7586C52.8501 21.6527 52.5837 21.4939 52.2641 21.388C52.1043 21.335 51.9444 21.2292 51.7846 21.1762C51.6248 21.1233 51.4649 21.0174 51.3584 20.9115C51.2518 20.8056 51.1453 20.6998 51.092 20.5409C51.0387 20.3821 50.9855 20.2233 50.9855 20.0115C50.9855 19.6409 51.1453 19.3233 51.4117 19.0586C51.7313 18.8468 52.1043 18.688 52.637 18.688C52.7436 18.688 52.9034 18.688 53.0099 18.688C53.1165 18.688 53.2763 18.7409 53.3829 18.7409C53.4894 18.7409 53.596 18.7939 53.6493 18.7939C53.7558 18.7939 53.8091 18.8468 53.8624 18.8468L53.7025 19.535C53.596 19.4821 53.4894 19.4292 53.2763 19.3762C53.1165 19.3233 52.8501 19.3233 52.637 19.3233C52.4239 19.3233 52.2108 19.3762 52.051 19.4821C51.8911 19.588 51.7846 19.6939 51.7846 19.9056C51.7846 20.0115 51.7846 20.0645 51.8379 20.1703C51.8912 20.2233 51.9444 20.3292 51.9977 20.3821C52.051 20.435 52.1575 20.488 52.2641 20.5409C52.3706 20.5939 52.5305 20.6468 52.6903 20.6998C52.9034 20.8056 53.1165 20.8586 53.2763 20.9115C53.4362 20.9645 53.596 21.0703 53.7025 21.1762C53.8091 21.2821 53.9156 21.388 53.9689 21.5468C54.0222 21.7056 54.0755 21.8645 54.0755 22.0762C54.0755 22.4998 53.9156 22.8174 53.596 23.0292C53.2763 23.2409 52.8501 23.3468 52.2641 23.3468C51.8912 23.3468 51.5715 23.2939 51.3584 23.2409C51.1453 23.188 50.9855 23.135 50.8789 23.0821L51.0387 22.3939C51.1453 22.4468 51.2518 22.4998 51.4649 22.5527C51.678 22.7115 51.9444 22.7645 52.2641 22.7645Z" fill="#23282F"/>
<path d="M56.6867 20.9646C56.8465 21.0705 57.0596 21.2822 57.2195 21.4411C57.4326 21.6528 57.5924 21.8646 57.8055 22.0763C58.0186 22.2881 58.1784 22.5528 58.3383 22.7646C58.4981 22.9763 58.6579 23.1881 58.7645 23.3999H57.8055C57.6989 23.1881 57.5391 22.9763 57.3793 22.7646C57.2195 22.5528 57.0596 22.3411 56.8998 22.1822C56.74 21.9705 56.5269 21.8116 56.3671 21.6528C56.2072 21.494 55.9941 21.3352 55.8343 21.2293V23.3469H55.0352V16.941L55.8343 16.7822V20.8587C55.9941 20.6999 56.1007 20.594 56.3138 20.3822C56.4736 20.2234 56.6334 20.0646 56.7933 19.8528C56.9531 19.694 57.1129 19.5352 57.2727 19.3763C57.4326 19.2175 57.5391 19.0587 57.6457 18.9528H58.6046C58.4981 19.1116 58.3383 19.2705 58.1784 19.4293C58.0186 19.5881 57.8588 19.7999 57.699 19.9587C57.5391 20.1175 57.3793 20.3293 57.2195 20.4881C56.9531 20.6469 56.7933 20.8587 56.6867 20.9646Z" fill="#23282F"/>
<path d="M59.8824 18.1584C59.7225 18.1584 59.616 18.1055 59.5094 17.9996C59.4029 17.8937 59.3496 17.7878 59.3496 17.629C59.3496 17.4702 59.4029 17.3643 59.5094 17.2584C59.616 17.1526 59.7225 17.0996 59.8824 17.0996C60.0422 17.0996 60.1487 17.1526 60.2553 17.2584C60.3618 17.3643 60.4151 17.4702 60.4151 17.629C60.4151 17.7878 60.3618 17.8937 60.2553 17.9996C60.1487 18.1055 60.0422 18.1584 59.8824 18.1584ZM60.3086 23.4526H59.5094V19.0055H60.3086V23.4526Z" fill="#23282F"/>
<path d="M63.666 23.4529V17.5234H67.2888V18.2117H64.4652V20.0117H66.9159V20.6999H64.4652V23.4529H63.666Z" fill="#23282F"/>
<path d="M71.551 23.2411C71.3912 23.294 71.1248 23.347 70.8052 23.3999C70.4855 23.4528 70.1659 23.4528 69.7397 23.4528C69.42 23.4528 69.1004 23.3999 68.8872 23.294C68.6741 23.1881 68.461 23.0293 68.3012 22.8705C68.1414 22.7117 68.0348 22.447 67.9816 22.2352C67.9283 21.9705 67.875 21.7058 67.875 21.3881V18.8999H68.6741V21.2293C68.6741 21.7587 68.7807 22.1823 68.9405 22.394C69.1003 22.6058 69.42 22.7646 69.7929 22.7646C69.8995 22.7646 69.9528 22.7646 70.0593 22.7646C70.1659 22.7646 70.2191 22.7646 70.3257 22.7646C70.4322 22.7646 70.4855 22.7646 70.5388 22.7646C70.5921 22.7646 70.6454 22.7646 70.6986 22.7117V18.9528H71.4978V23.2411H71.551Z" fill="#23282F"/>
<path d="M72.8828 19.1117C73.0426 19.0587 73.309 19.0058 73.6287 18.9528C73.9483 18.8999 74.268 18.8999 74.6942 18.8999C75.0671 18.8999 75.3335 18.9528 75.5999 19.0587C75.813 19.1646 76.0261 19.3234 76.1859 19.4823C76.3457 19.6411 76.4523 19.8528 76.5056 20.1175C76.5588 20.3823 76.6121 20.647 76.6121 20.9646V23.4528H75.813V21.1234C75.813 20.8587 75.813 20.594 75.7597 20.4352C75.7064 20.2234 75.6532 20.0646 75.5999 19.9587C75.4933 19.8528 75.3868 19.747 75.2802 19.694C75.1204 19.6411 74.9606 19.5881 74.7475 19.5881C74.6409 19.5881 74.5876 19.5881 74.4811 19.5881C74.3745 19.5881 74.3213 19.5881 74.2147 19.5881C74.1082 19.5881 74.0549 19.5881 74.0016 19.6411C73.9483 19.6411 73.8951 19.6411 73.8418 19.6411V23.3999H73.0426V19.1117H72.8828Z" fill="#23282F"/>
<path d="M80.7136 16.8351L81.5127 16.6763V23.188C81.3529 23.241 81.0865 23.2939 80.8201 23.3469C80.5538 23.3998 80.1808 23.3998 79.8079 23.3998C79.4882 23.3998 79.1686 23.3469 78.9022 23.241C78.6358 23.1351 78.3695 22.9763 78.2096 22.7645C77.9965 22.5527 77.8367 22.341 77.7301 22.0233C77.6236 21.7586 77.5703 21.388 77.5703 21.0704C77.5703 20.7527 77.6236 20.4351 77.7301 20.1174C77.8367 19.7998 77.9432 19.588 78.1031 19.3763C78.2629 19.1645 78.476 19.0057 78.7424 18.8998C79.0088 18.7939 79.2751 18.741 79.5948 18.741C79.8612 18.741 80.0743 18.7939 80.2874 18.8469C80.5005 18.8998 80.6603 19.0057 80.7136 19.0586V16.8351ZM80.7136 19.7998C80.607 19.6939 80.5005 19.641 80.2874 19.588C80.1276 19.5351 79.9145 19.4822 79.7014 19.4822C79.4882 19.4822 79.2751 19.5351 79.1153 19.588C78.9555 19.6939 78.7957 19.7998 78.6891 19.9057C78.5826 20.0645 78.5293 20.2233 78.476 20.4351C78.4227 20.6469 78.4227 20.8586 78.4227 21.0704C78.4227 21.5998 78.5293 21.9704 78.7957 22.288C79.062 22.5527 79.3817 22.7116 79.8079 22.7116C80.021 22.7116 80.2341 22.7116 80.3407 22.6586C80.5005 22.6586 80.607 22.6057 80.6603 22.6057V19.7998H80.7136Z" fill="#23282F"/>
<path d="M86.4143 23.2411C86.2545 23.294 85.9881 23.347 85.6685 23.3999C85.3488 23.4528 85.0291 23.4528 84.6029 23.4528C84.2833 23.4528 83.9636 23.3999 83.7505 23.294C83.5374 23.1881 83.3243 23.0293 83.1645 22.8705C83.0047 22.7117 82.8981 22.447 82.8448 22.2352C82.7916 21.9705 82.7383 21.7058 82.7383 21.3881V18.8999H83.5374V21.2293C83.5374 21.7587 83.644 22.1823 83.8038 22.394C83.9636 22.6058 84.2833 22.7646 84.6562 22.7646C84.7628 22.7646 84.816 22.7646 84.9226 22.7646C85.0291 22.7646 85.0824 22.7646 85.189 22.7646C85.2955 22.7646 85.3488 22.7646 85.4021 22.7646C85.4554 22.7646 85.5086 22.7646 85.5619 22.7117V18.9528H86.3611V23.2411H86.4143Z" fill="#23282F"/>
<path d="M88.811 22.7645C89.1306 22.7645 89.397 22.7115 89.5568 22.6586C89.7166 22.5527 89.7699 22.4468 89.7699 22.235C89.7699 22.0233 89.7166 21.8645 89.5568 21.7586C89.397 21.6527 89.1306 21.4939 88.811 21.388C88.6511 21.335 88.4913 21.2292 88.3315 21.1762C88.1716 21.1233 88.0118 21.0174 87.9053 20.9115C87.7987 20.8056 87.6922 20.6998 87.6389 20.5409C87.5856 20.3821 87.5323 20.2233 87.5323 20.0115C87.5323 19.6409 87.6922 19.3233 87.9585 19.0586C88.2782 18.8468 88.6511 18.688 89.1839 18.688C89.2904 18.688 89.4503 18.688 89.5568 18.688C89.6634 18.688 89.8232 18.7409 89.9297 18.7409C90.0363 18.7409 90.1429 18.7939 90.1961 18.7939C90.3027 18.7939 90.356 18.8468 90.4092 18.8468L90.2494 19.535C90.1428 19.4821 90.0363 19.4292 89.8232 19.3762C89.6101 19.3233 89.397 19.3233 89.1839 19.3233C88.9708 19.3233 88.7577 19.3762 88.5979 19.4821C88.438 19.588 88.3315 19.6939 88.3315 19.9056C88.3315 20.0115 88.3315 20.0645 88.3847 20.1703C88.438 20.2233 88.4913 20.3292 88.5446 20.3821C88.5978 20.435 88.7044 20.488 88.811 20.5409C88.9175 20.5939 89.0773 20.6468 89.2372 20.6998C89.4503 20.8056 89.6634 20.8586 89.8232 20.9115C89.983 20.9645 90.1428 21.0703 90.2494 21.1762C90.356 21.2821 90.4625 21.388 90.5158 21.5468C90.5691 21.7056 90.6223 21.8645 90.6223 22.0762C90.6223 22.4998 90.4625 22.8174 90.1428 23.0292C89.8232 23.2409 89.397 23.3468 88.811 23.3468C88.438 23.3468 88.1184 23.2939 87.9053 23.2409C87.6922 23.188 87.5323 23.135 87.4258 23.0821L87.5856 22.3939C87.6922 22.4468 87.7987 22.4998 88.0118 22.5527C88.1716 22.7115 88.438 22.7645 88.811 22.7645Z" fill="#23282F"/>
<path d="M94.5126 19.5879C94.4061 19.6938 94.2462 19.9056 94.0331 20.1703C93.82 20.435 93.6069 20.6997 93.3938 20.9644C93.1807 21.282 92.9143 21.5468 92.7012 21.8644C92.4881 22.182 92.275 22.4997 92.1152 22.7644H94.5659V23.4526H91.1562V22.9232C91.3161 22.6585 91.4759 22.3938 91.689 22.0762C91.9021 21.7585 92.1152 21.4938 92.3283 21.1762C92.5414 20.8585 92.7545 20.5938 92.9676 20.3291C93.1807 20.0644 93.3406 19.8526 93.5004 19.6409H91.2628V18.9526H94.5126V19.5879Z" fill="#23282F"/>
<path d="M9.96338 31.4468C10.0699 31.5526 10.1765 31.7115 10.3363 31.9232C10.4961 32.135 10.6027 32.2938 10.7625 32.5585C10.9223 32.7703 11.0822 33.035 11.1887 33.2468C11.3486 33.5115 11.4551 33.7232 11.5617 33.935H10.656C10.5494 33.7232 10.3896 33.5115 10.283 33.2997C10.1232 33.0879 10.0167 32.8762 9.85683 32.6644C9.697 32.4526 9.59045 32.2938 9.43062 32.082C9.27079 31.9232 9.16424 31.7644 9.05769 31.6056C9.00441 31.6056 8.89786 31.6056 8.84459 31.6056C8.79131 31.6056 8.68476 31.6056 8.63148 31.6056H7.88562V33.935H7.0332V28.1115C7.24631 28.0585 7.51269 28.0056 7.83234 28.0056C8.09872 28.0056 8.3651 27.9526 8.63148 27.9526C9.4839 27.9526 10.1232 28.1115 10.5494 28.4291C10.9756 28.7468 11.1887 29.2232 11.1887 29.8585C11.1887 30.2291 11.0822 30.5997 10.8691 30.8644C10.7092 31.1291 10.3896 31.3409 9.96338 31.4468ZM8.73803 28.6938C8.3651 28.6938 8.09872 28.6938 7.93889 28.6938V30.9173H8.52493C8.79131 30.9173 9.05769 30.9173 9.32407 30.8644C9.53717 30.8115 9.75028 30.7585 9.91011 30.7056C10.0699 30.5997 10.1765 30.4938 10.283 30.3879C10.3896 30.2291 10.3896 30.0703 10.3896 29.8056C10.3896 29.5938 10.3363 29.382 10.283 29.2232C10.1765 29.0644 10.0699 28.9585 9.91011 28.8526C9.75028 28.7468 9.59045 28.6938 9.37735 28.6938C9.16424 28.6938 8.95114 28.6938 8.73803 28.6938Z" fill="#23282F"/>
<path d="M16.3558 31.6058C16.3558 31.9764 16.3025 32.294 16.196 32.5587C16.0894 32.8234 15.9296 33.0881 15.7698 33.2999C15.5567 33.5117 15.3436 33.6705 15.0772 33.7764C14.8108 33.8823 14.5444 33.9352 14.2248 33.9352C13.9051 33.9352 13.6388 33.8823 13.3724 33.7764C13.106 33.6705 12.8929 33.5117 12.6798 33.2999C12.4667 33.0881 12.3601 32.8234 12.2536 32.5587C12.147 32.294 12.0938 31.9764 12.0938 31.6058C12.0938 31.2352 12.147 30.9175 12.2536 30.6528C12.3601 30.3881 12.52 30.1234 12.6798 29.9117C12.8929 29.6999 13.106 29.5411 13.3724 29.4352C13.6388 29.3293 13.9051 29.2764 14.2248 29.2764C14.5444 29.2764 14.8108 29.3293 15.0772 29.4352C15.3436 29.5411 15.5567 29.6999 15.7698 29.9117C15.9829 30.1234 16.0894 30.3881 16.196 30.6528C16.3025 30.9705 16.3558 31.2881 16.3558 31.6058ZM15.5034 31.6058C15.5034 31.0764 15.3969 30.7058 15.1838 30.3881C14.9707 30.0705 14.651 29.9646 14.2781 29.9646C13.9051 29.9646 13.5855 30.1234 13.3724 30.3881C13.1593 30.7058 13.0527 31.0764 13.0527 31.6058C13.0527 32.1352 13.1593 32.5058 13.3724 32.8234C13.5855 33.1411 13.9051 33.247 14.2781 33.247C14.651 33.247 14.9707 33.0881 15.1838 32.8234C15.3969 32.5058 15.5034 32.1352 15.5034 31.6058Z" fill="#23282F"/>
<path d="M20.2451 30.0704C20.1385 30.1762 19.9787 30.388 19.7656 30.6527C19.5525 30.9174 19.3394 31.1821 19.1263 31.4468C18.9132 31.7645 18.6468 32.0292 18.4337 32.3468C18.2206 32.6645 18.0075 32.9821 17.8476 33.2468H20.2983V33.9351H16.8887V33.4056C17.0485 33.1409 17.2083 32.8762 17.4214 32.5586C17.6345 32.2409 17.8476 31.9762 18.0607 31.6586C18.2738 31.3409 18.4869 31.0762 18.7001 30.8115C18.9132 30.5468 19.073 30.3351 19.2328 30.1233H16.9952V29.4351H20.2451V30.0704Z" fill="#23282F"/>
<path d="M24.9334 33.9353C24.7736 33.5118 24.6138 33.0353 24.4006 32.5059C24.2408 31.9765 24.0277 31.4471 23.9212 30.8648C23.7613 31.4471 23.6015 31.9765 23.4417 32.5059C23.2819 33.0353 23.0688 33.5118 22.9089 33.9353H22.2163C21.95 33.353 21.6836 32.6647 21.4172 31.9236C21.1508 31.1824 20.9377 30.3353 20.7246 29.4883H21.577C21.6303 29.753 21.6836 30.0706 21.7901 30.3883C21.8967 30.7059 21.95 31.0236 22.0565 31.3412C22.1631 31.6589 22.2163 31.9765 22.3229 32.2412C22.4294 32.5589 22.536 32.7706 22.5893 32.9824C22.6958 32.7177 22.8024 32.453 22.8556 32.1353C22.9622 31.8177 23.0155 31.553 23.122 31.2353C23.2286 30.9177 23.2819 30.653 23.3884 30.3353C23.4417 30.0177 23.5482 29.753 23.6015 29.4883H24.2408C24.2941 29.753 24.3474 30.0177 24.4539 30.3353C24.5072 30.653 24.6138 30.9177 24.7203 31.2353C24.8269 31.553 24.8801 31.8706 24.9867 32.1353C25.0932 32.453 25.1998 32.7177 25.2531 32.9824C25.3596 32.7706 25.4129 32.5059 25.5194 32.2412C25.626 31.9236 25.7325 31.6589 25.7858 31.3412C25.8924 31.0236 25.9457 30.7059 26.0522 30.3883C26.1588 30.0706 26.212 29.8059 26.2653 29.4883H27.171C26.9579 30.3883 26.6915 31.1824 26.4784 31.9236C26.212 32.6647 25.9457 33.353 25.6793 33.9353H24.9334Z" fill="#23282F"/>
<path d="M31.807 31.6058C31.807 31.9764 31.7537 32.294 31.6472 32.5587C31.5406 32.8234 31.3808 33.0881 31.221 33.2999C31.0079 33.5117 30.7948 33.6705 30.5284 33.7764C30.262 33.8823 29.9956 33.9352 29.676 33.9352C29.3563 33.9352 29.0899 33.8823 28.8235 33.7764C28.5572 33.6705 28.3441 33.5117 28.131 33.2999C27.9179 33.0881 27.8113 32.8234 27.7047 32.5587C27.5982 32.294 27.5449 31.9764 27.5449 31.6058C27.5449 31.2352 27.5982 30.9175 27.7047 30.6528C27.8113 30.3881 27.9711 30.1234 28.131 29.9117C28.3441 29.6999 28.5572 29.5411 28.8235 29.4352C29.0899 29.3293 29.3563 29.2764 29.676 29.2764C29.9956 29.2764 30.262 29.3293 30.5284 29.4352C30.7948 29.5411 31.0079 29.6999 31.221 29.9117C31.4341 30.1234 31.5406 30.3881 31.6472 30.6528C31.7537 30.9705 31.807 31.2881 31.807 31.6058ZM30.9546 31.6058C30.9546 31.0764 30.848 30.7058 30.6349 30.3881C30.4218 30.0705 30.1022 29.9646 29.7292 29.9646C29.3563 29.9646 29.0366 30.1234 28.8235 30.3881C28.6104 30.7058 28.5039 31.0764 28.5039 31.6058C28.5039 32.1352 28.6104 32.5058 28.8235 32.8234C29.0366 33.1411 29.3563 33.247 29.7292 33.247C30.1022 33.247 30.4218 33.0881 30.6349 32.8234C30.848 32.5058 30.9546 32.1352 30.9546 31.6058Z" fill="#23282F"/>
<path d="M32.1792 35.5764C32.126 35.5764 32.0194 35.5764 31.9129 35.5764C31.8063 35.5764 31.6998 35.5235 31.6465 35.5235L31.753 34.8882C31.8063 34.8882 31.8596 34.9411 31.9661 34.9411C32.0194 34.9411 32.126 34.9411 32.1792 34.9411C32.4456 34.9411 32.6587 34.8353 32.7653 34.6764C32.8718 34.5176 32.9251 34.2529 32.9251 33.9353V29.5411H33.7242V33.8823C33.7242 34.4647 33.6177 34.8882 33.3513 35.1529C33.0317 35.4176 32.6587 35.5764 32.1792 35.5764ZM33.298 28.6941C33.1382 28.6941 33.0317 28.6411 32.9251 28.5353C32.8186 28.4294 32.7653 28.3235 32.7653 28.1647C32.7653 28.0058 32.8186 27.9 32.9251 27.7941C33.0317 27.6882 33.1382 27.6353 33.298 27.6353C33.4579 27.6353 33.5644 27.6882 33.671 27.7941C33.7775 27.9 33.8308 28.0058 33.8308 28.1647C33.8308 28.3235 33.7775 28.4294 33.671 28.5353C33.5644 28.6411 33.4579 28.6941 33.298 28.6941Z" fill="#23282F"/>
<path d="M38.6253 33.7235C38.4654 33.7764 38.199 33.8294 37.8794 33.8823C37.5597 33.9353 37.2401 33.9353 36.8139 33.9353C36.4942 33.9353 36.1746 33.8823 35.9615 33.7764C35.7484 33.6706 35.5353 33.5117 35.3754 33.3529C35.2156 33.1941 35.109 32.9294 35.0558 32.7176C35.0025 32.4529 34.9492 32.1882 34.9492 31.8706V29.3823H35.7484V31.7117C35.7484 32.2411 35.8549 32.6647 36.0147 32.8764C36.1746 33.0882 36.4942 33.247 36.8671 33.247C36.9737 33.247 37.027 33.247 37.1335 33.247C37.2401 33.247 37.2934 33.247 37.3999 33.247C37.5065 33.247 37.5597 33.247 37.613 33.247C37.6663 33.247 37.7196 33.247 37.7728 33.1941V29.4353H38.572V33.7235H38.6253Z" fill="#23282F"/>
<path d="M44.8599 31.4468C44.9664 31.5526 45.073 31.7115 45.2328 31.9232C45.3926 32.135 45.4992 32.2938 45.659 32.5585C45.8188 32.7703 45.9787 33.035 46.0852 33.2468C46.245 33.5115 46.3516 33.7232 46.4581 33.935H45.5525C45.4459 33.7232 45.2861 33.5115 45.1795 33.2997C45.0197 33.0879 44.9131 32.8762 44.7533 32.6644C44.5935 32.4526 44.4869 32.2938 44.3271 32.082C44.1673 31.9232 44.0607 31.7644 43.9542 31.6056C43.9009 31.6056 43.7943 31.6056 43.7411 31.6056C43.6878 31.6056 43.5812 31.6056 43.528 31.6056H42.7821V33.935H41.9297V28.1115C42.1428 28.0585 42.4092 28.0056 42.7288 28.0056C42.9952 28.0056 43.2616 27.9526 43.528 27.9526C44.3804 27.9526 45.0197 28.1115 45.4459 28.4291C45.8721 28.7468 46.0852 29.2232 46.0852 29.8585C46.0852 30.2291 45.9787 30.5997 45.7656 30.8644C45.6057 31.1291 45.2861 31.3409 44.8599 31.4468ZM43.6345 28.6938C43.2616 28.6938 42.9952 28.6938 42.8354 28.6938V30.9173H43.4214C43.6878 30.9173 43.9542 30.9173 44.2206 30.8644C44.4337 30.8115 44.6468 30.7585 44.8066 30.7056C44.9664 30.5997 45.073 30.4938 45.1795 30.3879C45.2861 30.2291 45.2861 30.0703 45.2861 29.8056C45.2861 29.5938 45.2328 29.382 45.1795 29.2232C45.073 29.0644 44.9664 28.9585 44.8066 28.8526C44.6468 28.7468 44.4869 28.6938 44.2738 28.6938C44.0607 28.6938 43.8476 28.6938 43.6345 28.6938Z" fill="#23282F"/>
<path d="M47.043 31.6055C47.043 31.2349 47.0962 30.8643 47.2028 30.5467C47.3093 30.229 47.4692 30.0173 47.6823 29.8055C47.8954 29.5937 48.1085 29.4878 48.3216 29.382C48.588 29.2761 48.8011 29.2231 49.0675 29.2231C49.6535 29.2231 50.133 29.4349 50.4526 29.8055C50.7723 30.1761 50.9321 30.7584 50.9321 31.4996C50.9321 31.5526 50.9321 31.5526 50.9321 31.6584C50.9321 31.7114 50.9321 31.7643 50.9321 31.8173H47.8421C47.8954 32.2937 48.0019 32.6114 48.2683 32.8761C48.4814 33.1408 48.8543 33.2467 49.3871 33.2467C49.6535 33.2467 49.9199 33.2467 50.0797 33.1937C50.2928 33.1408 50.3994 33.0878 50.5059 33.0349L50.6125 33.7231C50.5059 33.7761 50.3461 33.829 50.0797 33.882C49.8133 33.9349 49.5469 33.9878 49.2273 33.9878C48.8543 33.9878 48.4814 33.9349 48.215 33.829C47.9487 33.7231 47.6823 33.5643 47.5224 33.3526C47.3626 33.1408 47.2028 32.8761 47.0962 32.6114C47.0962 32.2937 47.043 31.9761 47.043 31.6055ZM50.133 31.182C50.133 30.8114 50.0264 30.5467 49.8666 30.282C49.6535 30.0702 49.4404 29.9114 49.1207 29.9114C48.9609 29.9114 48.7478 29.9643 48.6412 30.0173C48.4814 30.0702 48.3749 30.1761 48.2683 30.282C48.1618 30.3878 48.1085 30.5467 48.0552 30.6526C48.0019 30.8114 47.9487 30.9702 47.9487 31.129H50.133V31.182Z" fill="#23282F"/>
<path d="M54.8752 33.5117C54.8219 33.5647 54.6621 33.6176 54.449 33.6706C54.2359 33.7235 54.0227 33.7764 53.7564 33.7764C53.49 33.7764 53.2236 33.7235 53.0105 33.6706C52.7974 33.5647 52.5843 33.4588 52.3712 33.247C52.2114 33.0882 52.0515 32.8235 51.945 32.5588C51.8384 32.2941 51.7852 31.9764 51.7852 31.6059C51.7852 31.2882 51.8384 30.9706 51.945 30.7059C52.0515 30.4411 52.2114 30.1764 52.3712 30.0176C52.5843 29.8059 52.7974 29.647 53.0638 29.5411C53.3302 29.4353 53.6498 29.3823 53.9695 29.3823C54.3424 29.3823 54.6621 29.4353 54.9284 29.4882C55.1948 29.5411 55.4612 29.5941 55.621 29.647V33.6176C55.621 34.3059 55.4612 34.7823 55.0883 35.1C54.7153 35.4176 54.1826 35.5764 53.49 35.5764C53.2236 35.5764 52.9572 35.5764 52.6909 35.5235C52.4245 35.4706 52.2114 35.4176 52.0515 35.3647L52.2114 34.6764C52.3712 34.7294 52.5843 34.7823 52.7974 34.8353C53.0105 34.8882 53.2769 34.8882 53.5433 34.8882C54.0227 34.8882 54.3424 34.7823 54.5555 34.6235C54.7686 34.4117 54.8752 34.147 54.8752 33.7235V33.5117ZM54.8752 30.1764C54.7686 30.1764 54.6621 30.1235 54.5555 30.1235C54.3957 30.1235 54.2359 30.0706 54.0227 30.0706C53.5965 30.0706 53.2769 30.2294 53.0105 30.4941C52.7974 30.7588 52.6376 31.1294 52.6376 31.6059C52.6376 31.8706 52.6908 32.0823 52.7441 32.2411C52.7974 32.4 52.904 32.5588 53.0105 32.7176C53.1171 32.8235 53.2769 32.9294 53.3834 32.9823C53.5433 33.0353 53.7031 33.0882 53.8629 33.0882C54.076 33.0882 54.2891 33.0353 54.449 32.9823C54.6088 32.9294 54.7686 32.8764 54.8752 32.7706V30.1764Z" fill="#23282F"/>
<path d="M57.4332 28.6941C57.2733 28.6941 57.1668 28.6411 57.0602 28.5353C56.9537 28.4294 56.9004 28.3235 56.9004 28.1647C56.9004 28.0058 56.9537 27.9 57.0602 27.7941C57.1668 27.6882 57.2733 27.6353 57.4332 27.6353C57.593 27.6353 57.6995 27.6882 57.8061 27.7941C57.9126 27.9 57.9659 28.0058 57.9659 28.1647C57.9659 28.3235 57.9126 28.4294 57.8061 28.5353C57.6995 28.6411 57.5397 28.6941 57.4332 28.6941ZM57.8061 33.9353H57.0069V29.4882H57.8061V33.9353Z" fill="#23282F"/>
<path d="M63.1332 31.6058C63.1332 31.9764 63.0799 32.294 62.9733 32.5587C62.8668 32.8234 62.707 33.0881 62.5471 33.2999C62.334 33.5117 62.1209 33.6705 61.8545 33.7764C61.5882 33.8823 61.3218 33.9352 61.0021 33.9352C60.6825 33.9352 60.4161 33.8823 60.1497 33.7764C59.8833 33.6705 59.6702 33.5117 59.4571 33.2999C59.244 33.0881 59.1375 32.8234 59.0309 32.5587C58.9244 32.294 58.8711 31.9764 58.8711 31.6058C58.8711 31.2352 58.9244 30.9175 59.0309 30.6528C59.1375 30.3881 59.2973 30.1234 59.4571 29.9117C59.6702 29.6999 59.8833 29.5411 60.1497 29.4352C60.4161 29.3293 60.6825 29.2764 61.0021 29.2764C61.3218 29.2764 61.5882 29.3293 61.8545 29.4352C62.1209 29.5411 62.334 29.6999 62.5471 29.9117C62.7602 30.1234 62.8668 30.3881 62.9733 30.6528C63.0799 30.9705 63.1332 31.2881 63.1332 31.6058ZM62.2808 31.6058C62.2808 31.0764 62.1742 30.7058 61.9611 30.3881C61.748 30.0705 61.4283 29.9646 61.0554 29.9646C60.6825 29.9646 60.3628 30.1234 60.1497 30.3881C59.9366 30.7058 59.8301 31.0764 59.8301 31.6058C59.8301 32.1352 59.9366 32.5058 60.1497 32.8234C60.3628 33.1411 60.6825 33.247 61.0554 33.247C61.4283 33.247 61.748 33.0881 61.9611 32.8234C62.1742 32.5058 62.2808 32.1352 62.2808 31.6058Z" fill="#23282F"/>
<path d="M64.1992 29.6468C64.359 29.5939 64.6254 29.5409 64.9451 29.488C65.2647 29.4351 65.5844 29.4351 66.0106 29.4351C66.3835 29.4351 66.6499 29.488 66.9163 29.5939C67.1294 29.6998 67.3425 29.8586 67.5023 30.0174C67.6621 30.1762 67.7687 30.388 67.822 30.6527C67.8753 30.9174 67.9285 31.1821 67.9285 31.4998V33.988H67.1294V31.6586C67.1294 31.3939 67.1294 31.1292 67.0761 30.9704C67.0228 30.7586 66.9696 30.5998 66.9163 30.4939C66.8097 30.388 66.7032 30.2821 66.5966 30.2292C66.4368 30.1762 66.277 30.1233 66.0639 30.1233C65.9573 30.1233 65.904 30.1233 65.7975 30.1233C65.6909 30.1233 65.6377 30.1233 65.5311 30.1233C65.4246 30.1233 65.3713 30.1233 65.318 30.1762C65.2647 30.1762 65.2115 30.1762 65.1582 30.1762V33.9351H64.359V29.6468H64.1992Z" fill="#23282F"/>
<path d="M70.5388 29.2764C70.8585 29.2764 71.1248 29.3293 71.3379 29.3822C71.551 29.4881 71.7641 29.594 71.8707 29.7528C72.0305 29.9117 72.0838 30.0705 72.1371 30.2823C72.1904 30.494 72.2436 30.7058 72.2436 30.9705V33.7764C72.1904 33.7764 72.0838 33.8293 71.9773 33.8293C71.8707 33.8293 71.7109 33.8823 71.5511 33.8823C71.3912 33.8823 71.2314 33.9352 71.0716 33.9352C70.9117 33.9352 70.6986 33.9352 70.5388 33.9352C70.2724 33.9352 70.0593 33.9352 69.8462 33.8823C69.6331 33.8293 69.4733 33.7234 69.3135 33.6175C69.1536 33.5117 69.0471 33.3528 68.9405 33.194C68.834 33.0352 68.834 32.7705 68.834 32.5587C68.834 32.294 68.8873 32.0823 68.9938 31.9234C69.1004 31.7646 69.2069 31.6058 69.42 31.4999C69.5798 31.394 69.7929 31.2881 70.006 31.2352C70.2192 31.1823 70.4855 31.1823 70.7519 31.1823C70.8585 31.1823 70.9117 31.1823 71.0183 31.1823C71.1248 31.1823 71.1781 31.1823 71.2847 31.2352C71.3379 31.2352 71.4445 31.2881 71.4978 31.2881C71.551 31.2881 71.6043 31.2881 71.6043 31.2881V31.0764C71.6043 30.9705 71.6043 30.8117 71.5511 30.7058C71.4978 30.5999 71.4445 30.4411 71.3912 30.3881C71.3379 30.2823 71.2314 30.2293 71.0716 30.1234C70.965 30.0705 70.7519 30.0175 70.5921 30.0175C70.3257 30.0175 70.1126 30.0175 69.8995 30.0705C69.6864 30.1234 69.5266 30.1234 69.4733 30.1764L69.3667 29.5411C69.4733 29.4881 69.6331 29.4352 69.8995 29.3822C70.0061 29.3293 70.2724 29.2764 70.5388 29.2764ZM70.6454 33.2999C70.8585 33.2999 71.0183 33.2999 71.1248 33.2999C71.2847 33.2999 71.3912 33.2999 71.4978 33.247V31.9234C71.4445 31.8705 71.3379 31.8705 71.2314 31.8705C71.1248 31.8705 70.965 31.8175 70.7519 31.8175C70.6454 31.8175 70.4855 31.8175 70.379 31.8175C70.2192 31.8175 70.1126 31.8705 70.006 31.9234C69.8995 31.9764 69.7929 32.0293 69.7397 32.1352C69.6864 32.2411 69.6331 32.347 69.6331 32.5058C69.6331 32.7705 69.7397 32.9823 69.8995 33.0881C70.0593 33.247 70.3257 33.2999 70.6454 33.2999Z" fill="#23282F"/>
<path d="M74.9067 33.935C74.4272 33.935 74.0542 33.8291 73.8411 33.6173C73.628 33.4055 73.5215 33.0879 73.5215 32.6644V27.3702L74.3206 27.2114V32.5585C74.3206 32.6644 74.3206 32.8232 74.3739 32.8761C74.3739 32.982 74.4272 33.035 74.4804 33.0879C74.5337 33.1408 74.587 33.1938 74.6935 33.1938C74.8001 33.1938 74.9067 33.2467 75.0132 33.2467L74.9067 33.935Z" fill="#23282F"/>
<path d="M75.8652 29.6468C76.0251 29.5939 76.2914 29.5409 76.6111 29.488C76.9308 29.4351 77.2504 29.4351 77.6766 29.4351C78.0496 29.4351 78.3159 29.488 78.5823 29.5939C78.7954 29.6998 79.0085 29.8586 79.1683 30.0174C79.3282 30.1762 79.4347 30.388 79.488 30.6527C79.5413 30.9174 79.5946 31.1821 79.5946 31.4998V33.988H78.7954V31.6586C78.7954 31.3939 78.7954 31.1292 78.7421 30.9704C78.6889 30.7586 78.6356 30.5998 78.5823 30.4939C78.4758 30.388 78.3692 30.2821 78.2627 30.2292C78.1028 30.1762 77.943 30.1233 77.7299 30.1233C77.6233 30.1233 77.5701 30.1233 77.4635 30.1233C77.357 30.1233 77.3037 30.1233 77.1971 30.1233C77.0906 30.1233 77.0373 30.1233 76.984 30.1762C76.9308 30.1762 76.8775 30.1762 76.8242 30.1762V33.9351H76.0251V29.6468H75.8652Z" fill="#23282F"/>
<path d="M80.5547 31.6055C80.5547 31.2349 80.608 30.8643 80.7145 30.5467C80.8211 30.229 80.9809 30.0173 81.194 29.8055C81.4071 29.5937 81.6202 29.4878 81.8333 29.382C82.0997 29.2761 82.3128 29.2231 82.5792 29.2231C83.1652 29.2231 83.6447 29.4349 83.9644 29.8055C84.284 30.1761 84.4438 30.7584 84.4438 31.4996C84.4438 31.5526 84.4438 31.5526 84.4438 31.6584C84.4438 31.7114 84.4438 31.7643 84.4438 31.8173H81.3538C81.4071 32.2937 81.5137 32.6114 81.78 32.8761C81.9931 33.1408 82.3661 33.2467 82.8988 33.2467C83.1652 33.2467 83.4316 33.2467 83.5914 33.1937C83.8045 33.1408 83.9111 33.0878 84.0176 33.0349L84.1242 33.7231C84.0176 33.7761 83.8578 33.829 83.5914 33.882C83.325 33.9349 83.0587 33.9878 82.739 33.9878C82.3661 33.9878 81.9931 33.9349 81.7268 33.829C81.4604 33.7231 81.194 33.5643 81.0342 33.3526C80.8743 33.1408 80.7145 32.8761 80.608 32.6114C80.608 32.2937 80.5547 31.9761 80.5547 31.6055ZM83.6447 31.182C83.6447 30.8114 83.5381 30.5467 83.3783 30.282C83.1652 30.0702 82.9521 29.9114 82.6325 29.9114C82.4726 29.9114 82.2595 29.9643 82.153 30.0173C81.9931 30.0702 81.8866 30.1761 81.78 30.282C81.6735 30.3878 81.6202 30.5467 81.5669 30.6526C81.5137 30.8114 81.4604 30.9702 81.4604 31.129H83.6447V31.182Z" fill="#23282F"/>
<path d="M88.3849 33.5117C88.3316 33.5647 88.1718 33.6176 87.9587 33.6706C87.7456 33.7235 87.5325 33.7764 87.2661 33.7764C86.9998 33.7764 86.7334 33.7235 86.5203 33.6706C86.3072 33.5647 86.0941 33.4588 85.881 33.247C85.7211 33.0882 85.5613 32.8235 85.4547 32.5588C85.3482 32.2941 85.2949 31.9764 85.2949 31.6059C85.2949 31.2882 85.3482 30.9706 85.4547 30.7059C85.5613 30.4411 85.7211 30.1764 85.881 30.0176C86.0941 29.8059 86.3072 29.647 86.5735 29.5411C86.8399 29.4353 87.1596 29.3823 87.4792 29.3823C87.8522 29.3823 88.1718 29.4353 88.4382 29.4882C88.7046 29.5411 88.971 29.5941 89.1308 29.647V33.6176C89.1308 34.3059 88.971 34.7823 88.598 35.1C88.2251 35.4176 87.6923 35.5764 86.9998 35.5764C86.7334 35.5764 86.467 35.5764 86.2006 35.5235C85.9342 35.4706 85.7211 35.4176 85.5613 35.3647L85.7211 34.6764C85.881 34.7294 86.0941 34.7823 86.3072 34.8353C86.5203 34.8882 86.7866 34.8882 87.053 34.8882C87.5325 34.8882 87.8522 34.7823 88.0653 34.6235C88.2784 34.4117 88.3849 34.147 88.3849 33.7235V33.5117ZM88.3849 30.1764C88.2784 30.1764 88.1718 30.1235 88.0653 30.1235C87.9054 30.1235 87.7456 30.0706 87.5325 30.0706C87.1063 30.0706 86.7866 30.2294 86.5203 30.4941C86.3072 30.7588 86.1473 31.1294 86.1473 31.6059C86.1473 31.8706 86.2006 32.0823 86.2539 32.2411C86.3072 32.4 86.4137 32.5588 86.5203 32.7176C86.6268 32.8235 86.7866 32.9294 86.8932 32.9823C87.053 33.0353 87.2129 33.0882 87.3727 33.0882C87.5858 33.0882 87.7989 33.0353 87.9587 32.9823C88.1185 32.9294 88.2784 32.8764 88.3849 32.7706V30.1764Z" fill="#23282F"/>
<path d="M94.5121 31.6058C94.5121 31.9764 94.4588 32.294 94.3523 32.5587C94.2457 32.8234 94.0859 33.0881 93.926 33.2999C93.7129 33.5117 93.4998 33.6705 93.2335 33.7764C92.9671 33.8823 92.7007 33.9352 92.381 33.9352C92.0614 33.9352 91.795 33.8823 91.5286 33.7764C91.2622 33.6705 91.0491 33.5117 90.836 33.2999C90.6229 33.0881 90.5164 32.8234 90.4098 32.5587C90.3033 32.294 90.25 31.9764 90.25 31.6058C90.25 31.2352 90.3033 30.9175 90.4098 30.6528C90.5164 30.3881 90.6762 30.1234 90.836 29.9117C91.0491 29.6999 91.2622 29.5411 91.5286 29.4352C91.795 29.3293 92.0614 29.2764 92.381 29.2764C92.7007 29.2764 92.9671 29.3293 93.2335 29.4352C93.4998 29.5411 93.7129 29.6999 93.926 29.9117C94.1392 30.1234 94.2457 30.3881 94.3523 30.6528C94.4588 30.9705 94.5121 31.2881 94.5121 31.6058ZM93.6597 31.6058C93.6597 31.0764 93.5531 30.7058 93.34 30.3881C93.1269 30.0705 92.8072 29.9646 92.4343 29.9646C92.0614 29.9646 91.7417 30.1234 91.5286 30.3881C91.3155 30.7058 91.209 31.0764 91.209 31.6058C91.209 32.1352 91.3155 32.5058 91.5286 32.8234C91.7417 33.1411 92.0614 33.247 92.4343 33.247C92.8072 33.247 93.1269 33.0881 93.34 32.8234C93.5531 32.5058 93.6597 32.1352 93.6597 31.6058Z" fill="#23282F"/>
<path d="M3.56949 11.4352C2.93018 11.4352 2.39742 11.3293 1.97121 11.1705C1.545 11.0117 1.17207 10.747 0.852416 10.4293C0.586036 10.1117 0.319656 9.74107 0.213104 9.31754C0.053276 8.89401 0 8.41754 0 7.88813V2.27637H1.65156V7.72931C1.65156 8.15284 1.70483 8.47049 1.81138 8.78813C1.91794 9.05284 2.02449 9.31754 2.18431 9.47637C2.34414 9.63519 2.55725 9.79401 2.77035 9.8999C2.98345 10.0058 3.24983 10.0058 3.56949 10.0058C3.83587 10.0058 4.10225 9.95284 4.36863 9.8999C4.58173 9.79401 4.79484 9.68813 4.95467 9.47637C5.11449 9.31754 5.27432 9.05284 5.3276 8.78813C5.43415 8.52343 5.48743 8.15284 5.48743 7.72931V2.27637H7.13898V7.88813C7.13898 8.41754 7.0857 8.89401 6.92588 9.31754C6.76605 9.74107 6.55294 10.1117 6.28656 10.4293C6.02018 10.747 5.64725 11.0117 5.16777 11.1705C4.68829 11.3822 4.15553 11.4352 3.56949 11.4352Z" fill="#23282F"/>
<path d="M9.10938 4.87059C9.42903 4.76471 9.80196 4.71176 10.2814 4.60588C10.7609 4.55294 11.2937 4.5 11.8797 4.5C12.4125 4.5 12.892 4.55294 13.2649 4.71176C13.6378 4.87059 13.9575 5.08235 14.1706 5.34706C14.3837 5.61176 14.5435 5.92941 14.6501 6.35294C14.7566 6.72353 14.8099 7.14706 14.8099 7.62353V11.4353H13.2116V7.83529C13.2116 7.46471 13.2116 7.14706 13.1583 6.88235C13.1051 6.61765 13.0518 6.40588 12.9452 6.24706C12.8387 6.08824 12.6789 5.98235 12.519 5.87647C12.3059 5.82353 12.0928 5.77059 11.8264 5.77059C11.6133 5.77059 11.4002 5.77059 11.1871 5.82353C10.974 5.82353 10.8142 5.87647 10.7077 5.87647V11.3824H9.10938V4.87059Z" fill="#23282F"/>
<path d="M18.4336 2.647C18.4336 2.96464 18.327 3.17641 18.1672 3.33523C17.9541 3.49405 17.741 3.59994 17.4746 3.59994C17.2082 3.59994 16.9951 3.49405 16.782 3.33523C16.5689 3.17641 16.5156 2.96464 16.5156 2.647C16.5156 2.32935 16.6222 2.11758 16.782 1.90582C16.9951 1.747 17.2082 1.64111 17.4746 1.64111C17.741 1.64111 17.9541 1.747 18.1672 1.90582C18.327 2.11758 18.4336 2.32935 18.4336 2.647ZM18.2737 11.4352H16.6755V4.65876H18.2737V11.4352Z" fill="#23282F"/>
<path d="M22.4827 4.34131C23.0155 4.34131 23.4417 4.39425 23.8146 4.55307C24.1875 4.65896 24.4539 4.87072 24.667 5.08249C24.8801 5.29425 25.0399 5.6119 25.1465 5.92954C25.2531 6.24719 25.3063 6.61778 25.3063 7.04131V11.1707C25.0399 11.2237 24.7203 11.2766 24.1875 11.3825C23.708 11.4354 23.122 11.4884 22.536 11.4884C22.1098 11.4884 21.7368 11.4354 21.4172 11.3825C21.0975 11.3295 20.7779 11.1707 20.5648 11.0119C20.2984 10.8531 20.1386 10.5884 19.9787 10.3237C19.8189 10.059 19.7656 9.68837 19.7656 9.31778C19.7656 8.94719 19.8189 8.5766 19.9787 8.3119C20.1386 8.04719 20.3517 7.83543 20.618 7.6766C20.8844 7.51778 21.2041 7.4119 21.5237 7.30602C21.8434 7.25307 22.2163 7.20013 22.5893 7.20013C22.7491 7.20013 22.9622 7.20013 23.122 7.25307C23.3351 7.25307 23.4949 7.30601 23.7613 7.35896V7.09425C23.7613 6.93543 23.7613 6.72366 23.708 6.56484C23.6548 6.40601 23.6015 6.24719 23.4949 6.14131C23.3884 6.03543 23.2286 5.92954 23.0687 5.82366C22.9089 5.77072 22.6425 5.71778 22.3761 5.71778C22.0032 5.71778 21.6836 5.71778 21.3639 5.77072C21.0442 5.82366 20.8311 5.8766 20.618 5.92954L20.4049 4.65896C20.618 4.60601 20.8844 4.50013 21.2574 4.44719C21.6303 4.39425 22.0565 4.34131 22.4827 4.34131ZM22.5893 10.2178C23.0687 10.2178 23.4417 10.2178 23.708 10.1648V8.41778C23.6015 8.41778 23.4949 8.36484 23.3351 8.36484C23.1753 8.36484 22.9622 8.3119 22.8024 8.3119C22.6425 8.3119 22.4294 8.3119 22.2696 8.36484C22.1098 8.36484 21.9499 8.41778 21.7901 8.52366C21.6303 8.5766 21.5237 8.68249 21.4172 8.84131C21.3106 8.94719 21.3106 9.10602 21.3106 9.31778C21.3106 9.68837 21.4172 9.95307 21.6836 10.1119C21.8967 10.1119 22.2163 10.2178 22.5893 10.2178Z" fill="#23282F"/>
<path d="M30.1543 11.4351V2.43506H35.9614V3.81153H31.8059V6.03506H35.5352V7.41153H31.8059V10.0586H36.281V11.4351H30.1543Z" fill="#23282F"/>
<path d="M43.0462 11.0647C42.7266 11.1176 42.3536 11.2235 41.8742 11.3294C41.3947 11.4353 40.8619 11.4353 40.2759 11.4353C39.7431 11.4353 39.2636 11.3824 38.8907 11.2235C38.5178 11.0647 38.1981 10.8529 37.985 10.5882C37.7719 10.3235 37.6121 10.0059 37.5055 9.58235C37.399 9.21176 37.3457 8.78823 37.3457 8.31176V4.5H38.944V8.04706C38.944 8.78823 39.0505 9.31765 39.2636 9.58235C39.4767 9.9 39.8497 10.0588 40.3824 10.0588C40.5955 10.0588 40.7554 10.0588 40.9685 10.0588C41.1816 10.0588 41.3414 10.0059 41.448 10.0059V4.5H43.0462V11.0647Z" fill="#23282F"/>
<path d="M48.9067 6.03529C48.8002 5.98235 48.5871 5.92941 48.374 5.87647C48.1609 5.82353 47.8945 5.82353 47.5748 5.82353C47.415 5.82353 47.2019 5.82353 47.0421 5.87647C46.829 5.92941 46.7224 5.92941 46.6159 5.98235V11.4353H45.0176V4.97647C45.284 4.87059 45.6569 4.76471 46.1364 4.65882C46.6159 4.55294 47.0953 4.5 47.6814 4.5C47.7879 4.5 47.8945 4.5 48.0543 4.5C48.2141 4.5 48.3207 4.55294 48.4805 4.55294C48.6403 4.55294 48.7469 4.60588 48.9067 4.60588C49.0666 4.60588 49.1198 4.65882 49.2264 4.71176L48.9067 6.03529Z" fill="#23282F"/>
<path d="M56.366 7.88809C56.366 8.4175 56.3127 8.89397 56.1529 9.37044C55.9931 9.79397 55.78 10.1646 55.4603 10.4822C55.1939 10.7999 54.821 11.0116 54.3948 11.2234C53.9686 11.3822 53.5424 11.4881 53.0629 11.4881C52.5834 11.4881 52.1039 11.3822 51.731 11.2234C51.3048 11.0646 50.9851 10.7999 50.7187 10.4822C50.4524 10.1646 50.186 9.79397 50.0261 9.37044C49.8663 8.94691 49.7598 8.4175 49.7598 7.88809C49.7598 7.35867 49.8663 6.8822 50.0261 6.40573C50.186 5.9822 50.3991 5.61162 50.7187 5.29397C50.9851 4.97632 51.358 4.76456 51.7843 4.55279C52.2105 4.39397 52.6367 4.28809 53.1162 4.28809C53.5956 4.28809 54.0218 4.39397 54.4481 4.55279C54.8743 4.71162 55.1939 4.97632 55.5136 5.29397C55.78 5.61162 56.0463 5.9822 56.2062 6.40573C56.2594 6.82926 56.366 7.30573 56.366 7.88809ZM54.7677 7.88809C54.7677 7.19985 54.6079 6.67044 54.3415 6.29985C54.0751 5.92926 53.6489 5.7175 53.1162 5.7175C52.5834 5.7175 52.2105 5.92926 51.8908 6.29985C51.6244 6.67044 51.4646 7.25279 51.4646 7.88809C51.4646 8.57632 51.6244 9.10573 51.8908 9.52926C52.1572 9.95279 52.5834 10.1116 53.1162 10.1116C53.6489 10.1116 54.0218 9.89985 54.3415 9.52926C54.6079 9.10573 54.7677 8.57632 54.7677 7.88809Z" fill="#23282F"/>
<path d="M64.0907 8.04706C64.0907 8.57647 64.0374 9.05294 63.8776 9.47647C63.7178 9.9 63.558 10.2706 63.2916 10.5882C63.0252 10.9059 62.7055 11.1176 62.3326 11.3294C61.9597 11.4882 61.5335 11.5941 61.054 11.5941C60.7343 11.5941 60.4147 11.5412 60.1483 11.4882C59.8819 11.4353 59.6688 11.3294 59.4557 11.2235V13.8706H57.8574V4.87059C58.1771 4.76471 58.6033 4.71176 59.0295 4.60588C59.509 4.55294 59.9885 4.5 60.5212 4.5C61.054 4.5 61.5335 4.60588 61.9597 4.76471C62.3859 4.92353 62.7588 5.18824 63.0252 5.45294C63.3449 5.77059 63.558 6.14118 63.7178 6.56471C63.9842 6.98824 64.0907 7.51765 64.0907 8.04706ZM62.4392 8.1C62.4392 7.41177 62.2793 6.82941 61.9597 6.45882C61.64 6.08824 61.1073 5.87647 60.4147 5.87647C60.2548 5.87647 60.095 5.87647 59.9352 5.87647C59.7754 5.87647 59.6155 5.92941 59.4557 5.98235V9.84706C59.6155 9.95294 59.7754 10.0059 59.9885 10.1118C60.2016 10.2176 60.4679 10.2176 60.7343 10.2176C61.3204 10.2176 61.7466 10.0059 62.013 9.63529C62.3326 9.26471 62.4392 8.73529 62.4392 8.1Z" fill="#23282F"/>
<path d="M65.2637 7.94131C65.2637 7.35896 65.3702 6.82954 65.5301 6.35307C65.6899 5.8766 65.9563 5.50601 66.2226 5.24131C66.5423 4.92366 66.8619 4.7119 67.2349 4.55307C67.6078 4.39425 68.034 4.34131 68.4069 4.34131C69.3659 4.34131 70.0585 4.60601 70.5913 5.18837C71.124 5.77072 71.3904 6.61778 71.3904 7.78249C71.3904 7.88837 71.3904 7.94131 71.3904 8.10013C71.3904 8.20602 71.3904 8.3119 71.3904 8.41778H66.8619C66.9152 8.94719 67.0751 9.37072 67.448 9.68837C67.7676 10.006 68.3004 10.1119 68.9397 10.1119C69.3126 10.1119 69.6856 10.059 70.0052 10.006C70.3249 9.95307 70.5913 9.84719 70.7511 9.79425L70.9642 11.0648C70.8576 11.1178 70.7511 11.1707 70.5913 11.2237C70.4314 11.2766 70.2716 11.3295 70.0585 11.3295C69.8454 11.3825 69.6323 11.3825 69.4192 11.4354C69.2061 11.4354 68.9397 11.4884 68.7266 11.4884C68.1406 11.4884 67.6078 11.3825 67.1816 11.2237C66.7554 11.0648 66.3825 10.8001 66.0628 10.4825C65.7964 10.1648 65.5833 9.79425 65.4235 9.37072C65.3169 8.89425 65.2637 8.41778 65.2637 7.94131ZM69.8454 7.20013C69.8454 6.98837 69.7921 6.7766 69.7388 6.56484C69.6856 6.35307 69.579 6.19425 69.4725 6.03543C69.3659 5.8766 69.2061 5.77072 69.0463 5.71778C68.8864 5.6119 68.6733 5.6119 68.4602 5.6119C68.1938 5.6119 67.9807 5.66484 67.8209 5.77072C67.6611 5.8766 67.5013 5.98249 67.3414 6.14131C67.2349 6.30013 67.1283 6.45896 67.0218 6.67072C66.9685 6.88249 66.9152 7.04131 66.8619 7.25307H69.8454V7.20013Z" fill="#23282F"/>
<path d="M72.1353 13.8705C72.0287 13.8705 71.8689 13.8705 71.6558 13.8176C71.4427 13.8176 71.2829 13.7646 71.123 13.7117L71.3361 12.4411C71.5493 12.4941 71.7624 12.547 72.0287 12.547C72.4017 12.547 72.6681 12.4411 72.7746 12.2293C72.9344 12.0176 72.9877 11.6999 72.9877 11.2764V4.65876H74.586V11.2764C74.586 12.1764 74.3729 12.8117 73.9467 13.2352C73.5737 13.6588 72.9344 13.8705 72.1353 13.8705ZM74.7991 2.647C74.7991 2.96464 74.6925 3.17641 74.5327 3.33523C74.3196 3.49405 74.1065 3.59994 73.8401 3.59994C73.5737 3.59994 73.3606 3.49405 73.1475 3.33523C72.9344 3.17641 72.8812 2.9117 72.8812 2.647C72.8812 2.32935 72.9877 2.11758 73.1475 1.90582C73.3606 1.747 73.5737 1.64111 73.8401 1.64111C74.1065 1.64111 74.3196 1.747 74.5327 1.90582C74.6925 2.11758 74.7991 2.32935 74.7991 2.647Z" fill="#23282F"/>
<path d="M78.2627 10.1646C78.6889 10.1646 79.0085 10.1116 79.1684 10.0057C79.3815 9.89985 79.4347 9.74103 79.4347 9.47632C79.4347 9.26456 79.3282 9.05279 79.1151 8.89397C78.902 8.73515 78.5823 8.57632 78.1028 8.4175C77.8365 8.31162 77.5701 8.20573 77.3037 8.09985C77.0373 7.99397 76.8775 7.83515 76.6644 7.67632C76.5045 7.5175 76.3447 7.30573 76.2382 7.09397C76.1316 6.8822 76.0783 6.6175 76.0783 6.29985C76.0783 5.66456 76.2914 5.18809 76.7709 4.8175C77.2504 4.44691 77.8365 4.28809 78.6356 4.28809C79.0618 4.28809 79.4347 4.34103 79.8077 4.39397C80.1806 4.44691 80.447 4.55279 80.6068 4.60573L80.3404 5.87632C80.1806 5.82338 79.9675 5.7175 79.6478 5.66456C79.3815 5.61162 79.0618 5.55867 78.6889 5.55867C78.3692 5.55867 78.1028 5.61162 77.8897 5.7175C77.6766 5.82338 77.5701 5.9822 77.5701 6.19397C77.5701 6.29985 77.5701 6.40573 77.6233 6.51162C77.6766 6.6175 77.7299 6.67044 77.8365 6.77632C77.943 6.82926 78.0496 6.93514 78.2094 6.98809C78.3692 7.04103 78.5823 7.14691 78.7954 7.19985C79.1683 7.35867 79.488 7.46456 79.7544 7.62338C80.0208 7.7822 80.2339 7.88809 80.3937 8.09985C80.5535 8.25867 80.7134 8.47044 80.7666 8.6822C80.8199 8.89397 80.8732 9.15867 80.8732 9.47632C80.8732 10.1116 80.6068 10.641 80.1273 10.9587C79.6478 11.2763 78.9552 11.4351 78.0496 11.4351C77.4635 11.4351 76.984 11.3822 76.6111 11.2763C76.2382 11.1704 75.9718 11.1175 75.8652 11.0116L76.1316 9.68809C76.3447 9.79397 76.6644 9.89985 76.984 9.95279C77.4635 10.1116 77.8364 10.1646 78.2627 10.1646Z" fill="#23282F"/>
<path d="M84.0162 7.30565C84.2293 7.09388 84.4425 6.88212 84.6556 6.61741C84.8687 6.40565 85.0818 6.14094 85.3481 5.87624C85.5612 5.66447 85.7743 5.39976 85.9875 5.188C86.2006 4.97624 86.3604 4.76447 86.4669 4.60565H88.3316C87.9054 5.08212 87.4259 5.61153 86.9464 6.088C86.4669 6.61741 85.9875 7.09388 85.508 7.62329C85.7744 7.83506 86.0407 8.09976 86.3071 8.41741C86.5735 8.73506 86.8931 9.05271 87.1595 9.42329C87.4259 9.79388 87.6923 10.1115 87.9054 10.4821C88.1185 10.8527 88.3316 11.1704 88.4914 11.4351H86.68C86.5202 11.1704 86.3604 10.9056 86.1473 10.588C85.9342 10.2704 85.7211 10.0056 85.508 9.74094C85.2949 9.47623 85.0285 9.21153 84.7621 8.94682C84.4957 8.68212 84.2826 8.47035 84.0162 8.31153V11.4351H82.418V2.69976L84.0162 2.43506V7.30565Z" fill="#23282F"/>
<path d="M91.8479 4.34131C92.3807 4.34131 92.8069 4.39425 93.1798 4.55307C93.5528 4.65896 93.8191 4.87072 94.0322 5.08249C94.2453 5.29425 94.4052 5.6119 94.5117 5.92954C94.6183 6.24719 94.6716 6.61778 94.6716 7.04131V11.1707C94.4052 11.2237 94.0855 11.2766 93.5528 11.3825C93.0733 11.4354 92.4872 11.4884 91.9012 11.4884C91.475 11.4884 91.1021 11.4354 90.7824 11.3825C90.4628 11.3295 90.1431 11.1707 89.93 11.0119C89.6636 10.8531 89.5038 10.5884 89.344 10.3237C89.1841 10.059 89.1309 9.68837 89.1309 9.31778C89.1309 8.94719 89.1841 8.5766 89.344 8.3119C89.5038 8.04719 89.7169 7.83543 89.9833 7.6766C90.2496 7.51778 90.5693 7.4119 90.889 7.30602C91.2086 7.25307 91.5816 7.20013 91.9545 7.20013C92.1143 7.20013 92.3274 7.20013 92.4872 7.25307C92.7003 7.25307 92.8602 7.30601 93.1266 7.35896V7.09425C93.1266 6.93543 93.1266 6.72366 93.0733 6.56484C93.02 6.40601 92.9667 6.24719 92.8602 6.14131C92.7536 6.03543 92.5938 5.92954 92.434 5.82366C92.2741 5.77072 92.0078 5.71778 91.7414 5.71778C91.3684 5.71778 91.0488 5.71778 90.7291 5.77072C90.4095 5.82366 90.1964 5.8766 89.9833 5.92954L89.7702 4.65896C89.9833 4.60601 90.2497 4.50013 90.6226 4.44719C90.9955 4.39425 91.4217 4.34131 91.8479 4.34131ZM91.9545 10.2178C92.434 10.2178 92.8069 10.2178 93.0733 10.1648V8.41778C92.9667 8.41778 92.8602 8.36484 92.7003 8.36484C92.5405 8.36484 92.3274 8.3119 92.1676 8.3119C92.0078 8.3119 91.7947 8.3119 91.6348 8.36484C91.475 8.36484 91.3152 8.41778 91.1553 8.52366C90.9955 8.5766 90.889 8.68249 90.7824 8.84131C90.6759 8.94719 90.6759 9.10602 90.6759 9.31778C90.6759 9.68837 90.7824 9.95307 91.0488 10.1119C91.2619 10.1119 91.5816 10.2178 91.9545 10.2178Z" fill="#23282F"/>
</svg>
