<svg width="122" height="30" viewBox="0 0 122 30" fill="none" xmlns="http://www.w3.org/2000/svg">
<path fill-rule="evenodd" clip-rule="evenodd" d="M22.4704 7.40297C20.7215 5.46555 18.3209 4.23927 15.7261 3.95778L14.4551 0.00175601V0H14.6948C17.1385 0.037368 19.5347 0.691357 21.6602 1.90301C23.8555 3.15442 25.6861 4.95734 26.9707 7.13338C28.2553 9.30942 28.9496 11.7832 28.9847 14.3099C29.0198 16.8366 28.3946 19.3286 27.171 21.5395C27.0726 21.6773 26.9592 21.8035 26.8327 21.916L27.0614 22.3495L29.1161 28.7609V28.7759L28.9053 28.982L22.6016 27.0094L22.1251 26.7569C22.0006 26.8859 21.8651 27.0039 21.7201 27.1095C19.547 28.3669 17.0838 29.0369 14.5731 29.0535L15.85 25.0797C18.4413 24.7678 20.8274 23.5135 22.5534 21.5557C24.2794 19.5979 25.2249 17.0735 25.2096 14.4635C25.1943 11.8535 24.2193 9.34039 22.4704 7.40297Z" fill="#2CAF2B"/>
<path fill-rule="evenodd" clip-rule="evenodd" d="M2.19394e-06 14.5271C-0.0019029 11.0601 1.23696 7.70686 3.49253 5.0739C5.41926 2.82424 7.9872 1.21682 10.8526 0.466797H10.8541L13.059 5.74432V5.84915L8.60982 8.74749L6.22747 7.62778C4.61413 9.56051 3.7335 12 3.7403 14.5175C3.73432 17.035 4.61485 19.4742 6.22747 21.4073L8.63365 20.2685L13.059 23.3516V23.4154L10.9588 28.6068C7.82603 27.8137 5.04725 25.9984 3.06233 23.4482C1.07742 20.8981 -0.000217574 17.7587 2.19394e-06 14.5271Z" fill="#007AFF"/>
<path d="M95.6888 13.6652H89.8521V9.93439H96.8943V7.35669H87.1934V21.7318H89.8521V16.2857H94.6168L95.6888 13.6652Z" fill="#23282F"/>
<path d="M100.326 7.35669V21.7318H109.127V19.116H102.99V7.35669H100.326Z" fill="#23282F"/>
<path d="M118.908 7.35669L115.392 12.8504L111.57 7.35669H108.307L114.02 15.4281V21.7318H116.721V15.3804L122 7.35669H118.908Z" fill="#23282F"/>
<path d="M59.0876 7.18506C57.6278 7.18506 56.2009 7.61792 54.9872 8.4289C53.7734 9.23988 52.8275 10.3926 52.2688 11.7412C51.7102 13.0898 51.5641 14.5738 51.8488 16.0055C52.1336 17.4371 52.8366 18.7522 53.8687 19.7844C54.9009 20.8166 56.216 21.5195 57.6477 21.8043C59.0794 22.0891 60.5634 21.9429 61.912 21.3843C63.2606 20.8257 64.4133 19.8797 65.2242 18.666C66.0352 17.4523 66.4681 16.0253 66.4681 14.5656C66.4681 12.6081 65.6905 10.7309 64.3064 9.34676C62.9223 7.96265 61.045 7.18506 59.0876 7.18506ZM59.0876 19.3303C58.1452 19.3303 57.224 19.0508 56.4404 18.5273C55.6569 18.0037 55.0462 17.2596 54.6855 16.389C54.3249 15.5183 54.2306 14.5603 54.4144 13.636C54.5983 12.7118 55.052 11.8628 55.7184 11.1964C56.3848 10.5301 57.2337 10.0763 58.158 9.89243C59.0823 9.70859 60.0403 9.80294 60.9109 10.1636C61.7816 10.5242 62.5257 11.1349 63.0493 11.9185C63.5728 12.702 63.8523 13.6232 63.8523 14.5656C63.8523 15.8293 63.3503 17.0412 62.4567 17.9347C61.5632 18.8283 60.3512 19.3303 59.0876 19.3303Z" fill="#23282F"/>
<path d="M48.57 17.9915C48.0127 18.541 47.3288 18.9448 46.5784 19.1672C45.8281 19.3897 45.0345 19.4238 44.2679 19.2667C43.5012 19.1097 42.785 18.7661 42.1826 18.2665C41.5803 17.767 41.1102 17.1267 40.814 16.4023C40.5178 15.6779 40.4046 14.8917 40.4844 14.1132C40.5642 13.3347 40.8346 12.5878 41.2715 11.9386C41.7085 11.2893 42.2987 10.7577 42.9899 10.3907C43.6811 10.0237 44.4521 9.83263 45.2347 9.83433C45.8535 9.8326 46.4666 9.95291 47.0389 10.1884C47.6112 10.4238 48.1315 10.7698 48.57 11.2066L49.642 8.67651C48.5442 7.86015 47.2411 7.365 45.8782 7.24633C44.5152 7.12766 43.1461 7.39014 41.9238 8.00447C40.7014 8.6188 39.6738 9.5608 38.9557 10.7253C38.2377 11.8898 37.8574 13.231 37.8574 14.599C37.8574 15.9671 38.2377 17.3083 38.9557 18.4728C39.6738 19.6373 40.7014 20.5793 41.9238 21.1936C43.1461 21.8079 44.5152 22.0704 45.8782 21.9517C47.2411 21.8331 48.5442 21.3379 49.642 20.5216L48.57 17.9915Z" fill="#23282F"/>
<path d="M82.1287 21.7318V7.35669H79.47V12.1643C79.47 13.1172 79.47 14.1797 79.5129 15.2994C79.5129 15.6425 79.5558 15.9427 79.5558 16.2524L79.6415 17.4579L72.1324 7.35669H69.75V21.7318H72.4135V15.7235C72.4135 14.9087 72.3229 13.3412 72.3229 13.3412L72.2038 11.9117L79.7082 21.7556L82.1287 21.7318Z" fill="#23282F"/>
</svg>
