<svg width="122" height="30" viewBox="0 0 122 30" fill="none" xmlns="http://www.w3.org/2000/svg">
<path fill-rule="evenodd" clip-rule="evenodd" d="M22.4714 7.40297C20.7225 5.46555 18.3219 4.23927 15.7271 3.95778L14.4561 0.00175601V0H14.6957C17.1395 0.037368 19.5357 0.691357 21.6612 1.90301C23.8565 3.15442 25.687 4.95734 26.9717 7.13338C28.2563 9.30942 28.9505 11.7832 28.9857 14.3099C29.0208 16.8366 28.3956 19.3286 27.1719 21.5395C27.0736 21.6773 26.9601 21.8035 26.8336 21.916L27.0624 22.3495L29.117 28.7609V28.7759L28.9063 28.982L22.6026 27.0094L22.1261 26.7569C22.0016 26.8859 21.8661 27.0039 21.7211 27.1095C19.5479 28.3669 17.0848 29.0369 14.5741 29.0535L15.851 25.0797C18.4423 24.7678 20.8283 23.5135 22.5544 21.5557C24.2804 19.5979 25.2259 17.0735 25.2106 14.4635C25.1953 11.8535 24.2203 9.34039 22.4714 7.40297Z" fill="#2CAF2B"/>
<path fill-rule="evenodd" clip-rule="evenodd" d="M2.19394e-06 14.5271C-0.0019029 11.0601 1.23696 7.70686 3.49253 5.0739C5.41926 2.82424 7.9872 1.21682 10.8526 0.466797H10.8541L13.059 5.74432V5.84915L8.60982 8.74749L6.22747 7.62778C4.61413 9.56051 3.7335 12 3.7403 14.5175C3.73432 17.035 4.61485 19.4742 6.22747 21.4073L8.63365 20.2685L13.059 23.3516V23.4154L10.9588 28.6068C7.82603 27.8137 5.04725 25.9984 3.06233 23.4482C1.07742 20.8981 -0.000217574 17.7587 2.19394e-06 14.5271Z" fill="#007AFF"/>
<path d="M95.6898 13.6652H89.853V9.93439H96.8953V7.35669H87.1943V21.7318H89.853V16.2857H94.6177L95.6898 13.6652Z" fill="white"/>
<path d="M100.325 7.35669V21.7318H109.126V19.116H102.989V7.35669H100.325Z" fill="white"/>
<path d="M118.908 7.35669L115.392 12.8504L111.57 7.35669H108.307L114.02 15.4281V21.7318H116.721V15.3804L122 7.35669H118.908Z" fill="white"/>
<path d="M59.0866 7.18506C57.6269 7.18506 56.1999 7.61792 54.9862 8.4289C53.7725 9.23988 52.8265 10.3926 52.2679 11.7412C51.7093 13.0898 51.5631 14.5738 51.8479 16.0055C52.1327 17.4371 52.8356 18.7522 53.8678 19.7844C54.8999 20.8166 56.215 21.5195 57.6467 21.8043C59.0784 22.0891 60.5624 21.9429 61.911 21.3843C63.2596 20.8257 64.4123 19.8797 65.2233 18.666C66.0342 17.4523 66.4671 16.0253 66.4671 14.5656C66.4671 12.6081 65.6895 10.7309 64.3054 9.34676C62.9213 7.96265 61.044 7.18506 59.0866 7.18506ZM59.0866 19.3303C58.1442 19.3303 57.223 19.0508 56.4395 18.5273C55.6559 18.0037 55.0452 17.2596 54.6846 16.389C54.3239 15.5183 54.2296 14.5603 54.4134 13.636C54.5973 12.7118 55.0511 11.8628 55.7174 11.1964C56.3838 10.5301 57.2328 10.0763 58.157 9.89243C59.0813 9.70859 60.0393 9.80294 60.91 10.1636C61.7806 10.5242 62.5247 11.1349 63.0483 11.9185C63.5718 12.702 63.8513 13.6232 63.8513 14.5656C63.8513 15.8293 63.3493 17.0412 62.4557 17.9347C61.5622 18.8283 60.3503 19.3303 59.0866 19.3303Z" fill="white"/>
<path d="M48.5709 17.9915C48.0137 18.541 47.3297 18.9448 46.5794 19.1672C45.8291 19.3897 45.0355 19.4238 44.2688 19.2667C43.5022 19.1097 42.786 18.7661 42.1836 18.2665C41.5812 17.767 41.1112 17.1267 40.815 16.4023C40.5188 15.6779 40.4056 14.8917 40.4854 14.1132C40.5652 13.3347 40.8355 12.5878 41.2725 11.9386C41.7095 11.2893 42.2997 10.7577 42.9909 10.3907C43.6821 10.0237 44.453 9.83263 45.2356 9.83433C45.8545 9.8326 46.4676 9.95291 47.0399 10.1884C47.6122 10.4238 48.1325 10.7698 48.5709 11.2066L49.643 8.67651C48.5452 7.86015 47.2421 7.365 45.8791 7.24633C44.5162 7.12766 43.1471 7.39014 41.9247 8.00447C40.7023 8.6188 39.6748 9.5608 38.9567 10.7253C38.2387 11.8898 37.8584 13.231 37.8584 14.599C37.8584 15.9671 38.2387 17.3083 38.9567 18.4728C39.6748 19.6373 40.7023 20.5793 41.9247 21.1936C43.1471 21.8079 44.5162 22.0704 45.8791 21.9517C47.2421 21.8331 48.5452 21.3379 49.643 20.5216L48.5709 17.9915Z" fill="white"/>
<path d="M82.1287 21.7318V7.35669H79.47V12.1643C79.47 13.1172 79.47 14.1797 79.5129 15.2994C79.5129 15.6425 79.5558 15.9427 79.5558 16.2524L79.6415 17.4579L72.1324 7.35669H69.75V21.7318H72.4135V15.7235C72.4135 14.9087 72.3229 13.3412 72.3229 13.3412L72.2038 11.9117L79.7082 21.7556L82.1287 21.7318Z" fill="white"/>
</svg>
