<svg width="102" height="47" viewBox="0 0 102 47" fill="none" xmlns="http://www.w3.org/2000/svg">
<g clip-path="url(#clip0)">
<path d="M35.209 21.7121V12.9028H40.8009V14.2501H36.8141V16.4784H40.3349V17.8257H36.8141V21.6603H35.209V21.7121Z" fill="#23282F"/>
<path d="M47.2217 21.3494C46.9111 21.4012 46.5486 21.5049 46.0827 21.6085C45.6167 21.7121 45.0989 21.7121 44.5294 21.7121C44.0116 21.7121 43.5456 21.6603 43.1832 21.5049C42.8207 21.3494 42.5101 21.1421 42.303 20.883C42.0959 20.6239 41.9405 20.313 41.837 19.8985C41.7334 19.5357 41.6816 19.1212 41.6816 18.6548V14.9238H43.2349V18.3957C43.2349 19.1212 43.3385 19.6394 43.5456 19.8985C43.7527 20.2094 44.1151 20.3648 44.6329 20.3648C44.84 20.3648 44.9954 20.3648 45.2025 20.3648C45.4096 20.3648 45.5649 20.313 45.6684 20.313V14.9238H47.2217V21.3494Z" fill="#23282F"/>
<path d="M49.1367 15.2866C49.4474 15.1829 49.8098 15.1311 50.2758 15.0275C50.7418 14.9756 51.2596 14.9238 51.8291 14.9238C52.3469 14.9238 52.8129 14.9756 53.1753 15.1311C53.5377 15.2866 53.8484 15.4938 54.0555 15.7529C54.2626 16.012 54.4179 16.3229 54.5215 16.7375C54.625 17.1002 54.6768 17.5148 54.6768 17.9812V21.7121H53.1235V18.1884C53.1235 17.8257 53.1235 17.5148 53.0717 17.2557C53.02 16.9966 52.9682 16.7893 52.8646 16.6339C52.7611 16.4784 52.6058 16.3748 52.4504 16.2711C52.2433 16.2193 52.0362 16.1675 51.7773 16.1675C51.5702 16.1675 51.3631 16.1675 51.156 16.2193C50.9489 16.2193 50.7936 16.2711 50.69 16.2711V21.6603H49.1367V15.2866Z" fill="#23282F"/>
<path d="M62.0803 21.3494C61.7697 21.453 61.4072 21.5048 60.9412 21.6085C60.4752 21.6603 60.0092 21.7121 59.4915 21.7121C58.9737 21.7121 58.5077 21.6085 58.0935 21.453C57.6793 21.2975 57.3169 21.0384 57.0062 20.7794C56.6955 20.4684 56.4884 20.1057 56.3331 19.6912C56.1778 19.2766 56.0742 18.7584 56.0742 18.2402C56.0742 17.722 56.126 17.2557 56.2813 16.7893C56.4367 16.3747 56.592 16.012 56.8509 15.7011C57.1098 15.3902 57.4204 15.1829 57.7828 14.9756C58.1453 14.8201 58.5595 14.7165 59.0255 14.7165C59.3361 14.7165 59.6468 14.7683 59.8539 14.8201C60.1128 14.872 60.3199 14.9756 60.4752 15.0792V11.9183L62.0285 11.6592V21.3494H62.0803ZM57.6793 18.1884C57.6793 18.862 57.8346 19.3802 58.1453 19.7948C58.4559 20.1575 58.9219 20.3648 59.4915 20.3648C59.7504 20.3648 59.9575 20.3648 60.1128 20.313C60.2681 20.313 60.4235 20.2612 60.527 20.2612V16.4265C60.3717 16.3229 60.2164 16.2711 60.0092 16.1674C59.8021 16.0638 59.5433 16.0638 59.2844 16.0638C58.7148 16.0638 58.3006 16.2711 58.0417 16.6338C57.8346 17.0484 57.6793 17.5666 57.6793 18.1884Z" fill="#23282F"/>
<path d="M69.4327 21.3494C69.122 21.4012 68.7596 21.5049 68.2936 21.6085C67.8276 21.7121 67.3098 21.7121 66.7403 21.7121C66.2225 21.7121 65.7565 21.6603 65.3941 21.5049C65.0317 21.3494 64.721 21.1421 64.5139 20.883C64.3068 20.6239 64.1515 20.313 64.0479 19.8985C63.9444 19.5357 63.8926 19.1212 63.8926 18.6548V14.9238H65.4459V18.3957C65.4459 19.1212 65.5494 19.6394 65.7565 19.8985C65.9636 20.2094 66.3261 20.3648 66.8438 20.3648C67.051 20.3648 67.2063 20.3648 67.4134 20.3648C67.6205 20.3648 67.7758 20.313 67.8794 20.313V14.9238H69.4327V21.3494Z" fill="#23282F"/>
<path d="M73.0057 20.4682C73.4199 20.4682 73.7306 20.4164 73.8859 20.3128C74.093 20.2091 74.1448 20.0537 74.1448 19.7946C74.1448 19.5873 74.0413 19.38 73.8342 19.2246C73.6271 19.0691 73.3164 18.9137 72.8504 18.7582C72.5915 18.6546 72.3326 18.5509 72.0737 18.4473C71.8149 18.3437 71.6595 18.1882 71.4524 18.0327C71.2971 17.8773 71.1418 17.67 71.0382 17.4627C70.9347 17.2554 70.8829 16.9964 70.8829 16.6854C70.8829 16.0636 71.09 15.5972 71.556 15.2345C72.022 14.8718 72.5915 14.7163 73.3682 14.7163C73.7824 14.7163 74.1448 14.7681 74.5073 14.8199C74.8697 14.8718 75.1286 14.9754 75.2839 15.0272L75.025 16.2709C74.8697 16.2191 74.6626 16.1154 74.3519 16.0636C74.093 16.0118 73.7824 15.96 73.4199 15.96C73.1093 15.96 72.8504 16.0118 72.6433 16.1154C72.4362 16.2191 72.3326 16.3745 72.3326 16.5818C72.3326 16.6854 72.3326 16.7891 72.3844 16.8927C72.4362 16.9964 72.488 17.0482 72.5915 17.1518C72.6951 17.2036 72.7986 17.3073 72.954 17.3591C73.1093 17.4109 73.3164 17.5145 73.5235 17.5664C73.8859 17.7218 74.1966 17.8255 74.4555 17.9809C74.7144 18.1364 74.9215 18.24 75.0768 18.4473C75.2321 18.6027 75.3875 18.81 75.4392 19.0173C75.491 19.2246 75.5428 19.4837 75.5428 19.7946C75.5428 20.4164 75.2839 20.9346 74.8179 21.2455C74.3519 21.5564 73.6788 21.7119 72.7986 21.7119C72.2291 21.7119 71.7631 21.6601 71.4007 21.5564C71.0382 21.4528 70.7793 21.401 70.6758 21.2973L70.9347 20.0019C71.1418 20.1055 71.4524 20.2091 71.7631 20.261C72.2291 20.4164 72.5915 20.4682 73.0057 20.4682Z" fill="#23282F"/>
<path d="M81.704 16.1155C81.5487 16.2709 81.2898 16.53 81.031 16.841C80.7721 17.1519 80.4614 17.5146 80.1508 17.9292C79.8401 18.3437 79.5294 18.7583 79.2188 19.1728C78.9081 19.5874 78.5975 20.0019 78.3386 20.4165H81.7558V21.712H76.4746V20.7274C76.6817 20.3647 76.8888 20.0019 77.1477 19.6392C77.4066 19.2246 77.7172 18.8619 78.0279 18.4473C78.3386 18.0328 78.5974 17.6701 78.9081 17.3073C79.2188 16.9446 79.4777 16.6337 79.6848 16.3746H76.6299V15.0791H81.6523V16.1155H81.704Z" fill="#23282F"/>
<path d="M82.5332 18.24C82.5332 17.67 82.6368 17.1518 82.7921 16.6854C82.9474 16.2191 83.2063 15.8563 83.4652 15.5972C83.7758 15.2863 84.0865 15.079 84.4489 14.9236C84.8114 14.7681 85.2256 14.7163 85.588 14.7163C86.52 14.7163 87.1931 14.9754 87.7109 15.5454C88.2286 16.1154 88.4875 16.9445 88.4875 18.0846C88.4875 18.1882 88.4875 18.24 88.4875 18.3955C88.4875 18.4991 88.4875 18.6027 88.4875 18.7064H84.0865C84.1383 19.2246 84.2936 19.6391 84.656 19.95C85.0185 20.261 85.4845 20.3646 86.1058 20.3646C86.4682 20.3646 86.8307 20.3128 87.1413 20.261C87.452 20.2091 87.7109 20.1055 87.8662 20.0537L88.0733 21.2973C87.9698 21.3492 87.8662 21.401 87.7109 21.4528C87.5555 21.5046 87.4002 21.5564 87.1931 21.5564C86.986 21.6083 86.7789 21.6083 86.5718 21.6601C86.3647 21.6601 86.1058 21.7119 85.8987 21.7119C85.3291 21.7119 84.8114 21.6083 84.3972 21.4528C83.983 21.2973 83.6205 21.0382 83.3099 20.7273C83.051 20.4164 82.8439 20.0537 82.6885 19.6391C82.585 19.2246 82.5332 18.7582 82.5332 18.24ZM86.986 17.5664C86.986 17.3591 86.9342 17.1518 86.8824 16.9445C86.8307 16.7373 86.7271 16.5818 86.6236 16.4263C86.52 16.2709 86.3647 16.1672 86.2093 16.1154C86.054 16.0118 85.8469 16.0118 85.6398 16.0118C85.3809 16.0118 85.1738 16.0636 85.0185 16.1672C84.8632 16.2709 84.7078 16.3745 84.5525 16.53C84.4489 16.6854 84.3454 16.8409 84.2418 17.0482C84.1901 17.2554 84.1383 17.4109 84.0865 17.6182H86.986V17.5664Z" fill="#23282F"/>
<path d="M35.209 33.4748V24.6655H40.8526V26.0128H36.8141V28.1892H40.4384V29.5365H36.8141V32.1275H41.1633V33.4748H35.209Z" fill="#23282F"/>
<path d="M47.7393 33.1121C47.4287 33.1639 47.0662 33.2676 46.6002 33.3712C46.1342 33.4748 45.6165 33.4748 45.0469 33.4748C44.5292 33.4748 44.0632 33.423 43.7007 33.2676C43.3383 33.1121 43.0276 32.9048 42.8205 32.6457C42.6134 32.3866 42.4581 32.0757 42.3546 31.6612C42.251 31.2984 42.1992 30.8839 42.1992 30.4175V26.6865H43.7525V30.1584C43.7525 30.8839 43.8561 31.4021 44.0632 31.6612C44.2703 31.9721 44.6327 32.1275 45.1505 32.1275C45.3576 32.1275 45.5129 32.1275 45.72 32.1275C45.9271 32.1275 46.0825 32.0757 46.186 32.0757V26.6865H47.7393V33.1121Z" fill="#23282F"/>
<path d="M53.434 28.1893C53.3304 28.1375 53.1233 28.0857 52.9162 28.0339C52.7091 27.9821 52.4502 27.9821 52.1396 27.9821C51.9842 27.9821 51.7771 27.9821 51.6218 28.0339C51.4147 28.0857 51.3111 28.0857 51.2076 28.1375V33.4749H49.6543V27.1011C49.965 26.9975 50.3274 26.8939 50.7416 26.7902C51.2076 26.6866 51.6736 26.6348 52.2431 26.6348C52.3467 26.6348 52.4502 26.6348 52.6056 26.6348C52.7609 26.6348 52.8644 26.6866 53.0198 26.6866C53.1751 26.6866 53.2787 26.7384 53.434 26.7384C53.5375 26.7902 53.6411 26.7902 53.7447 26.842L53.434 28.1893Z" fill="#23282F"/>
<path d="M60.684 29.9514C60.684 30.4696 60.6322 30.936 60.4769 31.4024C60.3215 31.8169 60.1144 32.1797 59.8038 32.4906C59.5449 32.8015 59.1825 33.0088 58.7682 33.216C58.354 33.3715 57.9398 33.4751 57.4738 33.4751C57.0078 33.4751 56.5418 33.3715 56.1794 33.216C55.7652 33.0606 55.4545 32.8015 55.1957 32.4906C54.9368 32.1797 54.6779 31.8169 54.5226 31.4024C54.3672 30.9878 54.2637 30.4696 54.2637 29.9514C54.2637 29.4332 54.3672 28.9669 54.5226 28.5005C54.6779 28.0859 54.885 27.7232 55.1957 27.4123C55.4545 27.1014 55.817 26.8941 56.2312 26.6868C56.6454 26.5314 57.0596 26.4277 57.5256 26.4277C57.9916 26.4277 58.4058 26.5314 58.82 26.6868C59.2342 26.8423 59.5449 27.1014 59.8556 27.4123C60.1144 27.7232 60.3733 28.0859 60.5287 28.5005C60.6322 28.9669 60.684 29.4332 60.684 29.9514ZM59.1307 29.9514C59.1307 29.2778 58.9754 28.7596 58.7165 28.3969C58.4576 28.0341 58.0434 27.8269 57.5256 27.8269C57.0078 27.8269 56.6454 28.0341 56.3347 28.3969C56.0759 28.7596 55.9205 29.3296 55.9205 29.9514C55.9205 30.6251 56.0759 31.1433 56.3347 31.5578C56.5936 31.9724 57.0078 32.1278 57.5256 32.1278C58.0434 32.1278 58.4058 31.9206 58.7165 31.5578C58.9754 31.1433 59.1307 30.6251 59.1307 29.9514Z" fill="#23282F"/>
<path d="M68.1907 30.1584C68.1907 30.6766 68.1389 31.143 67.9836 31.5575C67.8282 31.9721 67.6729 32.3348 67.414 32.6457C67.1551 32.9566 66.8445 33.1639 66.482 33.3712C66.1196 33.5267 65.7054 33.6303 65.2394 33.6303C64.9288 33.6303 64.6181 33.5785 64.3592 33.5267C64.1003 33.4748 63.8932 33.3712 63.6861 33.2676V35.8585H62.1328V27.0493C62.4435 26.9456 62.8059 26.8938 63.2719 26.7902C63.7379 26.7383 64.2039 26.6865 64.7216 26.6865C65.2394 26.6865 65.7054 26.7902 66.1196 26.9456C66.5338 27.1011 66.8963 27.3602 67.1551 27.6193C67.4658 27.9302 67.6729 28.2929 67.8282 28.7075C68.0871 29.122 68.1907 29.5884 68.1907 30.1584ZM66.6374 30.1584C66.6374 29.4848 66.4821 28.9147 66.1714 28.552C65.8607 28.1893 65.343 27.982 64.6699 27.982C64.5145 27.982 64.3592 27.982 64.2039 27.982C64.0485 27.982 63.8932 28.0338 63.7379 28.0856V31.8684C63.8932 31.9721 64.0485 32.0239 64.2557 32.1275C64.4628 32.2312 64.7216 32.2312 64.9805 32.2312C65.5501 32.2312 65.9643 32.0239 66.2232 31.6612C66.4821 31.2984 66.6374 30.8321 66.6374 30.1584Z" fill="#23282F"/>
<path d="M69.3301 30.0032C69.3301 29.4332 69.4336 28.915 69.589 28.4486C69.7443 27.9823 70.0032 27.6195 70.2621 27.3604C70.5727 27.0495 70.8834 26.8422 71.2458 26.6868C71.6083 26.5313 72.0225 26.4795 72.3849 26.4795C73.3169 26.4795 73.99 26.7386 74.5078 27.3086C75.0255 27.8786 75.2844 28.7077 75.2844 29.8477C75.2844 29.9514 75.2844 30.0032 75.2844 30.1587C75.2844 30.2623 75.2844 30.3659 75.2844 30.4696H70.9352C70.9869 30.9878 71.1423 31.4023 71.5047 31.7132C71.8154 32.0241 72.3331 32.1278 72.9544 32.1278C73.3169 32.1278 73.6793 32.076 73.99 32.0241C74.3006 31.9723 74.5595 31.8687 74.7149 31.8169L74.922 33.0605C74.8184 33.1123 74.7149 33.1642 74.5595 33.216C74.4042 33.2678 74.2489 33.3196 74.0418 33.3196C73.8347 33.3714 73.6276 33.3714 73.4204 33.4233C73.2133 33.4233 72.9545 33.4751 72.7473 33.4751C72.1778 33.4751 71.66 33.3714 71.2458 33.216C70.8316 33.0605 70.4692 32.8014 70.1585 32.4905C69.8996 32.1796 69.6925 31.8169 69.5372 31.4023C69.3819 30.9878 69.3301 30.5214 69.3301 30.0032ZM73.7829 29.3295C73.7829 29.1223 73.7311 28.915 73.6793 28.7077C73.6276 28.5004 73.524 28.345 73.4204 28.1895C73.3169 28.0341 73.1616 27.9304 73.0062 27.8786C72.8509 27.775 72.6438 27.775 72.4367 27.775C72.1778 27.775 71.9707 27.8268 71.8154 27.9304C71.66 28.0341 71.5047 28.1377 71.3494 28.2932C71.2458 28.4486 71.1423 28.6041 71.0387 28.8114C70.9869 29.0186 70.9352 29.1741 70.8834 29.3814H73.7829V29.3295Z" fill="#23282F"/>
<path d="M76.0092 35.8071C75.9056 35.8071 75.7503 35.8071 75.5432 35.7553C75.3361 35.7553 75.1807 35.7034 75.0254 35.6516L75.2325 34.408C75.4396 34.4598 75.6467 34.5116 75.9056 34.5116C76.268 34.5116 76.5269 34.408 76.6305 34.2007C76.7858 33.9934 76.8376 33.6825 76.8376 33.2679V26.7905H78.3909V33.2679C78.3909 34.1489 78.1838 34.7707 77.7696 35.1852C77.4071 35.5998 76.7858 35.8071 76.0092 35.8071ZM78.598 24.8732C78.598 25.1842 78.4944 25.3914 78.3391 25.5469C78.132 25.7023 77.9249 25.806 77.666 25.806C77.4071 25.806 77.2 25.7023 76.9929 25.5469C76.7858 25.3914 76.734 25.1323 76.734 24.8732C76.734 24.5623 76.8376 24.355 76.9929 24.1478C77.2 23.9923 77.4071 23.8887 77.666 23.8887C77.9249 23.8887 78.132 23.9923 78.3391 24.1478C78.4944 24.3032 78.598 24.5623 78.598 24.8732Z" fill="#23282F"/>
<path d="M81.9628 32.1797C82.377 32.1797 82.6876 32.1278 82.843 32.0242C83.0501 31.9206 83.1018 31.7651 83.1018 31.506C83.1018 31.2987 82.9983 31.0915 82.7912 30.936C82.5841 30.7805 82.2734 30.6251 81.8074 30.4696C81.5485 30.366 81.2897 30.2624 81.0308 30.1587C80.7719 30.0551 80.6166 29.8996 80.4095 29.7442C80.2541 29.5887 80.0988 29.3814 79.9952 29.1741C79.8917 28.9669 79.8399 28.7078 79.8399 28.3969C79.8399 27.775 80.047 27.3087 80.513 26.9459C80.979 26.5832 81.5485 26.4277 82.3252 26.4277C82.7394 26.4277 83.1018 26.4796 83.4643 26.5314C83.8267 26.5832 84.0856 26.6868 84.2409 26.7386L83.982 27.9823C83.8267 27.9305 83.6196 27.8269 83.3089 27.775C83.0501 27.7232 82.7394 27.6714 82.377 27.6714C82.0663 27.6714 81.8074 27.7232 81.6003 27.8269C81.3932 27.9305 81.2897 28.0859 81.2897 28.2932C81.2897 28.3969 81.2897 28.5005 81.3414 28.6041C81.3932 28.7078 81.445 28.7596 81.5485 28.8632C81.6521 28.9151 81.7556 29.0187 81.911 29.0705C82.0663 29.1223 82.2734 29.226 82.4805 29.2778C82.843 29.4332 83.1536 29.5369 83.4125 29.6923C83.6714 29.8478 83.8785 29.9514 84.0338 30.1587C84.1891 30.3142 84.3445 30.5214 84.3963 30.7287C84.448 30.936 84.4998 31.1951 84.4998 31.506C84.4998 32.1278 84.2409 32.646 83.7749 32.9569C83.3089 33.2679 82.6358 33.4233 81.7556 33.4233C81.1861 33.4233 80.7201 33.3715 80.3577 33.2679C79.9952 33.1642 79.7364 33.1124 79.6328 33.0088L79.8917 31.7133C80.0988 31.8169 80.4095 31.9206 80.7201 31.9724C81.1861 32.1797 81.5485 32.1797 81.9628 32.1797Z" fill="#23282F"/>
<path d="M87.5543 29.3814C87.7614 29.1741 87.9685 28.9668 88.1756 28.7077C88.3827 28.4486 88.5898 28.2414 88.8487 27.9823C89.0558 27.775 89.2629 27.5159 89.47 27.3086C89.6771 27.1013 89.8324 26.8941 89.936 26.7386H91.7482C91.3339 27.205 90.868 27.7232 90.402 28.1895C89.936 28.7077 89.47 29.1741 89.004 29.6923C89.2629 29.8996 89.5218 30.1587 89.7806 30.4696C90.0395 30.7805 90.3502 31.0914 90.6091 31.4542C90.868 31.8169 91.1268 32.1278 91.3339 32.4905C91.541 32.8533 91.7482 33.1642 91.9035 33.4233H90.1431C89.9878 33.1642 89.8324 32.9051 89.6253 32.5942C89.4182 32.2833 89.2111 32.0242 89.004 31.7651C88.7969 31.506 88.538 31.2469 88.3309 30.9878C88.072 30.7287 87.8649 30.5214 87.606 30.3659V33.4233H86.0527V23.8367L87.606 23.5776V29.3814H87.5543Z" fill="#23282F"/>
<path d="M94.6999 24.8732C94.6999 25.1842 94.5963 25.3914 94.441 25.5469C94.2339 25.7023 94.0268 25.806 93.7679 25.806C93.509 25.806 93.3019 25.7023 93.0948 25.5469C92.8877 25.3914 92.8359 25.1323 92.8359 24.8732C92.8359 24.5623 92.9395 24.355 93.0948 24.1478C93.3019 23.9923 93.509 23.8887 93.7679 23.8887C94.0268 23.8887 94.2339 23.9923 94.441 24.1478C94.5963 24.3032 94.6999 24.5623 94.6999 24.8732ZM94.4928 33.4752H92.9395V26.7905H94.4928V33.4752Z" fill="#23282F"/>
<path d="M96.0469 30.0032C96.0469 29.4332 96.1504 28.915 96.3058 28.4486C96.4611 27.9823 96.72 27.6195 96.9789 27.3604C97.2895 27.0495 97.6002 26.8422 97.9626 26.6868C98.325 26.5313 98.7393 26.4795 99.1017 26.4795C100.034 26.4795 100.707 26.7386 101.225 27.3086C101.742 27.8786 102.001 28.7077 102.001 29.8477C102.001 29.9514 102.001 30.0032 102.001 30.1587C102.001 30.2623 102.001 30.3659 102.001 30.4696H97.6002C97.652 30.9878 97.8073 31.4023 98.1697 31.7132C98.4804 32.0241 98.9981 32.1278 99.6195 32.1278C99.9819 32.1278 100.344 32.076 100.655 32.0241C100.966 31.9723 101.225 31.8687 101.38 31.8169L101.587 33.0605C101.483 33.1123 101.38 33.1642 101.225 33.216C101.069 33.2678 100.914 33.3196 100.707 33.3196C100.5 33.3714 100.293 33.3714 100.085 33.4233C99.8783 33.4233 99.6195 33.4751 99.4124 33.4751C98.8428 33.4751 98.3251 33.3714 97.9108 33.216C97.4966 33.0605 97.1342 32.8014 96.8235 32.4905C96.5646 32.1796 96.3575 31.8169 96.2022 31.4023C96.0987 30.9878 96.0469 30.5214 96.0469 30.0032ZM100.5 29.3295C100.5 29.1223 100.448 28.915 100.396 28.7077C100.344 28.5004 100.241 28.345 100.137 28.1895C100.034 28.0341 99.8784 27.9304 99.723 27.8786C99.5677 27.775 99.3606 27.775 99.1535 27.775C98.8946 27.775 98.6875 27.8268 98.5322 27.9304C98.3768 28.0341 98.2215 28.1377 98.0662 28.2932C97.9626 28.4486 97.8591 28.6041 97.7555 28.8114C97.7037 29.0186 97.652 29.1741 97.6002 29.3814H100.5V29.3295Z" fill="#23282F"/>
<path d="M21.2802 19.0176C21.9015 18.914 22.6782 18.4994 23.5066 17.9813V0L0 7.35832V24.9768C1.19086 25.2878 2.48528 25.4432 3.36548 24.925C5.28122 23.785 8.12893 20.3131 8.12893 20.3131C8.12893 20.3131 6.62741 24.0441 7.19695 25.4432C7.81827 26.8942 11.3909 26.9978 11.3909 26.9978C11.3909 26.9978 7.35228 29.4851 5.43655 31.0915C3.52081 32.7497 2.17462 38.8644 2.17462 38.8644C2.17462 38.8644 1.19086 34.9261 0 34.1488V42.6472L23.5066 47.0518V26.6351C22.9888 26.7905 22.4711 26.946 22.0569 27.1014C19.9858 27.9305 17.7594 34.1488 17.7594 34.1488C17.7594 34.1488 17.6558 29.0187 16.7239 27.516C15.8437 26.1169 11.3909 26.946 11.3909 26.946C11.3909 26.946 15.4294 24.355 16.6721 22.2822C17.8629 20.3131 17.397 17.1521 17.397 17.1521C17.397 17.1521 19.4162 19.3804 21.2802 19.0176ZM13.203 16.5821C11.7533 16.8412 8.12893 20.3649 8.12893 20.3649C8.12893 20.3649 10.4071 16.7894 10.2518 15.5458C10.0964 14.3539 7.7665 13.8875 7.7665 13.8875C7.7665 13.8875 10.8731 13.1103 12.1675 11.9184C13.4619 10.7266 14.601 8.34289 14.601 8.34289C14.601 8.34289 14.9117 10.3638 16.0508 10.6229C17.2416 10.9338 20.4 9.63837 20.4 9.63837C20.4 9.63837 17.9147 12.0221 16.931 13.3175C15.8954 14.6648 17.3452 17.2558 17.3452 17.2558C17.3452 17.2558 14.7046 16.2712 13.203 16.5821Z" fill="#23282F"/>
</g>
<defs>
<clipPath id="clip0">
<rect width="102" height="47" fill="white"/>
</clipPath>
</defs>
</svg>
