<svg width="173" height="61" viewBox="0 0 173 61" fill="none" xmlns="http://www.w3.org/2000/svg">
<rect x="0.507325" y="0.507325" width="171.476" height="59.8644" rx="6.3923" fill="black" stroke="#7A7A7A" stroke-width="1.01465"/>
<path d="M61.0554 24.2175C61.0554 24.5421 60.9775 24.8441 60.8216 25.1233C60.6658 25.4026 60.4287 25.6299 60.1106 25.8052C59.7924 25.9805 59.3995 26.0682 58.9319 26.0682C58.4774 26.0682 58.0715 25.987 57.7144 25.8247C57.3637 25.6558 57.0812 25.4285 56.8669 25.1428C56.6591 24.8506 56.539 24.5194 56.5065 24.1493H57.4514C57.4708 24.3441 57.5358 24.5357 57.6462 24.724C57.7631 24.9058 57.9254 25.0584 58.1332 25.1818C58.3475 25.2987 58.604 25.3571 58.9027 25.3571C59.2923 25.3571 59.5911 25.2532 59.7989 25.0454C60.0067 24.8376 60.1106 24.5714 60.1106 24.2467C60.1106 23.9675 60.0359 23.7402 59.8865 23.5648C59.7437 23.3895 59.5651 23.2531 59.3508 23.1557C59.1365 23.0518 58.8443 22.9414 58.4741 22.8245C58.039 22.6817 57.6884 22.5486 57.4221 22.4252C57.1624 22.2953 56.9383 22.1037 56.75 21.8505C56.5682 21.5972 56.4773 21.2628 56.4773 20.8472C56.4773 20.49 56.5617 20.1751 56.7305 19.9024C56.9059 19.6296 57.1526 19.4186 57.4708 19.2692C57.7955 19.1199 58.1754 19.0452 58.6105 19.0452C59.2858 19.0452 59.8216 19.2108 60.2177 19.542C60.6138 19.8666 60.8443 20.2822 60.9093 20.7888H59.9547C59.9028 20.516 59.7631 20.2757 59.5359 20.0679C59.3086 19.8601 59.0001 19.7562 58.6105 19.7562C58.2533 19.7562 57.9676 19.8504 57.7533 20.0387C57.539 20.2205 57.4319 20.4803 57.4319 20.818C57.4319 21.0842 57.5001 21.3018 57.6364 21.4706C57.7793 21.6329 57.9546 21.7628 58.1624 21.8602C58.3702 21.9511 58.6559 22.055 59.0196 22.1719C59.4612 22.3148 59.8151 22.4512 60.0813 22.581C60.3541 22.7109 60.5846 22.909 60.7729 23.1752C60.9612 23.435 61.0554 23.7824 61.0554 24.2175ZM63.5622 21.568L62.8025 21.8894V26H61.9063V22.2596L61.1466 22.581V21.7141L61.9063 21.3927V18.7919H62.8025V21.0225L63.5622 20.7011V21.568ZM68.633 20.6524V26H67.7466V24.7435C67.6102 25.1785 67.3667 25.513 67.0161 25.7467C66.6719 25.974 66.2693 26.0877 65.8082 26.0877C65.1913 26.0877 64.6913 25.8896 64.3082 25.4935C63.925 25.0909 63.7335 24.5162 63.7335 23.7694V20.6524H64.6199V23.6817C64.6199 24.2142 64.7562 24.6266 65.029 24.9188C65.3017 25.2045 65.6719 25.3474 66.1394 25.3474C66.6264 25.3474 67.0161 25.1915 67.3083 24.8798C67.6005 24.5616 67.7466 24.1006 67.7466 23.4967V20.6524H68.633ZM71.933 20.5842C72.6149 20.5842 73.1798 20.766 73.6279 21.1297C74.076 21.4933 74.352 21.9804 74.4559 22.5908H73.5208C73.4558 22.2076 73.2772 21.9089 72.985 21.6946C72.6993 21.4738 72.3421 21.3635 71.9136 21.3635C71.6019 21.3635 71.3161 21.4349 71.0564 21.5777C70.8031 21.7206 70.5986 21.9414 70.4427 22.2401C70.2869 22.5323 70.2089 22.896 70.2089 23.3311C70.2089 23.7661 70.2869 24.133 70.4427 24.4318C70.5986 24.724 70.8031 24.9415 71.0564 25.0844C71.3161 25.2272 71.6019 25.2987 71.9136 25.2987C72.3421 25.2987 72.6993 25.1883 72.985 24.9675C73.2772 24.7467 73.4558 24.4447 73.5208 24.0616H74.4559C74.352 24.6785 74.076 25.1688 73.6279 25.5324C73.1798 25.8896 72.6149 26.0682 71.933 26.0682C71.42 26.0682 70.9655 25.9578 70.5693 25.737C70.1732 25.5162 69.8615 25.2013 69.6342 24.7922C69.4135 24.3766 69.3031 23.8895 69.3031 23.3311C69.3031 22.7726 69.4135 22.2856 69.6342 21.87C69.8615 21.4544 70.1732 21.1362 70.5693 20.9154C70.9655 20.6946 71.42 20.5842 71.933 20.5842ZM77.9439 20.5647C78.5673 20.5647 79.0706 20.766 79.4537 21.1686C79.8369 21.5648 80.0284 22.1395 80.0284 22.8927V26H79.142V22.9707C79.142 22.4382 79.0057 22.0291 78.7329 21.7433C78.4602 21.4576 78.09 21.3147 77.6225 21.3147C77.1355 21.3147 76.7458 21.4738 76.4536 21.792C76.1614 22.1037 76.0153 22.5616 76.0153 23.1655V26H75.1289V18.7919H76.0153V21.9187C76.1516 21.4836 76.3919 21.1492 76.7361 20.9154C77.0868 20.6816 77.4894 20.5647 77.9439 20.5647ZM83.0926 20.5842C83.6121 20.5842 84.0505 20.7141 84.4076 20.9738C84.7713 21.2336 85.0245 21.581 85.1674 22.0161V20.6524H86.0538V26H85.1674V24.6363C85.0245 25.0714 84.7713 25.4188 84.4076 25.6786C84.0505 25.9383 83.6121 26.0682 83.0926 26.0682C82.6186 26.0682 82.1965 25.9578 81.8263 25.737C81.4562 25.5162 81.164 25.2013 80.9497 24.7922C80.7419 24.3766 80.638 23.8895 80.638 23.3311C80.638 22.7726 80.7419 22.2856 80.9497 21.87C81.164 21.4544 81.4562 21.1362 81.8263 20.9154C82.1965 20.6946 82.6186 20.5842 83.0926 20.5842ZM83.3459 21.3732C82.8004 21.3732 82.3621 21.5485 82.0309 21.8992C81.7062 22.2434 81.5439 22.7206 81.5439 23.3311C81.5439 23.9415 81.7062 24.422 82.0309 24.7727C82.3621 25.1168 82.8004 25.2889 83.3459 25.2889C83.6965 25.2889 84.0082 25.2078 84.281 25.0454C84.5602 24.8831 84.7778 24.6558 84.9336 24.3636C85.0895 24.0649 85.1674 23.7207 85.1674 23.3311C85.1674 22.9414 85.0895 22.5973 84.9336 22.2986C84.7778 21.9998 84.5602 21.7726 84.281 21.6167C84.0082 21.4544 83.6965 21.3732 83.3459 21.3732ZM87.484 19.6296C87.3022 19.6296 87.1528 19.5809 87.0359 19.4835C86.9255 19.3796 86.8703 19.2465 86.8703 19.0841C86.8703 18.9218 86.9255 18.7919 87.0359 18.6945C87.1528 18.5906 87.3022 18.5387 87.484 18.5387C87.6593 18.5387 87.8022 18.5906 87.9126 18.6945C88.023 18.7919 88.0782 18.9218 88.0782 19.0841C88.0782 19.2465 88.023 19.3796 87.9126 19.4835C87.8022 19.5809 87.6593 19.6296 87.484 19.6296ZM85.9937 27.7533H86.3638C86.5976 27.7533 86.7664 27.7014 86.8703 27.5975C86.9807 27.4936 87.0359 27.315 87.0359 27.0617V20.6524H87.932V27.091C87.932 28.052 87.445 28.5326 86.471 28.5326H85.9937V27.7533ZM93.5936 20.5647C94.2171 20.5647 94.7203 20.766 95.1035 21.1686C95.4866 21.5648 95.6781 22.1395 95.6781 22.8927V26H94.7917V22.9707C94.7917 22.4382 94.6554 22.0291 94.3826 21.7433C94.1099 21.4576 93.7398 21.3147 93.2722 21.3147C92.7852 21.3147 92.3956 21.4738 92.1033 21.792C91.8111 22.1037 91.665 22.5616 91.665 23.1655V26H90.7786V20.6524H91.665V21.9187C91.8014 21.4836 92.0416 21.1492 92.3858 20.9154C92.7365 20.6816 93.1391 20.5647 93.5936 20.5647ZM98.7423 20.5842C99.2618 20.5842 99.7002 20.7141 100.057 20.9738C100.421 21.2336 100.674 21.581 100.817 22.0161V20.6524H101.703V26H100.817V24.6363C100.674 25.0714 100.421 25.4188 100.057 25.6786C99.7002 25.9383 99.2618 26.0682 98.7423 26.0682C98.2683 26.0682 97.8462 25.9578 97.4761 25.737C97.1059 25.5162 96.8137 25.2013 96.5994 24.7922C96.3916 24.3766 96.2877 23.8895 96.2877 23.3311C96.2877 22.7726 96.3916 22.2856 96.5994 21.87C96.8137 21.4544 97.1059 21.1362 97.4761 20.9154C97.8462 20.6946 98.2683 20.5842 98.7423 20.5842ZM98.9956 21.3732C98.4501 21.3732 98.0118 21.5485 97.6806 21.8992C97.3559 22.2434 97.1936 22.7206 97.1936 23.3311C97.1936 23.9415 97.3559 24.422 97.6806 24.7727C98.0118 25.1168 98.4501 25.2889 98.9956 25.2889C99.3463 25.2889 99.658 25.2078 99.9307 25.0454C100.21 24.8831 100.427 24.6558 100.583 24.3636C100.739 24.0649 100.817 23.7207 100.817 23.3311C100.817 22.9414 100.739 22.5973 100.583 22.2986C100.427 21.9998 100.21 21.7726 99.9307 21.6167C99.658 21.4544 99.3463 21.3732 98.9956 21.3732Z" fill="white"/>
<path d="M61.7275 32.3841C62.9548 32.3841 63.9776 32.6861 64.7958 33.29C65.614 33.8939 66.1546 34.717 66.4176 35.7592H64.6643C64.4403 35.204 64.0701 34.7608 63.5539 34.4296C63.0474 34.0985 62.4434 33.9329 61.7421 33.9329C61.0992 33.9329 60.5197 34.0838 60.0034 34.3858C59.4969 34.6878 59.0975 35.1163 58.8053 35.6716C58.5228 36.2268 58.3816 36.8794 58.3816 37.6294C58.3816 38.4184 58.5277 39.0954 58.8199 39.6604C59.1121 40.2253 59.5212 40.6588 60.0472 40.9607C60.583 41.253 61.2015 41.3991 61.9028 41.3991C62.76 41.3991 63.4954 41.1361 64.1091 40.6101C64.7227 40.0743 65.0929 39.3438 65.2195 38.4184H61.4353V37.1911H66.6222V38.7837C66.5053 39.5435 66.2326 40.2351 65.804 40.8585C65.3851 41.4721 64.825 41.964 64.1237 42.3342C63.4321 42.7043 62.6383 42.8894 61.7421 42.8894C60.7388 42.8894 59.8524 42.6654 59.0829 42.2173C58.3134 41.7692 57.7192 41.1507 57.3004 40.3617C56.8815 39.563 56.6721 38.6522 56.6721 37.6294C56.6721 36.6067 56.8815 35.7008 57.3004 34.9118C57.7192 34.1131 58.3085 33.4945 59.0683 33.0562C59.8378 32.6081 60.7242 32.3841 61.7275 32.3841ZM71.2602 34.6342C72.0395 34.6342 72.7408 34.7998 73.3642 35.131C73.9876 35.4621 74.4747 35.9394 74.8253 36.5628C75.176 37.1862 75.3513 37.9168 75.3513 38.7545C75.3513 39.6019 75.176 40.3373 74.8253 40.9607C74.4747 41.5841 73.9876 42.0614 73.3642 42.3926C72.7408 42.7238 72.0395 42.8894 71.2602 42.8894C70.481 42.8894 69.7797 42.7238 69.1563 42.3926C68.5426 42.0614 68.0556 41.5841 67.6952 40.9607C67.3445 40.3276 67.1692 39.5922 67.1692 38.7545C67.1692 37.9168 67.3445 37.1862 67.6952 36.5628C68.0556 35.9394 68.5426 35.4621 69.1563 35.131C69.7797 34.7998 70.481 34.6342 71.2602 34.6342ZM71.2602 36.0807C70.8317 36.0807 70.4372 36.1781 70.0768 36.3729C69.7164 36.5677 69.4241 36.8697 69.2001 37.2788C68.9858 37.6781 68.8787 38.17 68.8787 38.7545C68.8787 39.3487 68.9858 39.8454 69.2001 40.2448C69.4241 40.6442 69.7164 40.9413 70.0768 41.1361C70.4372 41.3309 70.8317 41.4283 71.2602 41.4283C71.6888 41.4283 72.0833 41.3309 72.4437 41.1361C72.8041 40.9413 73.0915 40.6442 73.3058 40.2448C73.5298 39.8454 73.6418 39.3487 73.6418 38.7545C73.6418 38.17 73.5298 37.6781 73.3058 37.2788C73.0915 36.8697 72.8041 36.5677 72.4437 36.3729C72.0833 36.1781 71.6888 36.0807 71.2602 36.0807ZM79.9041 34.6342C80.6834 34.6342 81.3847 34.7998 82.0081 35.131C82.6315 35.4621 83.1185 35.9394 83.4692 36.5628C83.8199 37.1862 83.9952 37.9168 83.9952 38.7545C83.9952 39.6019 83.8199 40.3373 83.4692 40.9607C83.1185 41.5841 82.6315 42.0614 82.0081 42.3926C81.3847 42.7238 80.6834 42.8894 79.9041 42.8894C79.1249 42.8894 78.4235 42.7238 77.8001 42.3926C77.1865 42.0614 76.6994 41.5841 76.339 40.9607C75.9884 40.3276 75.813 39.5922 75.813 38.7545C75.813 37.9168 75.9884 37.1862 76.339 36.5628C76.6994 35.9394 77.1865 35.4621 77.8001 35.131C78.4235 34.7998 79.1249 34.6342 79.9041 34.6342ZM79.9041 36.0807C79.4755 36.0807 79.081 36.1781 78.7206 36.3729C78.3602 36.5677 78.068 36.8697 77.844 37.2788C77.6297 37.6781 77.5225 38.17 77.5225 38.7545C77.5225 39.3487 77.6297 39.8454 77.844 40.2448C78.068 40.6442 78.3602 40.9413 78.7206 41.1361C79.081 41.3309 79.4755 41.4283 79.9041 41.4283C80.3327 41.4283 80.7272 41.3309 81.0876 41.1361C81.448 40.9413 81.7354 40.6442 81.9497 40.2448C82.1737 39.8454 82.2857 39.3487 82.2857 38.7545C82.2857 38.17 82.1737 37.6781 81.9497 37.2788C81.7354 36.8697 81.448 36.5677 81.0876 36.3729C80.7272 36.1781 80.3327 36.0807 79.9041 36.0807ZM88.0951 34.6342C88.8256 34.6342 89.449 34.8144 89.9653 35.1748C90.4815 35.5352 90.8468 36.0125 91.0611 36.6067V34.7365H92.7267V42.8748C92.7267 43.6248 92.5709 44.2872 92.2592 44.8619C91.9572 45.4463 91.5189 45.9041 90.9442 46.2353C90.3695 46.5665 89.6876 46.7321 88.8987 46.7321C87.7687 46.7321 86.8531 46.4642 86.1518 45.9285C85.4602 45.3927 85.0267 44.6671 84.8514 43.7514H86.5025C86.6388 44.2287 86.9018 44.5989 87.2914 44.8619C87.6811 45.1346 88.1778 45.271 88.7818 45.271C89.4441 45.271 89.9896 45.0664 90.4182 44.6573C90.8468 44.2482 91.0611 43.654 91.0611 42.8748V40.9169C90.8468 41.5111 90.4815 41.9884 89.9653 42.3488C89.449 42.7092 88.8256 42.8894 88.0951 42.8894C87.3937 42.8894 86.7655 42.7238 86.2102 42.3926C85.6648 42.0614 85.2362 41.5841 84.9245 40.9607C84.6128 40.3373 84.4569 39.6019 84.4569 38.7545C84.4569 37.9168 84.6128 37.1862 84.9245 36.5628C85.2362 35.9394 85.6648 35.4621 86.2102 35.131C86.7655 34.7998 87.3937 34.6342 88.0951 34.6342ZM88.6064 36.0953C87.8661 36.0953 87.272 36.3339 86.8239 36.8112C86.3856 37.2788 86.1664 37.9265 86.1664 38.7545C86.1664 39.5824 86.3856 40.2351 86.8239 40.7124C87.272 41.1799 87.8661 41.4137 88.6064 41.4137C89.074 41.4137 89.4928 41.3065 89.863 41.0922C90.2331 40.8682 90.5253 40.5565 90.7396 40.1571C90.9539 39.7578 91.0611 39.2902 91.0611 38.7545C91.0611 38.2285 90.9539 37.7658 90.7396 37.3664C90.5253 36.9573 90.2331 36.6456 89.863 36.4313C89.4928 36.2073 89.074 36.0953 88.6064 36.0953ZM95.6607 31.975V42.7871H93.995V31.975H95.6607ZM104.427 38.3746C104.427 38.6473 104.407 38.886 104.368 39.0905H98.1731C98.2023 39.9185 98.4312 40.5321 98.8598 40.9315C99.2884 41.3309 99.8193 41.5306 100.452 41.5306C101.008 41.5306 101.475 41.3893 101.855 41.1068C102.245 40.8244 102.483 40.4494 102.571 39.9818H104.354C104.246 40.5468 104.022 41.0484 103.681 41.4867C103.34 41.9251 102.897 42.2709 102.352 42.5241C101.806 42.7676 101.198 42.8894 100.525 42.8894C99.7462 42.8894 99.0546 42.7238 98.4507 42.3926C97.8565 42.0614 97.389 41.5841 97.048 40.9607C96.7071 40.3373 96.5367 39.6019 96.5367 38.7545C96.5367 37.9168 96.7071 37.1862 97.048 36.5628C97.389 35.9394 97.8565 35.4621 98.4507 35.131C99.0546 34.7998 99.7462 34.6342 100.525 34.6342C101.314 34.6342 102.001 34.7998 102.586 35.131C103.18 35.4524 103.633 35.9005 103.944 36.4752C104.266 37.0401 104.427 37.6733 104.427 38.3746ZM102.746 38.3308C102.766 37.8048 102.673 37.3664 102.469 37.0158C102.274 36.6554 102.001 36.3924 101.65 36.2268C101.31 36.0515 100.935 35.9638 100.525 35.9638C99.8728 35.9638 99.3273 36.1635 98.889 36.5628C98.4507 36.9622 98.212 37.5515 98.1731 38.3308H102.746ZM109.664 38.7837V42.7871H107.998V32.4718H111.505C112.693 32.4718 113.584 32.7542 114.179 33.3192C114.783 33.8842 115.084 34.6585 115.084 35.6423C115.084 36.6164 114.778 37.3859 114.164 37.9509C113.55 38.5061 112.664 38.7837 111.505 38.7837H109.664ZM111.329 37.4249C112.703 37.4249 113.39 36.8307 113.39 35.6423C113.39 35.0579 113.224 34.6147 112.893 34.3127C112.571 34.001 112.05 33.8452 111.329 33.8452H109.664V37.4249H111.329ZM119.496 34.6342C120.276 34.6342 120.977 34.7998 121.6 35.131C122.224 35.4621 122.711 35.9394 123.061 36.5628C123.412 37.1862 123.587 37.9168 123.587 38.7545C123.587 39.6019 123.412 40.3373 123.061 40.9607C122.711 41.5841 122.224 42.0614 121.6 42.3926C120.977 42.7238 120.276 42.8894 119.496 42.8894C118.717 42.8894 118.016 42.7238 117.392 42.3926C116.779 42.0614 116.292 41.5841 115.931 40.9607C115.581 40.3276 115.405 39.5922 115.405 38.7545C115.405 37.9168 115.581 37.1862 115.931 36.5628C116.292 35.9394 116.779 35.4621 117.392 35.131C118.016 34.7998 118.717 34.6342 119.496 34.6342ZM119.496 36.0807C119.068 36.0807 118.673 36.1781 118.313 36.3729C117.953 36.5677 117.66 36.8697 117.436 37.2788C117.222 37.6781 117.115 38.17 117.115 38.7545C117.115 39.3487 117.222 39.8454 117.436 40.2448C117.66 40.6442 117.953 40.9413 118.313 41.1361C118.673 41.3309 119.068 41.4283 119.496 41.4283C119.925 41.4283 120.32 41.3309 120.68 41.1361C121.04 40.9413 121.328 40.6442 121.542 40.2448C121.766 39.8454 121.878 39.3487 121.878 38.7545C121.878 38.17 121.766 37.6781 121.542 37.2788C121.328 36.8697 121.04 36.5677 120.68 36.3729C120.32 36.1781 119.925 36.0807 119.496 36.0807ZM127.687 34.6342C128.418 34.6342 129.041 34.8144 129.558 35.1748C130.074 35.5352 130.434 36.0125 130.639 36.6067V31.975H132.319V42.7871H130.639V40.9169C130.434 41.5111 130.074 41.9884 129.558 42.3488C129.041 42.7092 128.418 42.8894 127.687 42.8894C126.986 42.8894 126.358 42.7238 125.803 42.3926C125.257 42.0614 124.828 41.5841 124.517 40.9607C124.205 40.3373 124.049 39.6019 124.049 38.7545C124.049 37.9168 124.205 37.1862 124.517 36.5628C124.828 35.9394 125.257 35.4621 125.803 35.131C126.358 34.7998 126.986 34.6342 127.687 34.6342ZM128.199 36.0953C127.458 36.0953 126.864 36.3339 126.416 36.8112C125.978 37.2788 125.759 37.9265 125.759 38.7545C125.759 39.5824 125.978 40.2351 126.416 40.7124C126.864 41.1799 127.458 41.4137 128.199 41.4137C128.666 41.4137 129.085 41.3065 129.455 41.0922C129.825 40.8682 130.118 40.5565 130.332 40.1571C130.546 39.7578 130.653 39.2902 130.653 38.7545C130.653 38.2285 130.546 37.7658 130.332 37.3664C130.118 36.9573 129.825 36.6456 129.455 36.4313C129.085 36.2073 128.666 36.0953 128.199 36.0953ZM137.167 34.6342C138.209 34.6342 139.071 34.9118 139.753 35.467C140.435 36.0125 140.859 36.7576 141.024 37.7025H139.256C139.159 37.196 138.92 36.8015 138.54 36.519C138.17 36.2268 137.703 36.0807 137.138 36.0807C136.495 36.0807 135.959 36.3096 135.531 36.7674C135.102 37.2155 134.888 37.8778 134.888 38.7545C134.888 39.6311 135.102 40.2984 135.531 40.7562C135.959 41.214 136.495 41.4429 137.138 41.4429C137.703 41.4429 138.17 41.2968 138.54 41.0046C138.92 40.7124 139.159 40.313 139.256 39.8065H141.024C140.859 40.7513 140.435 41.5013 139.753 42.0566C139.071 42.6118 138.209 42.8894 137.167 42.8894C136.388 42.8894 135.696 42.7238 135.092 42.3926C134.498 42.0614 134.031 41.5841 133.69 40.9607C133.349 40.3373 133.178 39.6019 133.178 38.7545C133.178 37.9168 133.349 37.1862 133.69 36.5628C134.031 35.9394 134.498 35.4621 135.092 35.131C135.696 34.7998 136.388 34.6342 137.167 34.6342ZM145.132 34.6342C145.863 34.6342 146.486 34.8144 147.002 35.1748C147.519 35.5352 147.884 36.0125 148.098 36.6067V34.7365H149.764V42.7871H148.098V40.9169C147.884 41.5111 147.519 41.9884 147.002 42.3488C146.486 42.7092 145.863 42.8894 145.132 42.8894C144.431 42.8894 143.802 42.7238 143.247 42.3926C142.702 42.0614 142.273 41.5841 141.961 40.9607C141.65 40.3373 141.494 39.6019 141.494 38.7545C141.494 37.9168 141.65 37.1862 141.961 36.5628C142.273 35.9394 142.702 35.4621 143.247 35.131C143.802 34.7998 144.431 34.6342 145.132 34.6342ZM145.643 36.0953C144.903 36.0953 144.309 36.3339 143.861 36.8112C143.423 37.2788 143.203 37.9265 143.203 38.7545C143.203 39.5824 143.423 40.2351 143.861 40.7124C144.309 41.1799 144.903 41.4137 145.643 41.4137C146.111 41.4137 146.53 41.3065 146.9 41.0922C147.27 40.8682 147.562 40.5565 147.777 40.1571C147.991 39.7578 148.098 39.2902 148.098 38.7545C148.098 38.2285 147.991 37.7658 147.777 37.3664C147.562 36.9573 147.27 36.6456 146.9 36.4313C146.53 36.2073 146.111 36.0953 145.643 36.0953ZM153.677 34.6342C154.621 34.6342 155.376 34.8777 155.941 35.3647C156.516 35.842 156.867 36.4849 156.993 37.2934H155.415C155.347 36.8551 155.157 36.5044 154.846 36.2414C154.544 35.9687 154.139 35.8323 153.633 35.8323C153.214 35.8323 152.888 35.9346 152.654 36.1391C152.43 36.3339 152.318 36.6018 152.318 36.9427C152.318 37.196 152.401 37.4005 152.566 37.5564C152.732 37.7122 152.936 37.834 153.18 37.9217C153.433 38.0093 153.789 38.1067 154.246 38.2139C154.85 38.3502 155.337 38.4915 155.708 38.6376C156.087 38.7837 156.409 39.0175 156.672 39.3389C156.945 39.6506 157.081 40.0792 157.081 40.6247C157.081 41.2968 156.823 41.8423 156.307 42.2611C155.8 42.68 155.113 42.8894 154.246 42.8894C153.243 42.8894 152.43 42.6556 151.806 42.1881C151.193 41.7205 150.823 41.0679 150.696 40.2302H152.318C152.367 40.6685 152.561 41.0241 152.902 41.2968C153.243 41.5695 153.691 41.7059 154.246 41.7059C154.646 41.7059 154.958 41.6036 155.182 41.3991C155.415 41.1848 155.532 40.9169 155.532 40.5955C155.532 40.313 155.445 40.089 155.269 39.9234C155.094 39.7578 154.875 39.6311 154.612 39.5435C154.349 39.4461 153.988 39.3487 153.531 39.2513C152.946 39.1149 152.469 38.9785 152.099 38.8421C151.738 38.7058 151.427 38.4866 151.164 38.1847C150.91 37.873 150.784 37.4541 150.784 36.9281C150.784 36.2463 151.037 35.6959 151.543 35.2771C152.06 34.8485 152.771 34.6342 153.677 34.6342ZM162.068 41.3406V42.7871H161.045C160.188 42.7871 159.535 42.5826 159.087 42.1734C158.649 41.7546 158.43 41.063 158.43 40.0987V36.1537H157.276V34.7365H158.43V32.7348H160.11V34.7365H162.053V36.1537H160.11V40.1279C160.11 40.5857 160.193 40.9023 160.359 41.0776C160.534 41.253 160.836 41.3406 161.264 41.3406H162.068Z" fill="white"/>
<g clip-path="url(#clip0)">
<path d="M17.4253 29.4414V31.6414C17.4253 32.7552 16.5224 33.6581 15.4087 33.6581C14.295 33.6581 13.3921 32.7552 13.3921 31.6414V29.4414C13.3921 28.3277 14.295 27.4248 15.4087 27.4248C16.5224 27.4248 17.4253 28.3277 17.4253 29.4414Z" fill="#0066D9"/>
<path d="M41.6263 29.4988C41.6258 29.4797 41.6255 29.4605 41.6255 29.4414C41.6255 28.3277 42.5284 27.4248 43.6421 27.4248C44.7558 27.4248 45.6587 28.3277 45.6587 29.4414C45.6587 29.4606 45.6585 29.4797 45.6579 29.4988H45.6587V31.6987H45.6579C45.6277 32.7859 44.7367 33.658 43.6421 33.658C42.5475 33.658 41.6566 32.7859 41.6263 31.6987H41.6255V29.4987H41.6263V29.4988Z" fill="#4285F4"/>
<path d="M24.3926 36.041V38.241C24.3926 39.3547 23.4898 40.2576 22.376 40.2576C21.2622 40.2576 20.3594 39.3547 20.3594 38.241V36.041C20.3594 34.9273 21.2623 34.0244 22.376 34.0244C23.4897 34.0244 24.3926 34.9273 24.3926 36.041V36.041ZM24.3926 22.8413V30.037H24.3921C24.3678 31.1296 23.4744 32.0078 22.376 32.0078C21.2776 32.0078 20.3843 31.1296 20.3599 30.037H20.3594V22.8413C20.3594 21.7276 21.2623 20.8247 22.376 20.8247C23.4897 20.8247 24.3926 21.7276 24.3926 22.8413Z" fill="#EA4335"/>
<path d="M34.6582 25.0413C34.6582 26.155 35.561 27.0579 36.6748 27.0579C37.7886 27.0579 38.6914 26.155 38.6914 25.0413V22.8413C38.6914 21.7276 37.7886 20.8247 36.6748 20.8247C35.5611 20.8247 34.6582 21.7276 34.6582 22.8413V25.0413Z" fill="#34A853"/>
<path d="M27.5078 18.6248C27.5078 19.7385 28.4107 20.6414 29.5244 20.6414C30.6382 20.6414 31.541 19.7385 31.541 18.6248V16.4248C31.541 15.3111 30.6382 14.4082 29.5244 14.4082C28.4107 14.4082 27.5078 15.3111 27.5078 16.4248V18.6248ZM27.5078 42.4575C27.5078 41.3438 28.4107 40.4409 29.5244 40.4409C30.6382 40.4409 31.541 41.3438 31.541 42.4575V44.6575C31.541 45.7712 30.6382 46.6741 29.5244 46.6741C28.4107 46.6741 27.5078 45.7712 27.5078 44.6575V42.4575Z" fill="#FAB908"/>
<path d="M34.6582 31.0913C34.6582 29.9776 35.561 29.0747 36.6748 29.0747C37.7886 29.0747 38.6914 29.9776 38.6914 31.0913V38.2412C38.6914 39.3549 37.7886 40.2578 36.6748 40.2578C35.5611 40.2578 34.6582 39.3549 34.6582 38.2412V31.0913Z" fill="#34A853"/>
<path d="M31.541 24.6748V36.4078C31.541 37.5216 30.6382 38.4244 29.5244 38.4244C28.4107 38.4244 27.5078 37.5216 27.5078 36.4078V24.6748C27.5078 23.561 28.4107 22.6582 29.5244 22.6582C30.6382 22.6582 31.541 23.561 31.541 24.6748Z" fill="#FAB908"/>
</g>
<defs>
<clipPath id="clip0">
<rect width="32.2659" height="32.2659" fill="white" transform="translate(13.394 14.4087)"/>
</clipPath>
</defs>
</svg>
