<svg width="90" height="30" viewBox="0 0 90 30" fill="none" xmlns="http://www.w3.org/2000/svg">
<path d="M18.7987 25.6442C17.8549 25.6442 17.0898 26.4062 17.0898 27.3462C17.0898 28.2862 17.8549 29.0483 18.7987 29.0483C19.7425 29.0483 20.5076 28.2862 20.5076 27.3462C20.5076 26.4062 19.7425 25.6442 18.7987 25.6442V25.6442Z" fill="#212A30"/>
<path d="M1.70887 7.03514C2.65265 7.03514 3.41773 6.27311 3.41773 5.33309C3.41773 4.39308 2.65265 3.63104 1.70887 3.63104C0.765086 3.63104 0 4.39308 0 5.33309C0 6.27311 0.765086 7.03514 1.70887 7.03514Z" fill="#212A30"/>
<path d="M7.40611 3.4041C8.09737 3.4041 8.72055 2.98929 8.98498 2.35316C9.24941 1.71702 9.103 0.984861 8.61405 0.498172C8.1251 0.0114833 7.38991 -0.133863 6.7514 0.129924C6.11288 0.393712 5.69682 1.01467 5.69727 1.70317C5.69788 2.64275 6.46277 3.4041 7.40611 3.4041Z" fill="#212A30"/>
<path fill-rule="evenodd" clip-rule="evenodd" d="M22.6791 18.1319V18.1159L22.6757 18.1137C22.6757 17.5198 22.1943 17.0384 21.6004 17.0384C21.0066 17.0384 20.5252 17.5198 20.5252 18.1137V19.5913V21.6646C20.5258 22.5711 19.8371 23.3296 18.9347 23.4161C18.0323 23.5026 17.212 22.8889 17.0403 21.9988C16.9264 21.4571 16.4283 21.0842 15.8765 21.1273C15.3247 21.1705 14.8907 21.6165 14.8625 22.1692V22.1999V22.2261V23.7356V23.7617V27.9673C14.8625 28.9403 14.0737 29.7291 13.1007 29.7291C12.1277 29.7291 11.339 28.9403 11.339 27.9673V24.8131H11.3185C11.2237 24.3045 10.7799 23.9358 10.2626 23.9358C9.74528 23.9358 9.30145 24.3045 9.20666 24.8131H9.1953V24.9097C9.1953 25.8827 8.40653 26.6715 7.43353 26.6715C6.46053 26.6715 5.67176 25.8827 5.67176 24.9097V16.3109C5.67232 16.3034 5.67232 16.2958 5.67176 16.2882V14.8197C5.67232 14.8121 5.67232 14.8045 5.67176 14.7969C5.66548 14.2037 5.1795 13.7279 4.58628 13.7342C3.99307 13.7404 3.51726 14.2264 3.52354 14.8197V15.0106V17.2271C3.52354 18.2001 2.73477 18.9889 1.76177 18.9889C0.788771 18.9889 0 18.2001 0 17.2271V11.0437C0 10.0707 0.788771 9.28189 1.76177 9.28189C2.73477 9.28189 3.52354 10.0707 3.52354 11.0437V11.0596C3.57655 11.6057 4.03258 12.0241 4.58119 12.0299C5.1298 12.0357 5.59463 11.6272 5.65926 11.0823C5.65987 11.0752 5.65987 11.0679 5.65926 11.0607V9.5831C5.65981 9.57553 5.65981 9.56793 5.65926 9.56037V7.51439C5.65926 6.54137 6.44803 5.75258 7.42103 5.75258C8.39402 5.75258 9.1828 6.54137 9.1828 7.51439V7.70649C9.20167 8.28705 9.67776 8.74792 10.2586 8.74792C10.8395 8.74792 11.3156 8.28705 11.3344 7.70649V2.03118C11.3182 1.3921 11.6498 0.794492 12.2007 0.47017C12.7516 0.145848 13.4351 0.145848 13.986 0.47017C14.5369 0.794492 14.8685 1.3921 14.8523 2.03118V7.79515H14.8614C14.9022 8.35415 15.3676 8.78682 15.9281 8.78682C16.4886 8.78682 16.954 8.35415 16.9948 7.79515H17.0039V4.26584C17.0039 3.29282 17.7927 2.50403 18.7657 2.50403C19.7387 2.50403 20.5275 3.29282 20.5275 4.26584V12.8873V14.3559C20.5275 14.9498 21.0089 15.4312 21.6027 15.4312C22.1965 15.4312 22.6779 14.9498 22.6779 14.3559V14.1684V11.9485C22.6793 11.0705 23.3297 10.3289 24.1999 10.2128C24.2785 10.1997 24.3578 10.1917 24.4374 10.1889C25.403 10.2058 26.1826 10.9829 26.2026 11.9485V18.1319C26.2026 19.1049 25.4139 19.8937 24.4409 19.8937C23.4679 19.8937 22.6791 19.1049 22.6791 18.1319ZM14.2522 19.3367C14.5349 19.5133 14.8612 19.6074 15.1945 19.6084C16.1203 19.6083 16.8966 18.9094 16.9938 17.9887H17.0131V12.9419V12.2088C17.0131 11.2044 16.1989 10.3901 15.1945 10.3901C14.8057 10.3914 14.4278 10.5182 14.117 10.7516C13.5216 11.1746 12.7263 11.1841 12.121 10.7755H12.1131C11.5682 10.3474 10.8265 10.269 10.2042 10.5738C9.58196 10.8785 9.18905 11.5125 9.19309 12.2054V21.2725C9.21194 21.8518 9.68702 22.3116 10.2666 22.3116C10.8462 22.3116 11.3213 21.8518 11.3402 21.2725V20.6859C11.3376 19.9958 11.7405 19.3684 12.3693 19.0837C12.998 18.799 13.7353 18.9101 14.2522 19.3674V19.3367Z" fill="#212A30"/>
<path d="M24.494 22.0132C23.8029 22.0132 23.1798 22.4279 22.9153 23.0639C22.6508 23.6999 22.797 24.4319 23.2857 24.9187C23.7744 25.4055 24.5094 25.5511 25.148 25.2877C25.7865 25.0242 26.2029 24.4036 26.2029 23.7152C26.2029 22.7752 25.4378 22.0132 24.494 22.0132Z" fill="#212A30"/>
<path d="M13.415 13.1508C12.7352 13.026 12.0472 13.3226 11.6664 13.9048C11.2857 14.4869 11.2857 15.2422 11.6664 15.8244C12.0472 16.4065 12.7352 16.7032 13.415 16.5783C14.25 16.4447 14.8647 15.718 14.8647 14.8646C14.8647 14.0111 14.25 13.2844 13.415 13.1508Z" fill="#212A30"/>
<path fill-rule="evenodd" clip-rule="evenodd" d="M30.8376 2.58302C30.7852 2.64667 30.7579 2.72693 30.7609 2.8089V12.41C30.7533 12.4938 30.7839 12.5766 30.8444 12.6359C30.907 12.6867 30.9866 12.7125 31.0675 12.7082H33.1355C33.3494 12.7082 33.4558 12.6099 33.4558 12.4123V9.13698H35.5661C36.015 9.13775 36.4581 9.03772 36.862 8.84446C37.2417 8.66133 37.5823 8.40789 37.8652 8.09792C38.1432 7.79077 38.3611 7.43541 38.508 7.04983C38.7608 6.3986 38.8031 5.68607 38.6292 5.01012C38.5607 4.73878 38.4589 4.4767 38.3261 4.2297C38.1935 3.98095 38.0311 3.74888 37.8423 3.5385C37.6549 3.32749 37.4394 3.14247 37.2018 2.98847C36.96 2.83283 36.6974 2.7112 36.4217 2.62706C36.1285 2.53885 35.8234 2.49506 35.5169 2.49718H31.0663C30.9809 2.49066 30.897 2.52214 30.8376 2.58302ZM35.9319 5.40769C35.9794 5.5405 36.0042 5.68021 36.0051 5.82106C36.0082 5.96508 35.9869 6.1086 35.9422 6.24571C35.8957 6.37899 35.8248 6.50265 35.7329 6.61051C35.6377 6.71876 35.5208 6.80642 35.3897 6.86802C35.2474 6.93689 35.0906 6.97135 34.9322 6.96854H33.4555V4.67245H34.9333C35.0895 4.66973 35.2438 4.70503 35.3829 4.77522C35.5112 4.84153 35.6254 4.93164 35.7191 5.04064C35.8122 5.14908 35.8844 5.2735 35.9319 5.40769Z" fill="#212A30"/>
<path d="M40.3281 4.36799C40.3277 4.29001 40.3459 4.213 40.3814 4.14304C40.4113 4.07827 40.4561 4.02097 40.5121 3.97545C40.6249 3.90229 40.7573 3.86316 40.8929 3.86297H41.9588C42.0326 3.85955 42.106 3.8763 42.1705 3.91133C42.2228 3.94296 42.2674 3.98516 42.3013 4.03506C42.3386 4.08834 42.3693 4.14573 42.3927 4.20603C42.4201 4.27205 42.4518 4.33629 42.4876 4.39836C42.4981 4.41636 42.5166 4.59295 42.5455 4.66381C42.5744 4.73467 42.6034 4.81341 42.6369 4.89776C42.6705 4.98212 42.7017 5.06198 42.733 5.13734L42.792 5.28469C42.9332 5.13472 43.0686 4.97612 43.1982 4.80891C43.3246 4.64519 43.4626 4.49033 43.6114 4.3455C43.7542 4.20515 43.9186 4.08715 44.0986 3.99569C44.2955 3.89968 44.5138 3.85254 44.7339 3.85847C44.962 3.85617 45.1899 3.87462 45.4144 3.91358C45.6091 3.94758 45.7996 4.0015 45.9827 4.07443C46.1674 4.14777 46.3448 4.23737 46.5127 4.34212C46.6886 4.4546 46.8807 4.57945 47.0914 4.7268C47.4165 4.89551 47.4767 5.14634 47.2754 5.4804L46.6284 6.54444C46.5509 6.66938 46.4264 6.76013 46.2812 6.79752C46.13 6.82835 45.9724 6.80687 45.8357 6.73678C45.6567 6.56057 45.4481 6.41528 45.2189 6.30711C44.993 6.2103 44.7482 6.16233 44.5013 6.16651C44.3371 6.16371 44.1738 6.18922 44.0187 6.24187C43.881 6.29167 43.753 6.36394 43.6403 6.45558C43.5217 6.55261 43.4153 6.66285 43.3232 6.78402C43.2237 6.91224 43.1253 7.05397 43.0258 7.20918V12.1773C43.0359 12.3202 42.9895 12.4614 42.8962 12.5721C42.7764 12.6725 42.6196 12.7209 42.4622 12.706H40.879C40.5118 12.706 40.3281 12.5298 40.3281 12.1773V4.36799Z" fill="#212A30"/>
<path fill-rule="evenodd" clip-rule="evenodd" d="M48.7228 5.16714C47.8636 6.0215 47.3844 7.18353 47.3927 8.39282C47.3919 8.80535 47.4478 9.21606 47.5588 9.6135C47.6629 9.99417 47.8159 10.3599 48.0139 10.7016C48.2092 11.0366 48.4474 11.3449 48.7228 11.6185C49.2799 12.1735 49.9736 12.5729 50.7344 12.7768C51.134 12.8835 51.5461 12.9369 51.9598 12.9355C52.7666 12.9395 53.5598 12.7282 54.257 12.3235C54.5927 12.129 54.9017 11.892 55.1763 11.6185C55.4519 11.3454 55.6899 11.0371 55.884 10.7016C56.2934 10.0006 56.5082 9.20377 56.5064 8.39282C56.5116 7.7788 56.3896 7.17032 56.148 6.60543C55.9194 6.06851 55.5895 5.58026 55.1763 5.16714C54.3216 4.32197 53.1641 3.85087 51.9598 3.85805C51.1471 3.8543 50.3477 4.06382 49.6421 4.46556C49.3062 4.65841 48.9971 4.89428 48.7228 5.16714ZM50.0672 9.24625C49.9702 8.97219 49.9221 8.68336 49.9249 8.3928C49.9236 8.10558 49.9721 7.8203 50.0683 7.54954C50.1563 7.29189 50.2917 7.05282 50.4677 6.84456C50.6413 6.64132 50.8566 6.47746 51.0991 6.364C51.3609 6.24303 51.6468 6.18259 51.9354 6.18718C52.4883 6.1782 53.0154 6.42007 53.3679 6.84456C53.5412 7.05203 53.6739 7.28999 53.7593 7.54614C53.9406 8.09845 53.9406 8.69394 53.7593 9.24625C53.6764 9.49925 53.5442 9.73344 53.3702 9.93536C53.1985 10.128 52.988 10.2825 52.7523 10.3887C52.4966 10.5043 52.2185 10.5624 51.9377 10.5587C51.6499 10.5628 51.3646 10.5048 51.1014 10.3887C50.8617 10.2827 50.6467 10.1284 50.4699 9.93536C50.2916 9.73418 50.1548 9.50004 50.0672 9.24625Z" fill="#212A30"/>
<path fill-rule="evenodd" clip-rule="evenodd" d="M68.2635 12.6251C68.7703 12.4165 69.2358 12.1194 69.6382 11.7476C69.7077 11.6983 69.7695 11.6389 69.8214 11.5714C69.8727 11.5021 69.8995 11.4178 69.8977 11.3316C69.8977 11.2813 69.8909 11.2311 69.8772 11.1827C69.8559 11.1225 69.8226 11.0672 69.7793 11.0201L69.0442 10.1881C68.979 10.1219 68.9081 10.0614 68.8325 10.0074C68.7784 9.96911 68.7144 9.94738 68.6481 9.94486C68.5886 9.94444 68.53 9.96016 68.4786 9.99033C68.4112 10.03 68.3472 10.0752 68.2874 10.1256C68.1886 10.2195 68.0776 10.2998 67.9574 10.3643C67.8119 10.4446 67.6595 10.5119 67.5022 10.5655C67.3355 10.6242 67.1647 10.6705 66.9912 10.7042C66.8223 10.7385 66.6503 10.756 66.4779 10.7564C66.2787 10.7549 66.0804 10.7293 65.8873 10.6803C65.6781 10.629 65.4789 10.5433 65.2978 10.4268C65.1053 10.3022 64.9391 10.1412 64.8085 9.95282C64.6581 9.73069 64.5618 9.4765 64.5274 9.21057H69.5301C69.7521 9.21681 69.9742 9.19928 70.1924 9.15829C70.3194 9.13788 70.4342 9.07102 70.5145 8.97074C70.5853 8.86261 70.6228 8.73618 70.6226 8.607C70.6294 8.45469 70.6329 8.25805 70.6329 8.01708C70.6339 7.65221 70.5814 7.28916 70.4769 6.93952C70.3737 6.59364 70.2256 6.26272 70.0365 5.95517C69.8443 5.64549 69.615 5.36036 69.3537 5.10608C69.0922 4.84896 68.7998 4.62522 68.4831 4.43999C68.1638 4.25392 67.8219 4.10953 67.4657 4.01033C67.1021 3.90807 66.726 3.85681 66.3482 3.85802C65.9421 3.85609 65.5379 3.91197 65.1476 4.02397C64.7764 4.13132 64.4213 4.28766 64.0915 4.48887C63.768 4.68734 63.4729 4.92861 63.2141 5.2061C62.9534 5.48163 62.7282 5.78864 62.5438 6.11998C62.1678 6.81174 61.9721 7.58687 61.9748 8.37399C61.969 8.99694 62.0967 9.61391 62.3492 10.1836C62.5906 10.7263 62.935 11.2173 63.3632 11.6294C64.2464 12.4738 65.4237 12.9422 66.6464 12.9354C67.2007 12.94 67.7504 12.8345 68.2635 12.6251ZM65.7749 6.08589C65.9398 6.01285 66.1179 5.97417 66.2984 5.97223C66.5213 5.96894 66.7432 6.00274 66.955 6.07225C67.1359 6.13298 67.3049 6.2245 67.4546 6.34278C67.6012 6.46 67.7317 6.59606 67.8426 6.74743C67.9602 6.90578 68.066 7.07256 68.159 7.24643H64.6118C64.6909 7.08198 64.7874 6.9265 64.8997 6.78267C65.0169 6.63157 65.1509 6.49428 65.2992 6.37347C65.4432 6.25543 65.6034 6.15859 65.7749 6.08589Z" fill="#212A30"/>
<path d="M77.6818 10.0703C77.7365 10.0292 77.7992 9.99986 77.8658 9.98415C77.9103 9.97437 77.9555 9.96868 78.001 9.96715C78.0753 9.96624 78.1488 9.98253 78.2157 10.0147C78.2993 10.0662 78.3684 10.138 78.4167 10.2233L79.1926 11.3918C79.2173 11.4315 79.2393 11.4728 79.2585 11.5154C79.2763 11.5507 79.2871 11.5892 79.2903 11.6287C79.2937 11.7254 79.2572 11.8192 79.1892 11.8882C79.1225 11.9539 79.0494 12.0127 78.9711 12.0639C78.5847 12.3298 78.1645 12.5428 77.7215 12.6975C77.2615 12.8577 76.7775 12.9382 76.2903 12.9355C75.8843 12.9366 75.4801 12.8832 75.0884 12.7768C74.7107 12.6737 74.3482 12.5213 74.0104 12.3235C73.6777 12.1269 73.3706 11.8902 73.096 11.6185C72.8201 11.346 72.5824 11.0376 72.3894 10.7016C72.1921 10.3597 72.0394 9.99406 71.9351 9.61353C71.717 8.81353 71.717 7.96993 71.9351 7.16993C72.0388 6.78883 72.1915 6.42272 72.3894 6.08074C72.5837 5.74655 72.8212 5.4394 73.096 5.16722C73.6482 4.6169 74.3351 4.22031 75.0884 4.01683C75.4801 3.91047 75.8843 3.8571 76.2903 3.85815C76.7634 3.85398 77.2345 3.92123 77.6875 4.05763C78.1161 4.19374 78.5214 4.39439 78.8893 4.65266L78.8677 4.63226C78.962 4.68561 79.0447 4.7573 79.1108 4.84307C79.1729 4.93068 79.2044 5.0362 79.2005 5.14342C79.1982 5.235 79.1694 5.32395 79.1176 5.39957L78.5031 6.44342C78.3736 6.6701 78.2168 6.78344 78.0328 6.78344C77.9804 6.78147 77.9286 6.77114 77.8794 6.75284C77.8079 6.72375 77.7403 6.68566 77.6784 6.6395C77.4736 6.50539 77.254 6.39511 77.0241 6.31082C76.7852 6.22471 76.5329 6.18135 76.2789 6.18274C76.0012 6.17968 75.7264 6.24017 75.4758 6.35955C75.2349 6.47394 75.0209 6.63768 74.8476 6.84011C74.6714 7.04889 74.5344 7.28772 74.4432 7.54508C74.247 8.09488 74.247 8.69538 74.4432 9.24517C74.5328 9.49846 74.6701 9.73235 74.8476 9.93428C75.0239 10.1265 75.2377 10.2807 75.4758 10.3876C75.7279 10.502 76.002 10.5601 76.2789 10.5576C76.5327 10.5592 76.7845 10.5123 77.0207 10.4194C77.2534 10.328 77.4752 10.2109 77.6818 10.0703Z" fill="#212A30"/>
<path d="M81.0401 2.65243C81.0316 2.52952 81.0856 2.41035 81.1847 2.3334C81.3116 2.24735 81.4508 2.17962 81.5977 2.13232L83.2 1.58974C83.2219 1.58817 83.244 1.58817 83.2659 1.58974H83.3261C83.5008 1.58974 83.6165 1.63804 83.6731 1.7369C83.7375 1.85581 83.7682 1.98914 83.7622 2.12333L83.7541 4.28242H84.933C85.0682 4.27654 85.2003 4.32346 85.2997 4.41273C85.401 4.51766 85.4523 4.65912 85.4409 4.80254V6.11911C85.4543 6.27262 85.4034 6.42491 85.2997 6.54149C85.201 6.63221 85.0688 6.68041 84.933 6.67517H83.7564L83.7645 12.1796C83.7749 12.3268 83.7182 12.4709 83.6095 12.5739C83.4876 12.6687 83.3339 12.7164 83.178 12.7076H81.5838C81.2213 12.7076 81.0401 12.5316 81.0401 12.1796L81.0332 6.67517H80.5172C80.1547 6.67517 79.9738 6.48795 79.9746 6.11349V4.79692C79.9746 4.45018 80.1555 4.27681 80.5172 4.27681H81.0332L81.0401 2.65243Z" fill="#212A30"/>
<path d="M88.4055 12.7087C89.0506 12.7087 89.6321 12.3216 89.879 11.728C90.1258 11.1344 89.9894 10.4511 89.5332 9.99682C89.0771 9.54249 88.3911 9.40658 87.7951 9.65246C87.1991 9.89834 86.8105 10.4776 86.8105 11.1201C86.8105 11.9974 87.5246 12.7087 88.4055 12.7087Z" fill="#212A30"/>
<path d="M88.4055 7.26206C89.0509 7.26206 89.6327 6.87464 89.8793 6.2806C90.126 5.68657 89.9889 5.00303 89.532 4.54898C89.0751 4.09493 88.3885 3.95989 87.7927 4.20688C87.1968 4.45387 86.8091 5.03419 86.8106 5.67702C86.8125 6.55298 87.526 7.26206 88.4055 7.26206Z" fill="#212A30"/>
<path fill-rule="evenodd" clip-rule="evenodd" d="M37.8427 16.2482C38.0308 16.4591 38.1932 16.6911 38.3265 16.9394C38.4586 17.1855 38.5603 17.4464 38.6296 17.7164C38.803 18.3928 38.7606 19.1056 38.5084 19.7573C38.3627 20.1451 38.1443 20.5023 37.8645 20.81C37.5819 21.1202 37.2413 21.3737 36.8614 21.5565C36.4575 21.7483 36.0149 21.8471 35.5667 21.8457H33.4566V25.1211C33.4566 25.3176 33.3502 25.417 33.1363 25.417H31.0673C30.9865 25.4205 30.9072 25.3948 30.8443 25.3447C30.7842 25.2852 30.7536 25.2026 30.7608 25.1188V15.5185C30.7578 15.4366 30.785 15.3563 30.8374 15.2926C30.8969 15.2318 30.9807 15.1999 31.0662 15.2057H35.5164C35.8233 15.2039 36.1287 15.2481 36.4222 15.3367C36.6981 15.4206 36.9606 15.5422 37.2022 15.6981C37.4396 15.8524 37.6551 16.0374 37.8427 16.2482ZM35.7224 19.3236C35.814 19.2156 35.885 19.092 35.9317 18.9588C35.9798 18.8226 36.0045 18.6795 36.0049 18.5353C36.004 18.3944 35.9792 18.2547 35.9317 18.1219C35.8844 17.9876 35.8123 17.8631 35.719 17.7548C35.6248 17.6457 35.5103 17.5556 35.3816 17.4894C35.2425 17.4192 35.0882 17.3839 34.9321 17.3866H33.4555V19.6805H34.9218C35.0801 19.6837 35.2369 19.6496 35.3793 19.5811C35.5102 19.5192 35.6269 19.4316 35.7224 19.3236Z" fill="#212A30"/>
<path fill-rule="evenodd" clip-rule="evenodd" d="M37.8427 16.2482C38.0308 16.4591 38.1932 16.6911 38.3265 16.9394C38.4586 17.1855 38.5603 17.4464 38.6296 17.7164C38.803 18.3928 38.7606 19.1056 38.5084 19.7573C38.3627 20.1451 38.1443 20.5023 37.8645 20.81C37.5819 21.1202 37.2413 21.3737 36.8614 21.5565C36.4575 21.7483 36.0149 21.8471 35.5667 21.8457H33.4566V25.1211C33.4566 25.3176 33.3502 25.417 33.1363 25.417H31.0673C30.9865 25.4205 30.9072 25.3948 30.8443 25.3447C30.7842 25.2852 30.7536 25.2026 30.7608 25.1188V15.5185C30.7578 15.4366 30.785 15.3563 30.8374 15.2926C30.8969 15.2318 30.9807 15.1999 31.0662 15.2057H35.5164C35.8233 15.2039 36.1287 15.2481 36.4222 15.3367C36.6981 15.4206 36.9606 15.5422 37.2022 15.6981C37.4396 15.8524 37.6551 16.0374 37.8427 16.2482ZM35.7224 19.3236C35.814 19.2156 35.885 19.092 35.9317 18.9588C35.9798 18.8226 36.0045 18.6795 36.0049 18.5353C36.004 18.3944 35.9792 18.2547 35.9317 18.1219C35.8844 17.9876 35.8123 17.8631 35.719 17.7548C35.6248 17.6457 35.5103 17.5556 35.3816 17.4894C35.2425 17.4192 35.0882 17.3839 34.9321 17.3866H33.4555V19.6805H34.9218C35.0801 19.6837 35.2369 19.6496 35.3793 19.5811C35.5102 19.5192 35.6269 19.4316 35.7224 19.3236Z" fill="#212A30"/>
<path d="M72.9271 14.0703H72.8667C72.8442 14.0706 72.8217 14.0725 72.7994 14.076L71.1931 14.6269C71.0455 14.6749 70.9059 14.744 70.7787 14.8319C70.6795 14.9105 70.6253 15.0319 70.6336 15.1572V24.8778C70.6336 25.2363 70.8147 25.4161 71.1791 25.4161H72.7785C72.9346 25.4254 73.0886 25.3767 73.2103 25.2798C73.3193 25.1748 73.3762 25.0278 73.3658 24.8778V14.6143C73.3721 14.4776 73.3417 14.3416 73.2776 14.2203C73.2184 14.1195 73.1023 14.0703 72.9271 14.0703Z" fill="#212A30"/>
<path d="M72.9261 14.0703H72.8658C72.8436 14.0706 72.8215 14.0725 72.7996 14.076L71.1928 14.6269C71.0455 14.6751 70.906 14.7442 70.7787 14.8319C70.6795 14.9105 70.6253 15.0319 70.6336 15.1572V24.8779C70.6336 25.236 70.8154 25.4155 71.1789 25.4162H72.7788C72.9347 25.425 73.0885 25.3765 73.2103 25.2799C73.3193 25.1749 73.3761 25.0279 73.3658 24.8779V14.6143C73.3723 14.4774 73.3415 14.3413 73.2765 14.2203C73.2185 14.1195 73.1013 14.0703 72.9261 14.0703Z" fill="#212A30"/>
<path fill-rule="evenodd" clip-rule="evenodd" d="M47.0248 17.8146C47.286 18.069 47.5154 18.3541 47.708 18.6635C47.8976 18.9697 48.0458 19.2995 48.1487 19.6444C48.2532 19.994 48.3058 20.357 48.3047 20.7218C48.3047 20.9627 48.3025 21.1582 48.2945 21.3117C48.2948 21.4407 48.2577 21.567 48.1874 21.6753C48.1061 21.775 47.9911 21.8417 47.864 21.8629C47.6451 21.9028 47.4226 21.9199 47.2001 21.914H42.1954C42.2296 22.18 42.326 22.4342 42.4766 22.6562C42.6073 22.8449 42.7736 23.0062 42.9663 23.1312C43.1475 23.2474 43.3469 23.3327 43.5562 23.3836C43.7493 23.4329 43.9478 23.4588 44.1472 23.4608C44.3196 23.4599 44.4916 23.4424 44.6607 23.4086C44.8342 23.3744 45.0051 23.3281 45.172 23.2699C45.3293 23.2159 45.4817 23.1486 45.6275 23.0687C45.7477 23.0042 45.8588 22.9239 45.9578 22.8301C46.0179 22.7797 46.0818 22.7341 46.1491 22.6937C46.2008 22.6644 46.2593 22.6491 46.3188 22.6494C46.3848 22.651 46.4488 22.6728 46.5021 22.7119C46.5787 22.7648 46.65 22.8249 46.715 22.8914L47.4507 23.7234C47.4938 23.7706 47.527 23.8258 47.5486 23.8859C47.5622 23.9348 47.5691 23.9852 47.5691 24.0359C47.5714 24.122 47.5441 24.2062 47.4917 24.2746C47.4411 24.3421 47.3804 24.4016 47.3117 24.4508C46.9092 24.8226 46.4433 25.1197 45.9361 25.3282C45.4216 25.54 44.87 25.6474 44.3134 25.6441C43.09 25.6497 41.9122 25.1811 41.0281 24.3371C40.5997 23.9252 40.2555 23.4343 40.0147 22.8914C39.7643 22.3226 39.6389 21.7068 39.6468 21.0855C39.644 20.2988 39.8398 19.5241 40.2162 18.8329C40.3996 18.5 40.6237 18.1911 40.8835 17.9134C41.1425 17.636 41.4378 17.3948 41.7615 17.1963C42.0912 16.9953 42.4461 16.839 42.8171 16.7314C43.2074 16.6201 43.6115 16.5646 44.0173 16.5666C44.3954 16.5658 44.7718 16.6175 45.1356 16.7201C45.4917 16.8191 45.8334 16.9635 46.1525 17.1497C46.4701 17.3339 46.7632 17.5572 47.0248 17.8146ZM42.5705 19.4852C42.4576 19.6292 42.361 19.7851 42.2824 19.9501L45.8364 19.9455C45.7431 19.772 45.6377 19.6053 45.521 19.4466C45.4084 19.2969 45.2776 19.1617 45.1315 19.0443C44.9812 18.9262 44.8117 18.8347 44.6305 18.7738C44.4188 18.705 44.1971 18.6719 43.9745 18.676C43.7944 18.6761 43.6161 18.7128 43.4507 18.784C43.2791 18.8571 43.1188 18.9543 42.9747 19.0727C42.824 19.1936 42.6883 19.3321 42.5705 19.4852Z" fill="#212A30"/>
<path fill-rule="evenodd" clip-rule="evenodd" d="M47.0248 17.8146C47.286 18.069 47.5154 18.3541 47.708 18.6635C47.8976 18.9697 48.0458 19.2995 48.1487 19.6444C48.2532 19.994 48.3058 20.357 48.3047 20.7218C48.3047 20.9627 48.3025 21.1582 48.2945 21.3117C48.2948 21.4407 48.2577 21.567 48.1874 21.6753C48.1061 21.775 47.9911 21.8417 47.864 21.8629C47.6451 21.9028 47.4226 21.9199 47.2001 21.914H42.1954C42.2296 22.18 42.326 22.4342 42.4766 22.6562C42.6073 22.8449 42.7736 23.0062 42.9663 23.1312C43.1475 23.2474 43.3469 23.3327 43.5562 23.3836C43.7493 23.4329 43.9478 23.4588 44.1472 23.4608C44.3196 23.4599 44.4916 23.4424 44.6607 23.4086C44.8342 23.3744 45.0051 23.3281 45.172 23.2699C45.3293 23.2159 45.4817 23.1486 45.6275 23.0687C45.7477 23.0042 45.8588 22.9239 45.9578 22.8301C46.0179 22.7797 46.0818 22.7341 46.1491 22.6937C46.2008 22.6644 46.2593 22.6491 46.3188 22.6494C46.3848 22.651 46.4488 22.6728 46.5021 22.7119C46.5787 22.7648 46.65 22.8249 46.715 22.8914L47.4507 23.7234C47.4938 23.7706 47.527 23.8258 47.5486 23.8859C47.5622 23.9348 47.5691 23.9852 47.5691 24.0359C47.5714 24.122 47.5441 24.2062 47.4917 24.2746C47.4411 24.3421 47.3804 24.4016 47.3117 24.4508C46.9092 24.8226 46.4433 25.1197 45.9361 25.3282C45.4216 25.54 44.87 25.6474 44.3134 25.6441C43.09 25.6497 41.9122 25.1811 41.0281 24.3371C40.5997 23.9252 40.2555 23.4343 40.0147 22.8914C39.7643 22.3226 39.6389 21.7068 39.6468 21.0855C39.644 20.2988 39.8398 19.5241 40.2162 18.8329C40.3996 18.5 40.6237 18.1911 40.8835 17.9134C41.1425 17.636 41.4378 17.3948 41.7615 17.1963C42.0912 16.9953 42.4461 16.839 42.8171 16.7314C43.2074 16.6201 43.6115 16.5646 44.0173 16.5666C44.3954 16.5658 44.7718 16.6175 45.1356 16.7201C45.4917 16.8191 45.8334 16.9635 46.1525 17.1497C46.4701 17.3339 46.7632 17.5572 47.0248 17.8146ZM42.5705 19.4852C42.4576 19.6292 42.361 19.7851 42.2824 19.9501L45.8364 19.9455C45.7431 19.772 45.6377 19.6053 45.521 19.4466C45.4084 19.2969 45.2776 19.1617 45.1315 19.0443C44.9812 18.9262 44.8117 18.8347 44.6305 18.7738C44.4188 18.705 44.1971 18.6719 43.9745 18.676C43.7944 18.6761 43.6161 18.7128 43.4507 18.784C43.2791 18.8571 43.1188 18.9543 42.9747 19.0727C42.824 19.1936 42.6883 19.3321 42.5705 19.4852Z" fill="#212A30"/>
<path fill-rule="evenodd" clip-rule="evenodd" d="M54.0126 16.5667C55.2168 16.5598 56.3741 17.0312 57.2285 17.8766C57.6415 18.2905 57.9712 18.7794 58.1999 19.3168C58.4413 19.8815 58.5629 20.4899 58.5571 21.1037C58.5596 21.9144 58.3452 22.7111 57.936 23.4119C57.544 24.0834 56.9834 24.6418 56.3093 25.0323C55.6122 25.4365 54.8193 25.6477 54.0126 25.6441C53.599 25.6455 53.187 25.5921 52.7875 25.4855C52.4052 25.3827 52.038 25.2303 51.6955 25.0323C51.359 24.8386 51.0496 24.6016 50.7752 24.3274C49.6126 23.1622 49.1686 21.4644 49.6126 19.8822C49.7156 19.5009 49.8686 19.1347 50.0677 18.7933C50.2637 18.4606 50.5015 18.154 50.7752 17.8811C51.0493 17.6076 51.3588 17.3718 51.6955 17.1797C52.0382 16.982 52.4053 16.8296 52.7875 16.7264C53.1869 16.6189 53.5989 16.5651 54.0126 16.5667ZM55.4238 22.6436C55.5974 22.4419 55.7295 22.2082 55.8128 21.9558C55.9938 21.4036 55.9938 20.8084 55.8128 20.2561C55.7281 19.9992 55.5962 19.7602 55.4238 19.5513C55.2553 19.3484 55.0446 19.1845 54.8061 19.0709C54.5516 18.9513 54.273 18.8913 53.9916 18.8953C53.7032 18.8907 53.4175 18.9507 53.1555 19.0709C52.9129 19.1846 52.6973 19.3484 52.523 19.5513C52.3467 19.7596 52.2106 19.9986 52.1215 20.2561C51.9313 20.8069 51.9313 21.4051 52.1215 21.9558C52.2091 22.2089 52.3455 22.4426 52.523 22.6436C52.6995 22.8388 52.9149 22.9951 53.1555 23.1026C53.4184 23.2192 53.7038 23.2772 53.9916 23.2725C54.2724 23.2767 54.5506 23.2187 54.8061 23.1026C55.0424 22.9951 55.253 22.8386 55.4238 22.6436Z" fill="#212A30"/>
<path fill-rule="evenodd" clip-rule="evenodd" d="M54.0126 16.5667C55.2168 16.5598 56.3741 17.0312 57.2285 17.8766C57.6415 18.2905 57.9712 18.7794 58.1999 19.3168C58.4413 19.8815 58.5629 20.4899 58.5571 21.1037C58.5596 21.9144 58.3452 22.7111 57.936 23.4119C57.544 24.0834 56.9834 24.6418 56.3093 25.0323C55.6122 25.4365 54.8193 25.6477 54.0126 25.6441C53.599 25.6455 53.187 25.5921 52.7875 25.4855C52.4052 25.3827 52.038 25.2303 51.6955 25.0323C51.359 24.8386 51.0496 24.6016 50.7752 24.3274C49.6126 23.1622 49.1686 21.4644 49.6126 19.8822C49.7156 19.5009 49.8686 19.1347 50.0677 18.7933C50.2637 18.4606 50.5015 18.154 50.7752 17.8811C51.0493 17.6076 51.3588 17.3718 51.6955 17.1797C52.0382 16.982 52.4053 16.8296 52.7875 16.7264C53.1869 16.6189 53.5989 16.5651 54.0126 16.5667ZM55.4238 22.6436C55.5974 22.4419 55.7295 22.2082 55.8128 21.9558C55.9938 21.4036 55.9938 20.8084 55.8128 20.2561C55.7281 19.9992 55.5962 19.7602 55.4238 19.5513C55.2553 19.3484 55.0446 19.1845 54.8061 19.0709C54.5516 18.9513 54.273 18.8913 53.9916 18.8953C53.7032 18.8907 53.4175 18.9507 53.1555 19.0709C52.9129 19.1846 52.6973 19.3484 52.523 19.5513C52.3467 19.7596 52.2106 19.9986 52.1215 20.2561C51.9313 20.8069 51.9313 21.4051 52.1215 21.9558C52.2091 22.2089 52.3455 22.4426 52.523 22.6436C52.6995 22.8388 52.9149 22.9951 53.1555 23.1026C53.4184 23.2192 53.7038 23.2772 53.9916 23.2725C54.2724 23.2767 54.5506 23.2187 54.8061 23.1026C55.0424 22.9951 55.253 22.8386 55.4238 22.6436Z" fill="#212A30"/>
<path fill-rule="evenodd" clip-rule="evenodd" d="M66.4485 16.9152C66.964 17.1379 67.4288 17.4637 67.8146 17.8727C68.204 18.2884 68.5096 18.7757 68.7148 19.3078C69.1454 20.454 69.1454 21.7184 68.7148 22.8646C68.5102 23.3973 68.2045 23.8851 67.8146 24.3008C67.4294 24.7093 66.9659 25.0354 66.4519 25.2595C65.9053 25.4976 65.3148 25.6173 64.719 25.6106C64.4588 25.6162 64.1994 25.5804 63.9504 25.5045C63.7471 25.4387 63.554 25.3448 63.3765 25.2256C63.2159 25.1155 63.0676 24.9883 62.9343 24.8462C62.806 24.7085 62.68 24.5707 62.5562 24.4329V27.6419C62.5598 27.7707 62.5157 27.8962 62.4324 27.9942C62.3328 28.098 62.1918 28.1511 62.0487 28.1388H60.4733C60.4125 28.1373 60.3523 28.1255 60.2955 28.1038C60.2313 28.0811 60.171 28.0487 60.1166 28.0078C60.0612 27.9657 60.0145 27.9131 59.9793 27.8531C59.9418 27.7892 59.9227 27.7161 59.9241 27.6419V17.1805C59.9212 17.102 59.939 17.024 59.9759 16.9547C60.0106 16.8938 60.0534 16.838 60.1031 16.7887C60.1556 16.7418 60.2191 16.7088 60.2876 16.6927C60.3486 16.6791 60.4108 16.672 60.4733 16.6713H61.5097C61.5839 16.669 61.6577 16.6833 61.7257 16.7131C61.781 16.7388 61.8292 16.7775 61.8664 16.826C61.9045 16.8766 61.9359 16.932 61.9598 16.9908C61.9845 17.0541 62.0093 17.1207 62.0318 17.1941L62.3199 18.0274C62.3768 17.9525 62.4345 17.8778 62.4925 17.8027C62.564 17.7102 62.636 17.6169 62.7081 17.5215C62.8412 17.3461 62.9967 17.1889 63.1706 17.0541C63.3643 16.9052 63.5799 16.7875 63.8097 16.7052C64.1013 16.6064 64.4079 16.5597 64.7156 16.5674C65.311 16.5613 65.9012 16.6797 66.4485 16.9152ZM65.9647 22.6297C66.1429 22.4273 66.2804 22.1923 66.3698 21.9376V21.9398C66.4657 21.6649 66.5129 21.3752 66.5094 21.0839C66.5107 20.7987 66.4619 20.5155 66.3653 20.2472C66.2749 19.9927 66.1374 19.7575 65.9602 19.554C65.786 19.3571 65.5734 19.198 65.3357 19.0865C65.0841 18.9695 64.8096 18.9104 64.5322 18.9137C64.2507 18.9125 63.9718 18.9677 63.7119 19.0763C63.4616 19.1798 63.2326 19.3291 63.0368 19.5167C62.841 19.7056 62.6805 19.9281 62.563 20.1739C62.4426 20.4263 62.374 20.7005 62.3616 20.9801V21.0839C62.3598 21.3772 62.4181 21.6677 62.5326 21.9376C62.6422 22.1964 62.8008 22.4315 62.9996 22.6297C63.1993 22.8271 63.4345 22.9845 63.6928 23.0938C63.9592 23.2092 64.2466 23.268 64.5367 23.2666C64.8141 23.2699 65.0886 23.2108 65.3402 23.0938C65.5775 22.9831 65.79 22.8253 65.9647 22.6297Z" fill="#212A30"/>
<path fill-rule="evenodd" clip-rule="evenodd" d="M66.4485 16.9152C66.964 17.1379 67.4288 17.4637 67.8146 17.8727C68.204 18.2884 68.5096 18.7757 68.7148 19.3078C69.1454 20.454 69.1454 21.7184 68.7148 22.8646C68.5102 23.3973 68.2045 23.8851 67.8146 24.3008C67.4294 24.7093 66.9659 25.0354 66.4519 25.2595C65.9053 25.4976 65.3148 25.6173 64.719 25.6106C64.4588 25.6162 64.1994 25.5804 63.9504 25.5045C63.7471 25.4387 63.554 25.3448 63.3765 25.2256C63.2159 25.1155 63.0676 24.9883 62.9343 24.8462C62.806 24.7085 62.68 24.5707 62.5562 24.4329V27.6419C62.5598 27.7707 62.5157 27.8962 62.4324 27.9942C62.3328 28.098 62.1918 28.1511 62.0487 28.1388H60.4733C60.4125 28.1373 60.3523 28.1255 60.2955 28.1038C60.2313 28.0811 60.171 28.0487 60.1166 28.0078C60.0612 27.9657 60.0145 27.9131 59.9793 27.8531C59.9418 27.7892 59.9227 27.7161 59.9241 27.6419V17.1805C59.9212 17.102 59.939 17.024 59.9759 16.9547C60.0106 16.8938 60.0534 16.838 60.1031 16.7887C60.1556 16.7418 60.2191 16.7088 60.2876 16.6927C60.3486 16.6791 60.4108 16.672 60.4733 16.6713H61.5097C61.5839 16.669 61.6577 16.6833 61.7257 16.7131C61.781 16.7388 61.8292 16.7775 61.8664 16.826C61.9045 16.8766 61.9359 16.932 61.9598 16.9908C61.9845 17.0541 62.0093 17.1207 62.0318 17.1941L62.3199 18.0274C62.3768 17.9525 62.4345 17.8778 62.4925 17.8027C62.564 17.7102 62.636 17.6169 62.7081 17.5215C62.8412 17.3461 62.9967 17.1889 63.1706 17.0541C63.3643 16.9052 63.5799 16.7875 63.8097 16.7052C64.1013 16.6064 64.4079 16.5597 64.7156 16.5674C65.311 16.5613 65.9012 16.6797 66.4485 16.9152ZM65.9647 22.6297C66.1429 22.4273 66.2804 22.1923 66.3698 21.9376V21.9398C66.4657 21.6649 66.5129 21.3752 66.5094 21.0839C66.5107 20.7987 66.4619 20.5155 66.3653 20.2472C66.2749 19.9927 66.1374 19.7575 65.9602 19.554C65.786 19.3571 65.5734 19.198 65.3357 19.0865C65.0841 18.9695 64.8096 18.9104 64.5322 18.9137C64.2507 18.9125 63.9718 18.9677 63.7119 19.0763C63.4616 19.1798 63.2326 19.3291 63.0368 19.5167C62.841 19.7056 62.6805 19.9281 62.563 20.1739C62.4426 20.4263 62.374 20.7005 62.3616 20.9801V21.0839C62.3598 21.3772 62.4181 21.6677 62.5326 21.9376C62.6422 22.1964 62.8008 22.4315 62.9996 22.6297C63.1993 22.8271 63.4345 22.9845 63.6928 23.0938C63.9592 23.2092 64.2466 23.268 64.5367 23.2666C64.8141 23.2699 65.0886 23.2108 65.3402 23.0938C65.5775 22.9831 65.79 22.8253 65.9647 22.6297Z" fill="#212A30"/>
<path fill-rule="evenodd" clip-rule="evenodd" d="M81.8804 17.8146C82.1414 18.0691 82.3706 18.3541 82.5631 18.6636C82.7545 18.9694 82.9044 19.2992 83.0091 19.6444C83.1138 19.9939 83.1667 20.3569 83.1661 20.7218C83.1661 20.9627 83.1627 21.1582 83.1547 21.3117C83.1556 21.4408 83.1184 21.5673 83.0477 21.6754C82.9636 21.778 82.8437 21.845 82.7121 21.8629C82.4938 21.9028 82.2719 21.9199 82.05 21.914H77.0531C77.0878 22.1798 77.184 22.4339 77.3341 22.6562C77.4647 22.8449 77.6308 23.0062 77.8233 23.1312C78.0048 23.2474 78.2044 23.3327 78.4138 23.3836C78.6064 23.4329 78.8043 23.4588 79.0032 23.4608C79.1758 23.4598 79.348 23.4423 79.5174 23.4086C79.6903 23.3743 79.8606 23.3279 80.0271 23.2699C80.1842 23.2159 80.3365 23.1486 80.4822 23.0687C80.6023 23.0042 80.7132 22.9239 80.8121 22.8301C80.8722 22.7797 80.9361 22.7341 81.0033 22.6937C81.0549 22.6644 81.1134 22.6491 81.1728 22.6494C81.2391 22.6511 81.3034 22.6729 81.3571 22.7119C81.4332 22.7648 81.5041 22.825 81.5687 22.8914L82.3094 23.7234C82.3528 23.7703 82.3861 23.8256 82.4072 23.8859C82.4208 23.9348 82.4277 23.9852 82.4277 24.0359C82.4299 24.1218 82.403 24.2059 82.3515 24.2746C82.3002 24.3419 82.2392 24.4013 82.1706 24.4508C81.7686 24.8223 81.3036 25.1194 80.7973 25.3282C80.2843 25.5393 79.7344 25.6467 79.1795 25.6441C77.9572 25.6509 76.7798 25.1841 75.8949 24.3417C75.4669 23.9298 75.123 23.4388 74.8823 22.896C74.6294 22.3266 74.5017 21.7096 74.508 21.0866C74.5037 20.2998 74.6995 19.5247 75.0769 18.834C75.2593 18.5009 75.4829 18.192 75.7425 17.9146C76.5531 17.0486 77.6889 16.56 78.8757 16.5667C79.2535 16.5657 79.6295 16.6174 79.993 16.7201C80.349 16.8193 80.6908 16.9636 81.0101 17.1497C81.3268 17.3342 81.6192 17.5575 81.8804 17.8146ZM77.4297 19.4807C77.3173 19.6249 77.2208 19.7807 77.1418 19.9455H80.6881C80.5953 19.7715 80.4896 19.6047 80.3718 19.4466C80.2607 19.2961 80.1303 19.1608 79.9839 19.0443C79.8341 18.9262 79.6652 18.8347 79.4844 18.7738C79.2725 18.705 79.0507 18.672 78.8279 18.676C78.648 18.6762 78.4699 18.7129 78.3046 18.784C78.1331 18.8571 77.973 18.9543 77.829 19.0727C77.6803 19.1925 77.5462 19.3294 77.4297 19.4807Z" fill="#212A30"/>
<path fill-rule="evenodd" clip-rule="evenodd" d="M81.8804 17.8146C82.1414 18.0691 82.3706 18.3541 82.5631 18.6636C82.7545 18.9694 82.9044 19.2992 83.0091 19.6444C83.1138 19.9939 83.1667 20.3569 83.1661 20.7218C83.1661 20.9627 83.1627 21.1582 83.1547 21.3117C83.1556 21.4408 83.1184 21.5673 83.0477 21.6754C82.9636 21.778 82.8437 21.845 82.7121 21.8629C82.4938 21.9028 82.2719 21.9199 82.05 21.914H77.0531C77.0878 22.1798 77.184 22.4339 77.3341 22.6562C77.4647 22.8449 77.6308 23.0062 77.8233 23.1312C78.0048 23.2474 78.2044 23.3327 78.4138 23.3836C78.6064 23.4329 78.8043 23.4588 79.0032 23.4608C79.1758 23.4598 79.348 23.4423 79.5174 23.4086C79.6903 23.3743 79.8606 23.3279 80.0271 23.2699C80.1842 23.2159 80.3365 23.1486 80.4822 23.0687C80.6023 23.0042 80.7132 22.9239 80.8121 22.8301C80.8722 22.7797 80.9361 22.7341 81.0033 22.6937C81.0549 22.6644 81.1134 22.6491 81.1728 22.6494C81.2391 22.6511 81.3034 22.6729 81.3571 22.7119C81.4332 22.7648 81.5041 22.825 81.5687 22.8914L82.3094 23.7234C82.3528 23.7703 82.3861 23.8256 82.4072 23.8859C82.4208 23.9348 82.4277 23.9852 82.4277 24.0359C82.4299 24.1218 82.403 24.2059 82.3515 24.2746C82.3002 24.3419 82.2392 24.4013 82.1706 24.4508C81.7686 24.8223 81.3036 25.1194 80.7973 25.3282C80.2843 25.5393 79.7344 25.6467 79.1795 25.6441C77.9572 25.6509 76.7798 25.1841 75.8949 24.3417C75.4669 23.9298 75.123 23.4388 74.8823 22.896C74.6294 22.3266 74.5017 21.7096 74.508 21.0866C74.5037 20.2998 74.6995 19.5247 75.0769 18.834C75.2593 18.5009 75.4829 18.192 75.7425 17.9146C76.5531 17.0486 77.6889 16.56 78.8757 16.5667C79.2535 16.5657 79.6295 16.6174 79.993 16.7201C80.349 16.8193 80.6908 16.9636 81.0101 17.1497C81.3268 17.3342 81.6192 17.5575 81.8804 17.8146ZM77.4297 19.4807C77.3173 19.6249 77.2208 19.7807 77.1418 19.9455H80.6881C80.5953 19.7715 80.4896 19.6047 80.3718 19.4466C80.2607 19.2961 80.1303 19.1608 79.9839 19.0443C79.8341 18.9262 79.6652 18.8347 79.4844 18.7738C79.2725 18.705 79.0507 18.672 78.8279 18.676C78.648 18.6762 78.4699 18.7129 78.3046 18.784C78.1331 18.8571 77.973 18.9543 77.829 19.0727C77.6803 19.1925 77.5462 19.3294 77.4297 19.4807Z" fill="#212A30"/>
<path d="M60.2942 4.0079C60.2387 3.90718 60.1277 3.85797 59.9612 3.85797H59.9034C59.8822 3.85827 59.8611 3.86018 59.8402 3.86369L59.5571 3.9667L58.3148 4.41648C58.1749 4.46484 58.0425 4.53385 57.9218 4.62135C57.8262 4.70166 57.7751 4.82539 57.7852 4.95211V12.5286C57.7831 12.6384 57.7685 12.7474 57.7419 12.8537C57.7128 12.9752 57.6707 13.093 57.6165 13.205C57.5673 13.3103 57.5009 13.4059 57.42 13.4877C57.355 13.5595 57.2644 13.6009 57.1691 13.6022H57.0281C56.8898 13.5996 56.7564 13.6549 56.6584 13.7555C56.5553 13.8629 56.5002 14.0097 56.5063 14.1607V15.1587C56.5047 15.286 56.5508 15.409 56.6351 15.502C56.7343 15.6033 56.8685 15.6598 57.0081 15.6588H57.1691C57.5838 15.6601 57.9947 15.5769 58.3781 15.4139C58.754 15.2517 59.1008 15.0253 59.4039 14.7444C59.7006 14.4618 59.9418 14.123 60.1144 13.7464C60.2907 13.3651 60.3811 12.9476 60.3786 12.5252V4.39932C60.3843 4.26347 60.3552 4.12848 60.2942 4.0079Z" fill="#212A30"/>
</svg>
