<svg width="28" height="21" fill="none" xmlns="http://www.w3.org/2000/svg"><path d="M8.297.256C3.833 3.352.88 8.176.88 13.576c0 4.68 3.024 7.344 6.408 7.344 3.096 0 5.688-2.592 5.688-5.688 0-3.096-2.16-5.184-4.896-5.184-.576 0-1.224.072-1.44.216.648-2.592 3.312-5.616 5.616-6.84L8.297.256zm14.616 0c-4.464 3.096-7.344 7.92-7.344 13.32 0 4.68 2.952 7.344 6.336 7.344 3.168 0 5.688-2.592 5.688-5.688 0-3.096-2.16-5.184-4.824-5.184-.576 0-1.224.072-1.44.216.576-2.592 3.312-5.616 5.616-6.84L22.913.256z" fill="#23282F"/></svg>