<svg width="42" height="33" viewBox="0 0 42 33" fill="none" xmlns="http://www.w3.org/2000/svg">
    <path d="M11.6604 0C4.64151 4.94426 0 12.6481 0 21.2718C0 28.7456 4.75472 33 10.0755 33C14.9434 33 19.0189 28.8606 19.0189 23.9164C19.0189 18.9721 15.6226 15.6376 11.3208 15.6376C10.4151 15.6376 9.39623 15.7526 9.0566 15.9826C10.0755 11.8432 14.2641 7.01394 17.8868 5.05924L11.6604 0ZM34.6415 0C27.6226 4.94426 23.0943 12.6481 23.0943 21.2718C23.0943 28.7456 27.7359 33 33.0566 33C38.0377 33 42 28.8606 42 23.9164C42 18.9721 38.6038 15.6376 34.4151 15.6376C33.5094 15.6376 32.4906 15.7526 32.1509 15.9826C33.0566 11.8432 37.3585 7.01394 40.9811 5.05924L34.6415 0Z" fill="#007AFF"/>
</svg>
