<svg width="32" height="32" viewBox="0 0 32 32" fill="none" xmlns="http://www.w3.org/2000/svg">
<path fill-rule="evenodd" clip-rule="evenodd" d="M16 0C24.8365 0 32 7.16345 32 16V32H16C7.16344 32 0 24.8365 0 16C0 7.16344 7.16344 -2.17128e-06 16 0ZM11.3869 16.2094L11.2927 16.2926L8.29277 19.2928L8.25342 19.3344L8.201 19.3982L8.14524 19.4804L8.08953 19.5854L8.04199 19.7121L8.01089 19.8515L8.00133 19.9458L8.00105 20.0538L8.01089 20.149L8.04191 20.2876L8.07719 20.3862L8.13596 20.5041L8.18994 20.5867L8.29277 20.7071L11.2927 23.7073L11.3869 23.7905C11.7792 24.0956 12.3464 24.0678 12.7069 23.7073C13.0674 23.3468 13.0951 22.7795 12.7901 22.3872L12.7069 22.293L11.4147 21.0002L20.9997 21L21.1163 20.9933C21.5754 20.94 21.9396 20.5757 21.993 20.1166L21.9997 19.9999L21.993 19.8833C21.9352 19.3859 21.5125 18.9999 20.9997 18.9999L11.4147 19.0002L12.7069 17.7069L12.7901 17.6127C13.0697 17.253 13.0697 16.7464 12.7901 16.3868L12.7069 16.2926L12.6127 16.2094C12.2531 15.9298 11.7465 15.9298 11.3869 16.2094ZM20.7073 8.29268L20.6131 8.20948L20.5116 8.14015C20.1277 7.91137 19.6235 7.96221 19.2931 8.29268L19.2099 8.38689C18.9049 8.77921 18.9326 9.34648 19.2931 9.70699L20.5853 11.0003L11.0003 11C10.448 11 10.0003 11.4477 10.0003 12L10.007 12.1167C10.0648 12.6141 10.4875 13.0001 11.0003 13.0001L20.5853 13.0003L19.2931 14.2931L19.2099 14.3873C18.9049 14.7796 18.9326 15.3469 19.2931 15.7074C19.6836 16.098 20.3168 16.098 20.7073 15.7074L23.7072 12.7072L23.7761 12.6298L23.8101 12.5868L23.864 12.5042L23.9111 12.4132L23.9581 12.2877L23.9891 12.1491L23.9971 12.0748L23.9987 11.9459L23.9891 11.8516L23.9653 11.7378L23.9499 11.6863L23.9249 11.6188L23.8913 11.5459L23.8346 11.4488L23.7835 11.3784L23.7072 11.2929L20.7073 8.29268Z" fill="white"/>
</svg>
