<svg width="32" height="32" viewBox="0 0 32 32" fill="none" xmlns="http://www.w3.org/2000/svg">
<path fill-rule="evenodd" clip-rule="evenodd" d="M16 0C24.8365 0 32 7.16345 32 16V32H16C7.16344 32 0 24.8365 0 16C0 7.16344 7.16344 -2.17128e-06 16 0ZM16.2412 8.23369C16.0442 8.17754 15.8323 8.19158 15.6427 8.27581L7.72272 11.795L7.6113 11.8543C7.32894 12.0319 7.16778 12.3576 7.20541 12.6964L7.70913 17.2301L7.74818 17.5295C8.0905 19.8145 9.41546 21.8421 11.3831 23.072L15.5336 25.6662L15.6439 25.7248C15.9083 25.8418 16.2167 25.8223 16.4664 25.6662L20.6169 23.072L20.8699 22.9071C22.781 21.6089 24.0346 19.5364 24.2909 17.2301L24.7946 12.6964L24.7995 12.5702C24.7887 12.2368 24.5887 11.9333 24.2773 11.795L16.3573 8.27581L16.2412 8.23369ZM9.49862 13.4133L16 10.5244L22.5014 13.4133L22.1043 16.9872L22.0649 17.2751C21.8011 18.8961 20.8514 20.3311 19.4509 21.2064L16 23.3634L12.5492 21.2064L12.3067 21.0462C10.9601 20.1063 10.0781 18.6287 9.89569 16.9872L9.49862 13.4133ZM18.8796 13.9351C18.4019 13.5598 17.7103 13.6427 17.335 14.1204L14.8011 17.5454L14.5778 17.3222L14.4742 17.2307C14.0427 16.8952 13.4187 16.9257 13.0222 17.3222C12.5926 17.7518 12.5926 18.4483 13.0222 18.8778L14.1222 19.9778L14.2265 20.0699C14.6965 20.4351 15.3866 20.3611 15.7649 19.8796L19.0649 15.4796L19.1434 15.3659C19.4251 14.8974 19.3205 14.2816 18.8796 13.9351Z" fill="white"/>
</svg>
