<svg width="32" height="32" viewBox="0 0 32 32" fill="none" xmlns="http://www.w3.org/2000/svg">
<path fill-rule="evenodd" clip-rule="evenodd" d="M16 0C24.8365 0 32 7.16345 32 16V32H16C7.16344 32 0 24.8365 0 16C0 7.16344 7.16344 -2.17128e-06 16 0ZM11.7014 24.6734L15.5102 22.5809C15.8168 22.4125 16.1831 22.4125 16.4897 22.5809L20.2984 24.6734C20.5033 24.786 20.7379 24.8248 20.9661 24.7839C21.5389 24.6813 21.9237 24.1127 21.8254 23.5141L21.098 19.0821C21.0395 18.7253 21.1527 18.3613 21.4007 18.1086L24.482 14.9698C24.6478 14.801 24.7556 14.5798 24.7889 14.3404C24.8725 13.7394 24.474 13.1813 23.8988 13.0939L19.6405 12.4473C19.2977 12.3953 19.0014 12.1703 18.8481 11.8457L16.9437 7.81331C16.8412 7.59641 16.6732 7.42086 16.4657 7.31381C15.9445 7.045 15.3134 7.26863 15.0562 7.81331L13.1518 11.8457C12.9985 12.1703 12.7022 12.3953 12.3594 12.4473L8.10109 13.0939C7.87204 13.1287 7.66035 13.2414 7.4988 13.4146C7.09309 13.8496 7.1016 14.5459 7.51782 14.9698L10.5992 18.1086C10.8472 18.3613 10.9604 18.7253 10.9018 19.0821L10.1744 23.5141C10.1353 23.7525 10.1725 23.9977 10.2802 24.2118C10.5506 24.7494 11.187 24.9561 11.7014 24.6734ZM14.4509 20.6528L12.7172 21.6053L13.0728 19.4384C13.2443 18.3937 12.9116 17.3237 12.1691 16.5674L10.5749 14.9435L12.6897 14.6224C13.7644 14.4592 14.6782 13.7654 15.1411 12.7852L16 10.9667L16.8588 12.7852C17.3217 13.7654 18.2355 14.4592 19.3102 14.6224L21.425 14.9435L19.8308 16.5674C19.0883 17.3237 18.7556 18.3937 18.9271 19.4384L19.2827 21.6053L17.549 20.6528C16.5827 20.1219 15.4172 20.1219 14.4509 20.6528Z" fill="white"/>
</svg>
