<svg width="32" height="32" viewBox="0 0 32 32" fill="none" xmlns="http://www.w3.org/2000/svg">
<path fill-rule="evenodd" clip-rule="evenodd" d="M16 0C24.8365 0 32 7.16345 32 16V32H16C7.16344 32 0 24.8365 0 16C0 7.16344 7.16344 -2.17128e-06 16 0ZM16 7.3C20.8601 7.3 24.8 11.2399 24.8 16.1C24.8 17.9235 24.2429 19.6664 23.2209 21.131C22.8732 21.6292 22.1875 21.7512 21.6893 21.4035C21.1911 21.0558 21.0691 20.3701 21.4168 19.8719C22.1831 18.7738 22.6 17.4696 22.6 16.1C22.6 12.4549 19.6451 9.5 16 9.5C12.3549 9.5 9.4 12.4549 9.4 16.1C9.4 17.4696 9.81685 18.7738 10.5832 19.8719C10.9309 20.3701 10.8089 21.0558 10.3107 21.4035C9.8125 21.7512 9.12679 21.6292 8.77912 21.131C7.75707 19.6664 7.2 17.9235 7.2 16.1C7.2 11.2399 11.1399 7.3 16 7.3ZM16.6945 14.443L17.0507 15.6027L17.2858 16.3883C17.9009 18.472 18.2 19.7372 18.2 20.3C18.2 21.6255 17.215 22.7 16 22.7C14.785 22.7 13.8 21.6255 13.8 20.3C13.8 19.6697 14.1752 18.1583 14.9493 15.6027L15.3055 14.443C15.5307 13.719 16.4693 13.719 16.6945 14.443Z" fill="white"/>
</svg>
